<svg xmlns="http://www.w3.org/2000/svg" width="249" height="155" viewBox="0 0 249 155">
  <metadata><?xpacket begin="﻿" id="W5M0MpCehiHzreSzNTczkc9d"?>
<x:xmpmeta xmlns:x="adobe:ns:meta/" x:xmptk="Adobe XMP Core 5.6-c140 79.160451, 2017/05/06-01:08:21        ">
   <rdf:RDF xmlns:rdf="http://www.w3.org/1999/02/22-rdf-syntax-ns#">
      <rdf:Description rdf:about=""/>
   </rdf:RDF>
</x:xmpmeta>    
<?xpacket end="w"?></metadata>
<defs>
    <style>
      .cls-1 {
        fill: #09bac8;
        fill-rule: evenodd;
      }
    </style>
  </defs>
  <path class="cls-1" d="M135.383,22.334h7.323v7.394h-7.323V22.334ZM109.888,85.2h14.651V92.6H109.888V85.2Zm65.928,0h14.652V92.6H175.816V85.2Zm65.9,47.928V88.752h-7.3v44.377h-7.3V59.169h-14.7V0H36.648V59.169H21.974v73.96h-7.3V88.752H7.3v44.377H0v14.5H14.651V155H36.625v-7.372h7.3V155H65.9v-7.372H183.1V155h21.974v-7.372h7.3V155h21.975v-7.372H249v-14.5h-7.283ZM164.68,7.539h36.626v14.8H190.462V51.921H175.816V22.334H164.68V7.539ZM47.48,37.128V7.539h29.3V18.49H62.132V25.86H76.783V37.128H62.132V51.921H47.48V37.128ZM80.613,85.2v7.373h-22v14.794H80.59v22.189H36.642V70.407H80.59Zm3.515-33.28V7.539H98.78V37.128h14.657V51.921H84.128ZM146.513,85.2v44.377H124.539V107.39H109.888v22.188H87.913V77.808h7.3V70.436h43.948v7.372h7.3Zm-3.807-33.28V37.128h-7.3V51.921H120.737V14.94h7.3V7.568h21.974V14.94h7.3V51.921H142.706Zm69.73,33.28V107.39h-7.3v7.372h7.3v14.795H190.462V114.784h-7.3v-7.371h-7.3V129.6H153.87v-59.2h58.566V85.2Z"/>
</svg>
