<?xml version="1.0" encoding="UTF-8"?>
<svg width="96px" height="94px" viewBox="0 0 96 94" version="1.1" xmlns="http://www.w3.org/2000/svg" xmlns:xlink="http://www.w3.org/1999/xlink">
    <title>logo-monochrome</title>
    <defs>
        <path d="M41.3833158,0.35918655 C42.3798609,-0.120724283 43.999716,-0.118732381 44.9921249,0.35918655 L76.3127342,15.442397 C77.3092793,15.9223079 78.3176851,17.1900035 78.5627899,18.2638776 L86.2983415,52.1555439 C86.5444678,53.2338937 86.1820742,54.8126924 85.495306,55.6738726 L63.8207718,82.8528787 C63.1311412,83.7176482 61.6708379,84.4186823 60.5693472,84.4186823 L25.8060935,84.4186823 C24.7000119,84.4186823 23.2414372,83.7140589 22.5546689,82.8528787 L0.88013477,55.6738726 C0.190504153,54.8091032 -0.168005554,53.229418 0.0770991996,52.1555439 L7.81265087,18.2638776 C8.05877719,17.1855277 9.07029765,15.920316 10.0627065,15.442397 L41.3833158,0.35918655 Z" id="path-1"></path>
    </defs>
    <g id="logo-monochrome" stroke="none" stroke-width="1" fill="none" fill-rule="evenodd">
        <g id="Rectangle-2" transform="translate(4.503180, 4.500000)">
            <mask id="mask-2" fill="white">
                <use xlink:href="#path-1"></use>
            </mask>
            <use id="Mask" stroke="#000000" stroke-width="8" fill="#FFFFFF" xlink:href="#path-1"></use>
        </g>
        <path d="M34.5692057,27.1325851 L59.8513173,42.2587725 C59.4199208,43.4431885 58.6091367,44.5813781 57.6736295,45.1938694 L49.5997298,50.4799783 C48.2142627,51.3870654 45.9749783,51.3916494 44.5825097,50.4799783 L36.50861,45.1938694 C35.123143,44.2867823 34,42.206345 34,40.545932 L34,29.4150304 C34,28.6897597 34.2130869,27.884979 34.5692057,27.1325851 Z" id="Combined-Shape" stroke="#000000" stroke-width="6" fill="#FFFFFF" transform="translate(46.925432, 39.147233) scale(-1, 1) translate(-46.925432, -39.147233) "></path>
        <path d="M58.6425556,31.4119019 L58.6425556,42.5428034 C58.6425556,44.2027013 57.5264141,46.2790698 56.1339456,47.1907408 L48.0600459,52.4768498 C46.6745788,53.3839368 44.4352943,53.3885208 43.0428258,52.4768498 L34.9689261,47.1907408 C34.2920084,46.7475521 33.6777114,46.0242674 33.2264343,45.2067256 L58.0777651,29.1418783 C58.4308021,29.8907827 58.6425556,30.6909372 58.6425556,31.4119019 Z" id="Combined-Shape" stroke="#000000" stroke-width="6" fill="#FFFFFF" transform="translate(45.821278, 41.246598) scale(-1, 1) translate(-45.821278, -41.246598) "></path>
        <path d="M26.8671204,40.0182635 L67.9000256,63.1287598 C67.4254762,63.9906994 66.7494196,64.7488066 66.0023366,65.1801352 L50.0337741,74.399589 C48.600994,75.2268051 46.271861,75.2232617 44.8452181,74.399589 L28.8766556,65.1801352 C27.4438754,64.3529192 26.2823776,62.3340592 26.2823776,60.6867139 L26.2823776,42.2478062 C26.2823776,41.5302891 26.5019986,40.744893 26.8671204,40.0182635 Z" id="Combined-Shape" stroke="#000000" stroke-width="6" fill="#FFFFFF"></path>
        <path d="M69.6970327,43.1213114 L69.6970327,61.1956962 C69.6970327,62.8528159 68.5313772,64.8691684 67.0985402,65.6964172 L51.4456639,74.7336096 C50.0105561,75.5621695 47.6815159,75.5608585 46.2486788,74.7336096 L30.5958025,65.6964172 C29.9270375,65.3103056 29.3172797,64.6659693 28.8567623,63.9204931 L69.1457742,40.956058 C69.4911534,41.6650382 69.6970327,42.4253088 69.6970327,43.1213114 Z" id="Combined-Shape" stroke="#000000" stroke-width="6" fill="#FFFFFF"></path>
    </g>
</svg>