<?xml version="1.0" encoding="UTF-8"?>
<svg id="Ebene_2" data-name="Ebene 2" xmlns="http://www.w3.org/2000/svg" viewBox="0 0 111.33 111.33">
  <defs>
    <style>
      .cls-1 {
        fill: #fcd094;
      }

      .cls-1, .cls-2 {
        fill-rule: evenodd;
        stroke-width: 0px;
      }

      .cls-2 {
        fill: #f59e0b;
      }
    </style>
  </defs>
  <g id="White">
    <g id="v1.0_metalstack_io_logo_RGB_picture_mark_for_white">
      <g>
        <path class="cls-2" d="m55.62,45.13l-27.81,16.35L0,45.13v-12.51L55.62,0l55.62,32.62v12.51l-27.81,16.35-27.81-16.35Zm-44.95-6.3l17.22,10.06,27.81-16.35,27.81,16.35,17.22-10.06L55.71,12.42,10.68,38.83Z"/>
        <path class="cls-1" d="m0,70.05v-12.51l27.81,16.35,27.81-16.35,27.81,16.35,27.9-16.35v12.51l-27.9,16.35-27.81-16.35-27.81,16.35L0,70.05Z"/>
        <path class="cls-1" d="m0,95.07v-12.51l27.81,16.35,27.81-16.35,27.81,16.35,27.9-16.35v12.51l-27.9,16.27-27.81-16.27-27.81,16.27L0,95.07Z"/>
      </g>
    </g>
  </g>
</svg>