<?xml version="1.0" encoding="UTF-8" standalone="no"?>

<svg width="400px" height="400px" viewBox="0 0 400 400" version="1.1" xmlns="http://www.w3.org/2000/svg" xmlns:xlink="http://www.w3.org/1999/xlink">
    <defs>
        <rect id="path-3ulh_37f8a-1" x="0" y="0" width="390" height="390" rx="8"></rect>
    </defs>
    <g id="Page-1" stroke="none" stroke-width="1" fill="none" fill-rule="evenodd">
        <g id="Group-2">
            <rect id="Rectangle" fill="#FFFFFF" x="0" y="0" width="400" height="400"></rect>
            <g id="Path" transform="translate(5.000000, 5.000000)">
                <mask id="mask-3ulh_37f8a-2" fill="white">
                    <use xlink:href="#path-3ulh_37f8a-1"></use>
                </mask>
                <use id="Mask" fill="#0077BA" xlink:href="#path-3ulh_37f8a-1"></use>
                <polygon fill="#004A82" mask="url(#mask-3ulh_37f8a-2)" points="96.8292542 105.037109 96.8292542 199.713211 240.832532 199.713211 240.832532 250.638977 295.866455 250.638977 117.089996 390 0 390 0 181.018555"></polygon>
            </g>
            <g id="Group" transform="translate(16.781250, 27.740234)" fill="#FFFFFF" fill-rule="nonzero">
                <g id="+1" transform="translate(329.205078, 1.265625)">
                    <polygon id="Path" points="11.6542969 16.59375 18.4394531 16.59375 18.4394531 11.8476562 11.6542969 11.8476562 11.6542969 4.83398438 6.76757812 4.83398438 6.76757812 11.8476562 0 11.8476562 0 16.59375 6.76757812 16.59375 6.76757812 23.8007812 11.6542969 23.8007812"></polygon>
                    <polygon id="Path" points="33.1875 23.9941406 33.1875 0 27.4746094 0 21.8144531 3.99023438 21.8144531 9.08789062 27.1933594 5.30859375 27.4746094 5.30859375 27.4746094 23.9941406"></polygon>
                </g>
                <g id="Metal" transform="translate(1.048828, 0.000000)">
                    <polygon id="Path" points="5.1328125 25.2597656 5.1328125 10.3007812 5.39648438 10.3007812 10.4941406 21.65625 13.8867188 21.65625 18.9316406 10.3007812 19.2128906 10.3007812 19.2128906 25.2597656 24.4160156 25.2597656 24.4160156 1.265625 18.4921875 1.265625 12.3222656 14.9414062 12.1289062 14.9414062 5.95898438 1.265625 0 1.265625 0 25.2597656"></polygon>
                    <path d="M37.828125,25.6113281 C43.5761719,25.6113281 45.9316406,22.0078125 46.0546875,19.4589844 L40.921875,19.4589844 C40.78125,20.6367188 39.4980469,21.4628906 37.8105469,21.4628906 C35.8242188,21.4628906 34.3652344,20.0742188 34.3652344,17.8945312 L34.3652344,17.0332031 L46.1777344,17.0332031 L46.1777344,14.9589844 C46.1777344,9.4921875 42.6621094,6.15234375 37.5820312,6.15234375 C32.8007812,6.15234375 28.9160156,9.08789062 28.9160156,14.9589844 L28.9160156,16.7519531 C28.9160156,22.6054688 32.5019531,25.6113281 37.828125,25.6113281 Z M34.3652344,13.8867188 L34.3652344,13.7636719 C34.3652344,11.6015625 35.7011719,10.1601562 37.6347656,10.1601562 C39.5683594,10.1601562 40.8164062,11.6015625 40.8164062,13.7636719 L40.8164062,13.8867188 L34.3652344,13.8867188 Z" id="Shape"></path>
                    <path d="M51.9785156,6.76757812 L48.9902344,6.76757812 L48.9902344,10.96875 L51.8554688,10.96875 L51.8554688,19.9160156 C51.8554688,23.8359375 53.7714844,25.3125 58.5703125,25.3125 C59.8886719,25.3125 61.1894531,25.1894531 61.6113281,25.1015625 L61.6113281,21.0761719 C61.2597656,21.1113281 60.609375,21.1464844 59.9238281,21.1464844 C58.2011719,21.1464844 57.3925781,20.5839844 57.3925781,18.9316406 L57.3925781,10.96875 L61.5058594,10.96875 L61.5058594,6.76757812 L57.3925781,6.76757812 L57.3925781,2.12695312 L51.9785156,2.12695312 L51.9785156,6.76757812 Z" id="Path"></path>
                    <path d="M70.8925781,25.5410156 C73.6523438,25.5410156 75.1640625,24.2402344 75.796875,22.9570312 L76.0605469,22.9570312 L76.0605469,25.2597656 L81.3164062,25.2597656 L81.3164062,12.7792969 C81.3164062,7.92773438 77.7304688,6.20507812 73.2832031,6.20507812 C67.5175781,6.20507812 65.5136719,9.140625 65.3730469,12.1640625 L70.6289062,12.1640625 C70.7695312,11.0917969 71.5957031,10.3007812 73.1953125,10.3007812 C74.7773438,10.3007812 75.796875,11.0742188 75.796875,12.6035156 L75.796875,14.1679688 L71.4199219,14.1679688 C67.0605469,14.1679688 64.6875,16.4003906 64.6875,19.8105469 C64.6875,23.3964844 67.21875,25.5410156 70.8925781,25.5410156 Z M72.8261719,21.6210938 C71.4726562,21.6210938 70.2070312,20.8652344 70.2070312,19.3886719 C70.2070312,18.1230469 71.1386719,17.2441406 72.8964844,17.2441406 L75.796875,17.2441406 L75.796875,19.0722656 C75.796875,20.5664062 74.4082031,21.6210938 72.8261719,21.6210938 Z" id="Shape"></path>
                    <polygon id="Path" points="86.3261719 25.2597656 91.9335938 25.2597656 91.9335938 0 86.3261719 0"></polygon>
                </g>
                <g id="Fe" transform="translate(85.048004, 82.296875)">
                    <polygon id="Path" points="36.5869446 151.962891 36.5869446 94.6184692 95.3473206 94.6184692 95.3473206 66.1010742 36.5869446 66.1010742 36.5869446 29.3854065 101.207703 29.3854065 101.207703 0 0 0 0 151.962891"></polygon>
                    <path d="M165.68443,154.144226 C174.474713,154.144226 182.068799,152.954117 188.466687,150.573898 C194.864575,148.19368 200.161069,145.031265 204.356168,141.086655 C208.551266,137.142044 211.759488,132.809525 213.980832,128.089096 C216.202176,123.368668 217.544781,118.668823 218.008649,113.989563 L185.761761,113.989563 C185.294415,116.928162 184.137646,119.450439 182.291455,121.556396 C180.445264,123.662354 178.109113,125.270233 175.283002,126.380035 C172.456891,127.489838 169.273602,128.044739 165.733136,128.044739 C159.625165,128.044739 154.476529,125.885727 150.287228,121.567703 C146.097928,117.24968 144.003278,111.305511 144.003278,103.735199 L144.003278,99.7447815 L218.80882,99.7447815 L218.80882,87.7874451 C218.80882,76.0875549 216.567471,65.9874268 212.084775,57.4870605 C207.602078,48.9866943 201.286237,42.4302216 193.13725,37.8176422 C184.988263,33.2050629 175.384473,30.8987732 164.325879,30.8987732 C153.890027,30.8987732 144.531796,33.0363312 136.251187,37.3114471 C127.970578,41.5865631 121.426572,47.905304 116.619168,56.2676697 C111.811765,64.6300354 109.408063,74.9678955 109.408063,87.28125 L109.408063,96.7719727 C109.408063,109.370605 111.771756,119.927353 116.499142,128.442215 C121.226529,136.957077 127.82359,143.369461 136.290326,147.679367 C144.757062,151.989273 154.555096,154.144226 165.68443,154.144226 Z M144.003278,79.2882385 C144.003278,79.2615662 144.003278,79.2418518 144.003278,79.2290955 C144.003278,79.2163391 144.003278,79.1972046 144.003278,79.1716919 C144.003278,74.7661133 144.866071,70.8339691 146.591656,67.3752594 C148.317242,63.9165497 150.725583,61.1898804 153.816678,59.1952515 C156.907773,57.2006226 160.507092,56.2033081 164.614636,56.2033081 C168.696667,56.2033081 172.247281,57.2006226 175.266476,59.1952515 C178.285672,61.1898804 180.628201,63.9165497 182.294064,67.3752594 C183.959927,70.8339691 184.792859,74.7661133 184.792859,79.1716919 C184.792859,79.1972046 184.792859,79.2163391 184.792859,79.2290955 C184.792859,79.2418518 184.792859,79.2615662 184.792859,79.2882385 L144.003278,79.2882385 Z" id="Shape"></path>
                </g>
                <g id="26" transform="translate(0.310547, 289.843750)">
                    <path d="M5.43164062,7.91015625 C5.43164062,7.82226562 5.43164062,7.6640625 5.43164062,7.54101562 C5.43164062,5.94140625 6.57421875,4.5 8.5078125,4.5 C10.265625,4.5 11.5839844,5.765625 11.5839844,7.3828125 C11.5839844,9.2109375 10.1953125,10.6699219 8.94726562,11.953125 L0.333984375,20.8652344 L0.333984375,24.4160156 L17.6308594,24.4160156 L17.6308594,19.8457031 L8.13867188,19.8457031 L8.13867188,19.5820312 L12.9726562,14.4316406 C14.9414062,12.3574219 17.2617188,10.3007812 17.2617188,6.80273437 C17.2617188,2.93554688 13.8691406,0 8.61328125,0 C2.65429688,0 0,3.91992188 0,7.59375 L0,7.91015625 L5.43164062,7.91015625 Z" id="Path"></path>
                    <path d="M40.0078125,6.38085937 C39.8496094,3.48046875 37.125,0.017578125 31.5,0.017578125 C25.2949219,0.017578125 21.4804688,4.30664062 21.4804688,12.8320312 C21.4804688,16.2773438 22.1660156,18.8613281 23.3085938,20.7421875 C25.0839844,23.6601562 28.0019531,24.8554688 31.2890625,24.8554688 C36.5976562,24.8554688 40.5,21.7265625 40.5,16.3476562 C40.5,11.25 36.7910156,8.66601562 32.9414062,8.66601562 C29.8652344,8.66601562 28.1074219,10.2128906 27.3515625,11.8300781 L27,11.8300781 C26.8417969,7.98046875 28.4238281,4.44726562 31.4648438,4.44726562 C33.1699219,4.44726562 34.2421875,5.36132812 34.6113281,6.38085937 L40.0078125,6.38085937 Z M27.6152344,16.5761719 C27.6152344,14.3613281 29.0917969,12.796875 31.3066406,12.796875 C33.3457031,12.796875 34.9628906,14.1679688 34.9628906,16.5761719 C34.9628906,19.0722656 33.4335938,20.4433594 31.2890625,20.4433594 C29.1796875,20.4433594 27.6152344,18.9492188 27.6152344,16.5761719 Z" id="Shape"></path>
                </g>
                <g id="55.8457" transform="translate(0.000000, 328.935547)">
                    <path d="M0,12.5976562 C0.15234375,14.9414062 2.26171875,16.6523438 5.21484375,16.6523438 C8.58984375,16.6523438 10.8867188,14.4023438 10.8867188,11.0976562 C10.8867188,7.86328125 8.56640625,5.94140625 5.77734375,5.94140625 C4.0078125,5.94140625 2.89453125,6.796875 2.56640625,7.3125 L2.44921875,7.3125 L2.8828125,2.19140625 L10.0898438,2.19140625 L10.0898438,0.328125 L1.0546875,0.328125 L0.33984375,9.515625 L2.16796875,9.515625 C2.6015625,8.73046875 3.65625,7.7578125 5.30859375,7.7578125 C7.11328125,7.7578125 8.71875,9.046875 8.71875,11.15625 C8.71875,13.546875 6.984375,14.8242188 5.34375,14.8242188 C3.87890625,14.8242188 2.37890625,14.1914062 2.0625,12.5976562 L0,12.5976562 Z" id="Path"></path>
                    <path d="M14.0390625,12.5976562 C14.1914062,14.9414062 16.3007812,16.6523438 19.2539062,16.6523438 C22.6289062,16.6523438 24.9257812,14.4023438 24.9257812,11.0976562 C24.9257812,7.86328125 22.6054688,5.94140625 19.8164062,5.94140625 C18.046875,5.94140625 16.9335938,6.796875 16.6054688,7.3125 L16.4882812,7.3125 L16.921875,2.19140625 L24.1289062,2.19140625 L24.1289062,0.328125 L15.09375,0.328125 L14.3789062,9.515625 L16.2070312,9.515625 C16.640625,8.73046875 17.6953125,7.7578125 19.3476562,7.7578125 C21.1523438,7.7578125 22.7578125,9.046875 22.7578125,11.15625 C22.7578125,13.546875 21.0234375,14.8242188 19.3828125,14.8242188 C17.9179688,14.8242188 16.4179688,14.1914062 16.1015625,12.5976562 L14.0390625,12.5976562 Z" id="Path"></path>
                    <path d="M27.7851562,14.8828125 C27.7851562,15.8320312 28.5351562,16.5351562 29.4609375,16.5351562 C30.4335938,16.5351562 31.171875,15.8320312 31.171875,14.8828125 C31.171875,13.8867188 30.4335938,13.1835938 29.4609375,13.1835938 C28.5351562,13.1835938 27.7851562,13.8867188 27.7851562,14.8828125 Z" id="Path"></path>
                    <path d="M40.1835938,16.6523438 C43.5234375,16.6523438 45.9257812,14.7304688 45.9257812,11.9414062 C45.9257812,9.45703125 44.0507812,8.26171875 42.6914062,7.93359375 L42.6914062,7.828125 C43.7695312,7.4765625 45.3164062,6.3984375 45.3164062,4.265625 C45.3164062,1.79296875 43.1835938,0 40.2421875,0 C37.3007812,0 35.1679688,1.79296875 35.1679688,4.265625 C35.1679688,6.36328125 36.6445312,7.453125 37.7695312,7.828125 L37.7695312,7.93359375 C36.4335938,8.26171875 34.5351562,9.4453125 34.5351562,11.9648438 C34.5351562,14.7539062 36.8671875,16.6523438 40.1835938,16.6523438 Z M40.2421875,7.11328125 C38.5195312,7.11328125 37.2421875,6.01171875 37.2421875,4.4296875 C37.2421875,2.84765625 38.5195312,1.79296875 40.2421875,1.79296875 C41.9765625,1.79296875 43.21875,2.84765625 43.21875,4.4296875 C43.21875,6.01171875 41.9765625,7.11328125 40.2421875,7.11328125 Z M40.2421875,14.8828125 C38.203125,14.8828125 36.6445312,13.6640625 36.6445312,11.8710938 C36.6445312,10.078125 38.203125,8.8359375 40.2421875,8.8359375 C42.28125,8.8359375 43.8164062,10.078125 43.8164062,11.8710938 C43.8164062,13.6640625 42.28125,14.8828125 40.2421875,14.8828125 Z" id="Shape"></path>
                    <path d="M55.1601562,0.328125 C52.8867188,3.9375 50.5078125,7.546875 48.515625,11.15625 L48.515625,13.0429688 L56.2851562,13.0429688 L56.2851562,16.3242188 L58.3476562,16.3242188 L58.3476562,13.0429688 L60.421875,13.0429688 L60.421875,11.1679688 L58.3476562,11.1679688 L58.3476562,0.328125 L55.1601562,0.328125 Z M50.6484375,11.1679688 L50.6484375,11.0625 C52.3242188,8.12109375 54.3046875,4.96875 56.1679688,2.1796875 L56.2851562,2.1796875 L56.2851562,11.1679688 L50.6484375,11.1679688 Z" id="Shape"></path>
                    <path d="M63.1992188,12.5976562 C63.3515625,14.9414062 65.4609375,16.6523438 68.4140625,16.6523438 C71.7890625,16.6523438 74.0859375,14.4023438 74.0859375,11.0976562 C74.0859375,7.86328125 71.765625,5.94140625 68.9765625,5.94140625 C67.2070312,5.94140625 66.09375,6.796875 65.765625,7.3125 L65.6484375,7.3125 L66.0820312,2.19140625 L73.2890625,2.19140625 L73.2890625,0.328125 L64.2539062,0.328125 L63.5390625,9.515625 L65.3671875,9.515625 C65.8007812,8.73046875 66.8554688,7.7578125 68.5078125,7.7578125 C70.3125,7.7578125 71.9179688,9.046875 71.9179688,11.15625 C71.9179688,13.546875 70.1835938,14.8242188 68.5429688,14.8242188 C67.078125,14.8242188 65.578125,14.1914062 65.2617188,12.5976562 L63.1992188,12.5976562 Z" id="Path"></path>
                    <polygon id="Path" points="76.59375 0.328125 76.59375 2.203125 84.6445312 2.203125 84.6445312 2.33203125 78.0234375 16.3242188 80.2851562 16.3242188 86.8359375 2.2734375 86.8359375 0.328125"></polygon>
                </g>
            </g>
        </g>
    </g>
</svg>
