<?xml version="1.0" encoding="UTF-8" standalone="no"?>
<svg
   xmlns:dc="http://purl.org/dc/elements/1.1/"
   xmlns:cc="http://creativecommons.org/ns#"
   xmlns:rdf="http://www.w3.org/1999/02/22-rdf-syntax-ns#"
   xmlns:svg="http://www.w3.org/2000/svg"
   xmlns="http://www.w3.org/2000/svg"
   xmlns:sodipodi="http://sodipodi.sourceforge.net/DTD/sodipodi-0.dtd"
   xmlns:inkscape="http://www.inkscape.org/namespaces/inkscape"
   id="Layer_1"
   data-name="Layer 1"
   viewBox="-10 10 204 200"
   version="1.1"
   sodipodi:docname="openstack.svg"
   width="204"
   height="200"
   inkscape:version="0.92.2 5c3e80d, 2017-08-06">
  <metadata
     id="metadata4168">
    <rdf:RDF>
      <cc:Work
         rdf:about="">
        <dc:format>image/svg+xml</dc:format>
        <dc:type
           rdf:resource="http://purl.org/dc/dcmitype/StillImage" />
        <dc:title>OpenStack_Logo_Mark</dc:title>
      </cc:Work>
    </rdf:RDF>
  </metadata>
  <sodipodi:namedview
     pagecolor="#ffffff"
     bordercolor="#666666"
     borderopacity="1"
     objecttolerance="10"
     gridtolerance="10"
     guidetolerance="10"
     inkscape:pageopacity="0"
     inkscape:pageshadow="2"
     inkscape:window-width="917"
     inkscape:window-height="790"
     id="namedview4166"
     showgrid="false"
     viewbox-width="180.35"
     units="px"
     inkscape:zoom="1.8505927"
     inkscape:cx="157.84103"
     inkscape:cy="77.193007"
     inkscape:window-x="487"
     inkscape:window-y="218"
     inkscape:window-maximized="0"
     inkscape:current-layer="Layer_1"
     viewbox-x="-10"
     viewbox-y="10" />
  <defs
     id="defs4149">
    <style
       id="style4147">.cls-1{opacity:0.98;}.cls-2{fill:#ed1944;}</style>
  </defs>
  <title
     id="title4151">OpenStack_Logo_Mark</title>
  <g
     class="cls-1"
     id="g4161"
     style="opacity:0.98000004"
     transform="translate(0,19.649994)">
    <path
       class="cls-2"
       d="m 461.82,215.24 h -150 a 17.17,17.17 0 0 0 -17.12,17.12 v 40.35 h 41.61 v -6.59 a 9.26,9.26 0 0 1 9.26,-9.26 h 82.53 a 9.26,9.26 0 0 1 9.26,9.26 v 6.59 H 479 v -40.35 a 17.18,17.18 0 0 0 -17.18,-17.12 z"
       transform="translate(-294.67,-215.24)"
       id="path4153"
       inkscape:connector-curvature="0"
       style="fill:#ed1944" />
    <path
       class="cls-2"
       d="m 437.33,344.72 a 9.27,9.27 0 0 1 -9.26,9.26 h -82.53 a 9.27,9.27 0 0 1 -9.26,-9.26 v -6.59 h -41.61 v 40.34 a 17.17,17.17 0 0 0 17.12,17.13 h 150 A 17.18,17.18 0 0 0 479,378.47 v -40.34 h -41.67 z"
       transform="translate(-294.67,-215.24)"
       id="path4155"
       inkscape:connector-curvature="0"
       style="fill:#ed1944" />
    <rect
       class="cls-2"
       y="69.370003"
       width="41.619999"
       height="41.619999"
       id="rect4157"
       x="0"
       style="fill:#ed1944" />
    <rect
       class="cls-2"
       x="142.66"
       y="69.370003"
       width="41.619999"
       height="41.619999"
       id="rect4159"
       style="fill:#ed1944" />
  </g>
</svg>
