<?xml version="1.0" encoding="utf-8"?>
<svg id="master-artboard" viewBox="0 0 340 340" version="1.1" xmlns="http://www.w3.org/2000/svg" x="0px" y="0px" style="enable-background:new 0 0 1400 980;" width="340px" height="340px" xmlns:xlink="http://www.w3.org/1999/xlink"><defs><linearGradient id="linearGradient3434">
      <stop id="stop3436" style="stop-color:#000000;stop-opacity:1" offset="0"/>
      <stop id="stop3438" style="stop-color:#ffffff;stop-opacity:1" offset="1"/>
    </linearGradient><linearGradient id="linearGradient3196">
      <stop id="stop3198" style="stop-color:#e1ffb9;stop-opacity:0.1254902" offset="0"/>
      <stop id="stop3200" style="stop-color:#ffffff;stop-opacity:0.87450981" offset="1"/>
    </linearGradient><linearGradient id="linearGradient2398">
      <stop id="stop2400" style="stop-color:#74b61e;stop-opacity:1" offset="0"/>
      <stop id="stop3446" style="stop-color:#73b51d;stop-opacity:1" offset="0.5"/>
      <stop id="stop2402" style="stop-color:#507f13;stop-opacity:1" offset="1"/>
    </linearGradient><filter id="filter3314">
      <feGaussianBlur stdDeviation="0.30809652" id="feGaussianBlur3316"/>
    </filter><filter id="filter3442">
      <feGaussianBlur stdDeviation="0.62285713" id="feGaussianBlur3444"/>
    </filter><linearGradient x1="346.91006" y1="637.86218" x2="346.91006" y2="513.23267" id="linearGradient3554" gradientUnits="userSpaceOnUse" xlink:href="#linearGradient3434"/><linearGradient x1="62.881996" y1="48.761169" x2="62.881996" y2="3.6720147" id="linearGradient3561" gradientUnits="userSpaceOnUse" gradientTransform="translate(0.7576085,-1.2626951)" xlink:href="#linearGradient3196"/><radialGradient cx="319.82144" cy="641.1474" r="61.785713" fx="319.82144" fy="641.1474" id="radialGradient3565" gradientUnits="userSpaceOnUse" gradientTransform="matrix(1.5904288,0,0,1.949057,-444.65323,-1121.6328)" xlink:href="#linearGradient2398"/></defs><rect id="ee-background" x="0" y="0" width="340" height="340" style="fill: white; fill-opacity: 0; pointer-events: none;"/><g transform="matrix(2.5440073013305664, 0, 0, 2.5440073013305664, 6.986279010772705, 6.78904151916504)"><path d="M 128,63.999998 C 128,99.346226 99.346215,128 63.999987,128 C 28.653769,128 -1.1231e-05,99.346226 -1.1231e-05,63.999998 C -1.1231e-05,28.65377 28.653769,-6.85e-07 63.999987,-6.85e-07 C 99.346215,-6.85e-07 128,28.65377 128,63.999998 z" id="bg" style="fill:url(#radialGradient3565)"/><path d="M 412.50001,575.57648 C 412.50001,609.69979 384.8376,637.3622 350.71429,637.3622 C 316.59099,637.3622 288.92858,609.69979 288.92858,575.57648 C 288.92858,541.45317 316.59099,513.79077 350.71429,513.79077 C 384.8376,513.79077 412.50001,541.45317 412.50001,575.57648 z" transform="matrix(1.0277457,0,0,1.0277457,-296.44511,-527.54626)" id="shaglow" style="fill:none;stroke:url(#linearGradient3554);filter:url(#filter3442)"/><path d="M 73.606738,33.255215 C 71.435718,33.256535 69.423798,33.306435 68.476338,33.411285 C 62.732048,34.047045 57.688608,35.575645 52.077898,38.376795 C 43.034918,42.891515 37.356978,48.001415 34.150478,54.514685 C 32.714738,57.431015 32.217938,59.474345 32.201208,62.529195 C 32.190618,64.461995 32.332468,65.487025 32.831628,67.059115 C 34.629668,72.721925 39.755438,76.762825 45.693868,77.204295 C 51.440278,77.631455 55.710318,75.357155 57.617698,70.855835 C 58.309218,69.223935 58.516968,67.806825 58.324218,66.021015 C 57.852908,61.653995 55.027568,58.332415 50.853268,57.233385 C 49.575068,56.896845 47.607828,56.886295 46.353288,57.229745 C 42.913608,58.171425 40.411438,61.272145 41.331578,65.099045 C 42.112238,68.345885 45.905998,70.380605 49.114148,69.091775 C 50.395238,68.577125 51.141018,67.954355 50.769938,66.587255 C 50.391718,65.194005 49.456558,64.865375 47.664868,65.367655 C 46.959618,65.565375 46.460688,65.438725 45.933008,64.961125 C 45.047728,64.159865 45.061918,62.935175 45.969238,62.060945 C 47.073688,60.996795 49.092848,60.907175 50.936588,61.843155 C 52.761278,62.769485 54.094218,65.391295 53.806148,67.487435 C 53.496898,69.737575 52.205908,71.290605 50.041678,72.013735 C 49.319128,72.255145 49.020158,72.282965 47.317038,72.278715 C 45.490208,72.274135 45.355408,72.257365 44.327928,71.912105 C 40.473558,70.616935 37.927658,67.106405 37.904058,63.051875 C 37.889158,60.491415 38.798188,58.424315 40.817108,56.431195 C 42.714928,54.557625 45.166418,53.642425 48.288048,53.643565 C 52.168558,53.644965 55.390568,55.001475 58.211908,57.825025 C 60.335158,59.949965 61.938258,62.830025 62.556088,65.621735 L 62.751738,66.507395 L 68.324168,69.240605 C 68.368858,69.199725 68.355608,68.824575 68.295178,68.569085 C 68.066818,67.603595 68.031058,64.914995 68.229958,63.777835 C 68.519228,62.124085 68.910258,61.263385 69.744438,60.438445 C 71.030548,59.166605 72.618068,58.618515 75.027008,58.616305 C 78.231228,58.613385 80.950458,59.787415 83.382028,62.227915 C 83.927648,62.775535 85.116908,64.072635 86.026948,65.109945 C 86.936998,66.147235 87.820288,67.095225 87.990698,67.215205 C 88.468818,67.551805 94.964408,70.526425 95.045008,70.445685 C 95.084198,70.406435 94.853908,69.992375 94.530498,69.523735 C 93.264708,67.689365 92.191458,65.326575 91.780528,63.472925 C 91.499408,62.204785 91.576498,60.333135 91.947198,59.480205 C 92.294258,58.681635 93.034208,58.007005 93.816748,57.774215 C 94.654968,57.524835 96.484608,57.539895 98.939918,57.817775 C 101.88469,58.151035 103.51261,58.215005 105.45437,58.068205 C 109.87645,57.733905 112.77128,57.006655 116.01227,55.422145 C 117.70607,54.594025 118.06618,54.274375 118.43254,53.284205 C 118.78186,52.340125 118.94758,51.436655 118.76949,51.436655 C 118.70646,51.436655 118.11169,51.692455 117.44704,52.006535 C 114.95306,53.185075 112.81188,53.708805 110.91085,53.607255 C 108.93462,53.501685 105.69779,52.416235 101.85656,50.569145 L 100.10656,49.727035 L 98.679048,46.307835 L 100.01236,47.139015 C 102.20567,48.595445 105.75266,50.339175 107.91449,51.022865 C 111.21715,52.067335 113.84557,51.931105 116.505,50.576405 C 117.44236,50.098925 119.20067,48.892075 119.20067,48.725225 C 119.20067,48.410725 118.26036,45.353985 117.73689,43.966625 C 116.42785,40.497205 115.53553,39.340545 113.37823,38.311465 C 110.98317,37.168965 108.34368,36.350435 103.49061,35.244315 C 101.17035,34.751655 98.838228,34.274795 96.483398,33.981165 L 96.425438,36.855935 C 90.939128,35.149765 86.138898,34.021885 80.824078,33.473005 C 79.450678,33.331155 76.398068,33.253515 73.606738,33.255215 z M 109.95797,39.142675 C 111.73032,39.138145 113.42157,40.049425 114.41083,41.698025 C 116.09765,44.509155 114.71489,48.161195 111.5594,49.226135 C 109.47695,49.928945 106.99701,49.089035 105.73697,47.255175 C 104.70278,45.750035 104.52938,43.806825 105.28045,42.177155 C 105.70722,41.251145 106.72293,40.155655 107.54856,39.734335 C 108.32758,39.336755 109.15234,39.144725 109.95797,39.142675 z M 109.89998,40.645405 C 109.06942,40.662975 108.22313,40.971545 107.50871,41.618175 C 106.41792,42.605395 106.06762,44.390715 106.69711,45.752465 C 107.21392,46.870505 108.19276,47.641995 109.33479,47.828675 C 110.95426,48.093425 112.48841,47.337965 113.16084,45.941215 C 113.62081,44.985725 113.70274,44.330035 113.47243,43.429425 C 113.01528,41.641735 111.48558,40.611805 109.89998,40.645405 z M 110.7478,42.492945 C 111.3635,42.492945 112.10434,42.877825 112.19708,43.247925 C 112.32307,43.750865 112.15258,44.098275 111.66447,44.347745 C 110.91076,44.732975 109.94196,44.623975 109.37462,44.090045 C 108.67519,43.431755 109.4825,42.492945 110.7478,42.492945 z" id="Geeko" style="fill:#d3e5bb"/><path d="M 22.062573,74.472981 C 18.737075,74.472981 16.039943,77.046698 16.039943,80.216142 L 16.039943,81.906957 C 16.039943,84.948952 18.300987,87.077197 21.545549,87.077197 L 27.596127,87.077197 C 28.415317,87.077197 29.245014,87.563028 29.245014,88.502501 L 29.245014,90.067545 C 29.245015,90.947985 28.388488,91.492855 27.596127,91.492855 L 16.319415,91.492855 L 16.319415,94.161815 C 16.319415,95.195195 17.189469,95.950435 18.373537,95.950435 L 28.37865,95.950435 C 31.731424,95.950435 34.457175,93.375825 34.457175,90.207285 L 34.457175,87.92958 C 34.457175,84.842421 32.466548,83.066769 28.993489,83.066769 L 22.998806,83.066769 C 21.956933,83.066769 21.252104,82.529728 21.252104,81.72529 L 21.252104,80.397799 C 21.252104,79.626452 22.153458,78.930579 23.138542,78.930579 L 32.808288,78.930579 L 32.808288,76.24763 C 32.808287,75.132874 32.14359,74.472981 31.047612,74.472981 L 22.062573,74.472981 z M 66.820079,74.472981 C 63.500842,74.472981 60.797449,77.046698 60.797449,80.216142 L 60.797449,81.906957 C 60.797449,84.948952 63.069336,87.077197 66.317029,87.077197 L 72.353633,87.077197 C 73.172376,87.077197 74.002521,87.563028 74.002521,88.502501 L 74.002521,90.067545 C 74.002521,90.947985 73.142416,91.492855 72.353633,91.492855 L 61.076922,91.492855 L 61.076922,94.161815 C 61.076922,95.195195 61.944293,95.950435 63.131045,95.950435 L 73.150129,95.950435 C 76.499769,95.950435 79.214681,93.375825 79.214681,90.207285 L 79.214681,87.92958 C 79.214686,84.842421 77.224055,83.066769 73.750995,83.066769 L 67.770287,83.066769 C 66.727519,83.066769 66.023584,82.529728 66.023584,81.72529 L 66.023584,80.397799 C 66.023584,79.626452 66.910517,78.930579 67.896048,78.930579 L 77.817319,78.930579 L 77.817319,76.24763 C 77.817323,75.199055 76.997347,74.472981 75.819092,74.472981 L 66.820079,74.472981 z M 88.674819,74.472981 C 85.356029,74.472981 82.652189,77.046698 82.652189,80.216142 L 82.652189,90.207285 C 82.652189,93.375825 85.356029,95.950435 88.674819,95.950435 L 97.10091,95.950435 C 98.287219,95.950445 99.141063,95.194755 99.141063,94.161815 L 99.141063,91.492855 L 89.569132,91.492855 C 88.54425,91.492855 87.822429,90.819655 87.822429,89.843965 C 87.822433,89.843965 87.822429,87.428549 87.822429,87.119114 C 88.163166,87.119114 99.294772,87.119114 99.294772,87.119114 C 100.99129,87.119114 102.38294,85.808274 102.38294,84.184653 L 102.38294,80.216142 C 102.38294,77.046698 99.669149,74.472981 96.346336,74.472981 L 88.674819,74.472981 z M 89.513237,78.9166 L 95.507919,78.9166 C 96.445604,78.9166 97.198731,79.635516 97.198731,80.523561 C 97.198722,80.523561 97.198731,82.760015 97.198731,83.066769 C 96.867831,83.066769 88.153771,83.066769 87.822429,83.066769 C 87.821986,82.760015 87.822429,80.523561 87.822429,80.523561 C 87.822429,79.635963 88.580023,78.9166 89.513237,78.9166 z M 39.57152,79.838857 C 38.511314,79.838857 37.782897,80.641499 37.782897,81.795165 L 37.782897,89.983695 C 37.782897,93.856965 40.282385,96.090175 44.643944,96.090175 L 45.356599,96.090175 C 47.392946,96.090175 49.074476,95.240915 50.30326,94.622945 C 51.014238,94.270135 51.575642,93.980155 51.952148,93.980155 C 52.090766,93.980155 52.417413,94.017375 52.594934,94.273605 L 53.824613,95.950435 L 55.501447,95.950435 C 56.866167,95.950445 57.359939,94.854575 57.359939,94.119895 L 57.359939,81.795165 C 57.359939,80.677717 56.149488,79.838857 55.068266,79.838857 L 53.992296,79.838857 C 52.93209,79.838857 52.189699,80.641499 52.189699,81.795165 L 52.189699,89.662315 C 52.189699,90.673775 51.325123,91.492855 50.26134,91.492855 L 44.881495,91.492855 C 43.818606,91.492855 42.953136,90.673785 42.953136,89.662315 L 42.953136,81.795165 C 42.953135,80.677717 41.742685,79.838857 40.661462,79.838857 L 39.57152,79.838857 z" id="SuSE" style="fill:#d3e5bb"/><path d="M 102.53048,27.994894 C 102.53048,40.547461 85.118441,50.723326 63.639604,50.723326 C 42.160768,50.723326 24.748731,40.547461 24.748731,27.994894 C 24.748731,15.442327 42.160768,5.2664616 63.639604,5.2664616 C 85.118441,5.2664616 102.53048,15.442327 102.53048,27.994894 L 102.53048,27.994894 z" id="glow" style="fill:url(#linearGradient3561);filter:url(#filter3314)"/></g></svg>