<svg xmlns="http://www.w3.org/2000/svg" viewBox="0 -50 265 265">
  <defs>
    <style>
      .cls-1 {fill: #fe6900}
    </style>
  </defs>
  <title>Alibaba_Cloud_logo_fullcolor</title>
  <g id="Layer_2" data-name="Layer 2">
    <g id="Layer_1-2" data-name="Layer 1">
      <path class="cls-1" d="M36.1 1C24 3.45 11 13.15 5.6 23.75S0 36.95 0 81.55c0 23.8.4 43.4 1 46.5a45.48 45.48 0 0 0 35.9 35.9c5.5 1 77.1 1.5 77.1.4 0-.8-6.1-24.8-6.4-25.1-.1-.2-12.8-3-28.2-6.3-35.9-7.8-34.8-7.5-37.8-11.1l-2.6-3.1v-72.6L41.6 43c3-3.6 1.9-3.3 37.8-11.1 15.4-3.3 28.1-6.1 28.2-6.3.3-.3 6.4-24.3 6.4-25.1 0-.95-73.1-.5-77.9.5zM152 1.15c.1 1.8 5.7 23.8 6.3 24.4.2.3 13.9 3.4 30.3 6.9s31 7.1 32.3 7.8a12.22 12.22 0 0 1 4.3 4.2c1.6 2.8 1.8 5.8 1.8 38s-.2 35.2-1.8 38a13.15 13.15 0 0 1-4.3 4.2c-1.3.7-15.8 4.2-32.3 7.8s-30.1 6.6-30.3 6.9c-.6.6-6.2 22.6-6.3 24.4 0 1.1 7.2 1.3 38.8 1 43.6-.4 44.1-.5 55.2-8a45.65 45.65 0 0 0 17.2-22.5c2.3-6.7 2.3-7.3 2.3-51.8s0-45.1-2.3-51.8A45.65 45.65 0 0 0 246 8.15c-11.1-7.5-11.6-7.6-55.2-8-31.6-.3-38.8-.15-38.8 1zM338.1"/>
      <path class="cls-1" d="M107.4 80.35a7.21 7.21 0 0 0-.2 3.3c.3 1.7 2.1 1.8 25.6 2.1l25.2.2v-7h-25c-20.9 0-25.2.2-25.6 1.4z"/>
    </g>
  </g>
</svg>