<svg xmlns="http://www.w3.org/2000/svg" xmlns:xlink="http://www.w3.org/1999/xlink" viewBox="0 0 81 81" fill="#fff" fill-rule="evenodd" stroke="#000" stroke-linecap="round" stroke-linejoin="round"><use xlink:href="#A" x=".5" y=".5"/><symbol id="A" overflow="visible"><g fill="#0078d7" stroke="none"><path d="M80 40.08c0-8.978-3.04-17.635-8.64-24.689h0l-.32-.321c-.16-.16-.16-.321-.32-.481l-2.56-2.726C60.64 4.168 50.72 0 40 0h-.32C29.12.16 19.36 4.168 11.84 11.703h0l-2.72 2.886c-.16.16-.16.321-.32.481l-.32.16C3.04 22.285 0 31.102 0 40.08s3.04 17.635 8.64 24.689h0l.32.321c.16.16.16.321.32.481l2.56 2.725C19.36 75.832 29.12 80 39.68 80H40c10.56 0 20.64-4.168 28.16-11.703h0l2.56-2.886c.16-.16.16-.321.32-.481l.32-.321C76.96 57.876 80 49.058 80 40.08zM63.84 13.948c-.16 0-.32.16-.48.16-.32.16-.64.321-.8.321-.64.321-1.44.481-2.24.802-.16 0-.32.16-.48.16-.96.321-1.76.481-2.72.802h0c-.16 0-.48.16-.64.16-1.44-3.848-3.2-7.214-5.28-9.78 4.64 1.443 8.96 4.008 12.64 7.375zM39.68 4.649h0c4.48 0 8.96 4.649 12.16 12.665-3.68.641-7.68.962-11.84.962s-8.32-.32-12.16-.962C30.88 9.459 35.36 4.81 39.68 4.649zM28.32 6.734c-1.92 2.565-3.68 5.772-5.12 9.619h-.32c-.96-.321-1.92-.481-2.72-.802-.16 0-.32-.16-.48-.16-.64-.321-1.44-.641-2.08-.962-.32-.16-.48-.16-.8-.321-.16-.16-.32-.16-.64-.321 3.68-3.046 7.68-5.611 12.16-7.054zM16.16 66.212c.16 0 .32-.16.48-.16.32-.16.48-.16.8-.321.64-.321 1.44-.481 2.24-.802.16 0 .32-.16.48-.16.96-.32 1.76-.481 2.72-.802h.32c1.44 3.688 3.2 7.054 5.12 9.619-4.48-1.603-8.64-4.168-12.16-7.375zm23.68 9.299h0c-4.48-.16-8.96-4.649-12-12.505 3.84-.641 8-.962 12.16-.962s8 .321 11.84.962c-3.04 7.856-7.68 12.505-12 12.505zm11.36-1.924c2.08-2.565 3.84-5.932 5.28-9.78.16 0 .48.16.64.16h0c.96.321 1.92.481 2.72.802.16 0 .32.16.48.16.8.321 1.44.481 2.24.802.32.16.48.16.8.321.16 0 .32.16.64.32-3.84 3.207-8.16 5.772-12.8 7.215zm16.16-11.062h0c-.48 0-.8-.16-1.28-.321s-1.12-.481-1.6-.641c-.16 0-.32-.16-.48-.16-1.92-.802-4-1.282-6.08-1.924.48-1.924.96-3.848 1.28-5.772h-4.8c-.32 1.764-.64 3.367-1.12 4.81-4.16-.802-8.64-1.122-13.28-1.122-4.8 0-9.28.481-13.6 1.283-.48-1.603-.8-3.206-1.12-4.97h-4.8c.32 2.084.8 4.008 1.28 5.932-1.92.481-3.84 1.122-5.6 1.763-.16.16-.48.16-.64.321-.48.16-1.12.481-1.6.641-.32 0-.8.16-1.12.321h0C8 56.914 5.28 49.7 4.8 42.325h4v-4.649h-4c.48-7.375 3.2-14.429 7.84-20.04l.16-.16c.32.16.8.321 1.12.481.64.32 1.12.481 1.76.802.16 0 .32.16.48.16 1.76.641 3.68 1.283 5.76 1.764-.48 1.764-.8 3.527-1.12 5.291h4.8l.96-4.329c4.32.802 8.96 1.282 13.6 1.282s9.12-.481 13.28-1.122c.32 1.283.64 2.725.96 4.329h4.8c-.32-1.763-.64-3.527-1.12-5.291 2.08-.481 4-1.122 5.92-1.924.16 0 .48-.16.64-.16.64-.16 1.12-.481 1.76-.641.32-.16.8-.321 1.12-.481h0c4.64 5.772 7.52 12.826 8 20.2h-4.8v4.649h4.8c-.8 7.214-3.52 14.429-8.16 20.04zM29.92 39.759c0 1.924-.32 3.527-.8 4.81s-1.28 2.405-2.08 3.367c-.96.802-2.08 1.443-3.36 1.924-1.28.321-2.88.641-4.8.641h-4.96c-.32 0-.64-.16-.96-.321s-.16-.641-.16-1.122V30.941c0-.481.16-.802.32-.962s.48-.321.96-.321h5.28c1.92 0 3.36.16 4.64.641s2.4 1.122 3.2 1.924 1.6 1.924 2.08 3.206c.32 1.282.64 2.725.64 4.329zm-4.32.16c0-.962-.16-1.924-.32-2.725s-.64-1.603-1.12-2.245-1.12-1.122-1.92-1.443-1.76-.481-3.2-.481h-2.08v14.108h2.24c1.12 0 2.08-.16 2.88-.481s1.44-.802 1.92-1.283c.48-.641.96-1.282 1.12-2.244.32-.962.48-2.084.48-3.206z"/><path d="M50.4 48.897c0 .321 0 .481-.16.641s-.16.321-.32.481-.32.16-.48.32c-.16 0-.32.16-.64.16h-1.76c-.32 0-.64 0-.96-.16-.32 0-.48-.16-.8-.481-.16-.16-.48-.481-.64-.802s-.48-.802-.64-1.283l-5.12-9.619c-.32-.641-.64-1.122-.96-1.924-.32-.641-.64-1.283-.8-1.924h0c0 .802 0 1.603.16 2.244v13.307c0 .16 0 .16-.16.321 0 .16-.16.16-.32.16s-.32.16-.64.16h-1.92c-.32 0-.48 0-.64-.16-.16 0-.16-.16-.32-.16V31.262c0-.481.16-.802.48-1.122s.64-.321 1.12-.321h2.24c.48 0 .8 0 .96.16.32 0 .48.16.8.321.16.16.48.321.64.641a9.18 9.18 0 0 0 .64 1.122l4 7.535c.16.481.48.962.64 1.282.16.481.48.962.64 1.283.16.481.48.802.64 1.283s.32.802.64 1.283h0V30.3c0-.16 0-.16.16-.321 0-.16.16-.16.32-.16s.32-.16.64-.16h1.92c.32 0 .48 0 .64.16.16 0 .16.16.32.16v18.918h-.32zm16.8-4.649c0 1.122-.16 2.084-.64 2.886a10.27 10.27 0 0 1-1.6 2.084c-.64.481-1.44.962-2.4 1.282s-1.92.481-3.04.481c-.64 0-1.44 0-1.92-.16L56 50.34a7.68 7.68 0 0 1-1.12-.481c-.32-.161-.48-.321-.64-.481s-.16-.321-.32-.641c0-.32-.16-.641-.16-1.122v-.802c0-.16 0-.481.16-.481 0-.16.16-.16.16-.321 0 0 .16-.16.32-.16s.32.16.64.321.64.321 1.12.641c.48.16.96.481 1.6.641s1.28.321 2.08.321c.48 0 .96 0 1.44-.16s.8-.321.96-.481c.32-.16.48-.481.64-.802s.16-.641.16-1.122-.16-.802-.32-1.283l-.96-.962c-.48-.321-.8-.481-1.44-.802a7.44 7.44 0 0 1-1.6-.802c-.48-.321-1.12-.481-1.6-.802s-.96-.641-1.44-1.122-.8-.962-.96-1.603c-.32-.641-.32-1.283-.32-2.245s.16-1.924.48-2.565c.32-.802.8-1.443 1.44-1.924s1.28-.802 2.24-1.122c.8-.321 1.76-.321 2.72-.321.48 0 .96 0 1.44.16.48 0 .96.16 1.44.321s.8.321 1.12.481.48.32.64.32c.16.16.16.16.16.321 0 0 0 .16.16.321v2.405c0 .16-.16.16-.16.321 0 0-.16.16-.32.16s-.32 0-.48-.16l-.96-.481c-.32-.16-.8-.321-1.28-.481s-.96-.16-1.6-.16c-.48 0-.8 0-1.12.16s-.64.321-.8.481-.32.481-.48.641c-.16.321-.16.641-.16.802 0 .481.16.802.32 1.122l.96.962c.48.321.96.481 1.44.802a7.44 7.44 0 0 1 1.6.802c.48.321 1.12.481 1.6.802s.96.641 1.44 1.122.8.962.96 1.603c-.16.16 0 .802 0 1.764z"/></g></symbol></svg>