<?xml version="1.0" encoding="utf-8"?>
<!-- Generator: Adobe Illustrator 19.0.0, SVG Export Plug-In . SVG Version: 6.00 Build 0)  -->
<svg version="1.1" id="Layer_1" xmlns="http://www.w3.org/2000/svg" xmlns:xlink="http://www.w3.org/1999/xlink" x="0px" y="0px"
	 viewBox="85 40 185 185" xml:space="preserve">
<style type="text/css">
	.st0{fill:#f9f9f9;}
	.st1{fill-rule:evenodd;clip-rule:evenodd;fill:#f9f9f9;}
</style>
<g id="XMLID_229_">
	<g id="XMLID_690_">
		<g id="XMLID_691_">
			<g>
				<g id="XMLID_44_">
					<g id="XMLID_48_">
						<path id="XMLID_49_" class="st0" d="M177,221.5l0-34.2c36.2,0,64.3-35.9,50.4-74C222.3,99.3,211,88,196.9,82.9
							c-38.1-13.8-74,14.2-74,50.4c0,0,0,0,0,0l-34.1,0c0-57.7,55.8-102.7,116.3-83.8c26.4,8.3,47.5,29.3,55.7,55.7
							C279.7,165.7,234.7,221.5,177,221.5z"/>
					</g>
					<polygon id="XMLID_47_" class="st1" points="177.1,187.5 143,187.5 143,153.4 143,153.4 177.1,153.4 177.1,153.4 					"/>
					<polygon id="XMLID_46_" class="st1" points="143,213.6 116.9,213.6 116.9,213.6 116.9,187.5 143,187.5 143,213.6 					"/>
					<path id="XMLID_45_" class="st1" d="M116.9,187.5H95c0,0,0,0,0,0v-21.9c0,0,0,0,0,0h21.9c0,0,0,0,0,0V187.5z"/>
				</g>
			</g>
		</g>
	</g>
</g>
</svg>
