<svg id="Ebene_1"
  xmlns="http://www.w3.org/2000/svg" viewBox="0 0 141.7 141.7">
  <style>.st2{fill:#fff}</style>
  <circle cx="70.9" cy="70.9" r="66.9" fill="#d50f2e"/>
  <path d="M70.8 141.7c-39 0-70.8-31.8-70.8-70.9S31.8 0 70.8 0s70.9 31.8 70.9 70.9-31.8 70.8-70.9 70.8zM70.8 8C36.2 8 8 36.2 8 70.8s28.2 62.8 62.8 62.8 62.8-28.2 62.8-62.8S105.5 8 70.8 8z" fill="#ededed"/>
  <path class="st2" d="M83.6 42.1l-2.4.5c-.5-.7-.9-1.5-1.5-2.2l1.4-2.1c.6-1 .4-2.2-.6-2.7L77 33.3c-1-.6-2.2-.4-2.7.6L72.8 36c-.8-.3-1.7-.4-2.6-.5l-.5-2.4c-.2-1.1-1.3-1.8-2.4-1.5l-4.1.9c-1.1.2-1.8 1.3-1.5 2.4l.5 2.4c-.7.5-1.5.9-2.2 1.5l-2-1.3c-1-.6-2.2-.4-2.7.6L53 41.5c-.6 1-.4 2.2.6 2.7l2.1 1.4c-.3.8-.4 1.7-.5 2.6l-2.4.5c-1.2.3-1.8 1.3-1.6 2.4l.9 4.1c.2 1.1 1.3 1.8 2.4 1.5l2.4-.5c.5.7.9 1.5 1.5 2.2L57 60.5c-.6 1-.4 2.2.6 2.7l3.5 2.3c1 .6 2.2.4 2.7-.6l1.4-2.1c.8.3 1.7.4 2.6.5l.5 2.4c.2 1.1 1.3 1.8 2.4 1.5l4.1-.9c1.1-.2 1.8-1.3 1.5-2.4l-.5-2.4c.7-.5 1.5-.9 2.2-1.5l2.1 1.4c1 .6 2.2.4 2.7-.6l2.3-3.5c.6-1 .4-2.2-.6-2.7l-2.1-1.4c.3-.8.4-1.7.5-2.6l2.4-.5c1.1-.2 1.8-1.3 1.5-2.4l-.9-4.1c-.2-1-1.2-1.8-2.3-1.5zM70.9 57.8c-4.6 1-9.2-1.9-10.2-6.5s1.9-9.2 6.5-10.2 9.2 1.9 10.2 6.5-1.9 9.2-6.5 10.2zM51.5 74.2l-.9-1.4c.3-.4.7-.9 1-1.4l1.6.4c.7.2 1.4-.3 1.5-1l.6-2.6c.2-.7-.3-1.4-1-1.5l-1.6-.4c0-.6-.1-1.1-.3-1.7l1.4-.9c.6-.4.8-1.2.4-1.8l-1.5-2.3c-.4-.6-1.2-.8-1.8-.4l-1.4.9c-.4-.3-.9-.7-1.4-1l.4-1.6c.2-.7-.3-1.4-1-1.5l-2.5-.4c-.7-.2-1.4.3-1.5 1l-.4 1.6c-.6 0-1.1.1-1.7.3l-.9-1.5c-.4-.6-1.2-.8-1.8-.4l-2.3 1.5c-.6.4-.8 1.2-.4 1.8l.9 1.4c-.3.4-.7.9-1 1.4l-1.6-.4c-.7-.2-1.4.3-1.5 1l-.6 2.6c-.2.7.3 1.4 1 1.5l1.6.4c0 .6.1 1.1.3 1.7l-1.4.9c-.6.4-.8 1.2-.4 1.8l1.5 2.3c.4.6 1.2.8 1.8.4L38 74c.4.3.9.7 1.4 1l-.4 1.4c-.2.7.3 1.4 1 1.5l2.6.6c.7.2 1.4-.3 1.5-1l.4-1.6c.6 0 1.1-.1 1.7-.3l.9 1.4c.4.6 1.2.8 1.8.4l2.3-1.5c.4-.2.7-1.1.3-1.7zM39.1 70c-1.6-2.6-.9-6 1.7-7.6 2.6-1.6 6-.9 7.6 1.7 1.6 2.6.9 6-1.7 7.6-2.5 1.7-5.9.9-7.6-1.7zm65.1 1.5l-.9-1.4c.3-.4.7-.9 1-1.4l1.6.4c.7.2 1.4-.3 1.5-1l.6-2.6c.2-.7-.3-1.4-1-1.5l-1.6-.4c0-.6-.1-1.1-.3-1.7l1.4-.9c.6-.4.8-1.2.4-1.8l-1.5-2.3c-.4-.6-1.2-.8-1.8-.4l-1.4.9c-.4-.3-.9-.7-1.4-1l.4-1.6c.2-.7-.3-1.4-1-1.5l-2.6-.6c-.7-.2-1.4.3-1.5 1l-.4 1.6c-.6 0-1.1.1-1.7.3l-.9-1.4c-.4-.6-1.2-.8-1.8-.4L89 55.3c-.6.4-.8 1.2-.4 1.8l.9 1.4c-.3.4-.7.9-1 1.4l-1.6-.4c-.7-.2-1.4.3-1.5 1l-.4 2.6c-.2.7.3 1.4 1 1.5l1.6.4c0 .6.1 1.1.3 1.7l-1.4.9c-.6.4-.8 1.2-.4 1.8l1.5 2.3c.4.6 1.2.8 1.8.4l1.4-.9c.4.3.9.7 1.4 1l-.4 1.6c-.2.7.3 1.4 1 1.5l2.6.6c.7.2 1.4-.3 1.5-1l.4-1.6c.6 0 1.1-.1 1.7-.3l.9 1.4c.4.6 1.2.8 1.8.4l2.3-1.5c.4-.4.6-1.2.2-1.8zm-12.4-4.2c-1.6-2.6-.9-6 1.7-7.6s6-.9 7.6 1.7c1.6 2.6.9 6-1.7 7.6-2.5 1.6-6 .8-7.6-1.7zm22.8-13.8c-1.1-2.7-2.8-5.2-4.9-7.3-4.3-4.4-10.1-6.8-16.2-6.8-1.3-3-3.2-5.7-5.6-8.1-4.8-4.8-11.2-7.6-17.9-7.8h-1.1c-7.2 0-13.9 2.8-19 7.8-1.1 1.1-2.1 2.3-3 3.5l-.1.1c-.1.1-.1.2-.2.3-.1.1-.1.2-.2.3 0 0 0 .1-.1.1-2.6 3.9-4.1 8.5-4.3 13.3-4.4.2-8.5 2.1-11.6 5.2-3.4 3.4-5.2 7.9-5.2 12.7s1.9 9.3 5.2 12.7c3.4 3.4 7.9 5.2 12.7 5.2h51.3c2.9 0 5.8-.6 8.5-1.8 2.6-1.1 4.9-2.8 7-4.8 4.2-4.3 6.5-9.9 6.5-15.9 0-3-.6-5.9-1.8-8.7zm-18.7-3.2c0-2.3-.3-4.6-.8-6.7 9.7.8 17.3 9 17.3 18.7 0 10.1-8.3 18.4-17.8 18.4H43.3c-7.7 0-13.8-6.1-13.8-13.8 0-7.7 6.1-13.8 13.8-13.8 1.2 0 2.1 0 3.4.3-.3-.9-.3-2.1-.3-3.1 0-4.7 1.4-9.1 3.9-12.7 4.1-6 11-10 18.9-10h1c9.7.4 18.1 7 20.8 16.3.6 2.1.9 4.2.9 6.5h4z"/>
  <g>
    <path class="st2" d="M45.5 101.9l2.1 2.2c-1.3 1.5-3.3 2.8-6 2.8-4.3 0-7.6-3.1-7.6-7.6 0-4.3 3.4-7.6 7.7-7.6 3 0 4.7 1.3 6 2.8l-2 2.3c-1.1-1.3-2.5-1.9-3.9-1.9-2.3 0-4.5 1.6-4.5 4.5 0 2.8 2 4.5 4.2 4.5 1.6-.1 3-.7 4-2zM50.1 92h3.3v11.8h6.3v2.9h-9.5V92zM60.6 99.3c0-4.3 3.4-7.6 7.7-7.6 4.3 0 7.7 3.3 7.7 7.6s-3.4 7.6-7.7 7.6c-4.3 0-7.7-3.3-7.7-7.6zm3.4 0c0 2.6 1.9 4.7 4.3 4.7 2.5 0 4.4-2.1 4.4-4.7s-1.9-4.7-4.4-4.7c-2.4 0-4.3 2.1-4.3 4.7zM87.8 100.1V92h3.3v8.2c0 4.4-2.8 6.6-6.3 6.6s-6.3-2.2-6.3-6.6V92h3.3v8.1c0 2.4 1.2 3.8 3 3.8 1.9 0 3-1.4 3-3.8zM99.6 106.7h-5V92h5.2c5.3 0 8.1 2.7 8.1 7.3 0 4.3-2.4 7.4-8.3 7.4zm.1-11.8h-1.8v8.9h2.1c3 0 4.7-1.5 4.7-4.5-.1-2.7-1.6-4.4-5-4.4z"/>
  </g>
</svg>