<?xml version="1.0" encoding="utf-8" standalone="no" ?>
<svg version="1.1" xmlns="http://www.w3.org/2000/svg" width="100%" height="100%" viewBox="0 0 140 155">
<path fill="#FFFFFF" d="M69.999,153.831c-1.797,0-3.596-0.466-5.208-1.396L7.708,119.479c-3.222-1.861-5.208-5.3-5.208-9.021V44.542
	c0-3.721,1.986-7.159,5.208-9.021L64.791,2.564c1.612-0.93,3.411-1.396,5.208-1.396c1.799,0,3.598,0.466,5.209,1.396l57.083,32.957
	c3.224,1.861,5.21,5.3,5.21,9.021v65.916c0,3.721-1.986,7.159-5.21,9.021l-57.083,32.957
	C73.596,153.365,71.797,153.831,69.999,153.831z"/>
</svg>
