<?xml version="1.0" encoding="UTF-8"?>
<svg width="93px" height="90px" viewBox="0 0 93 90" version="1.1" xmlns="http://www.w3.org/2000/svg" xmlns:xlink="http://www.w3.org/1999/xlink">
    <!-- Generator: Sketch 43.1 (39012) - http://www.bohemiancoding.com/sketch -->
    <title>kubernetes</title>
    <desc>Created with Sketch.</desc>
    <defs></defs>
    <g id="Page-1" stroke="none" stroke-width="1" fill="none" fill-rule="evenodd">
        <g id="kubernetes" transform="translate(5.000000, 2.000000)" fill-rule="nonzero">
            <path d="M80.3,19.3 C79.8,17.7 78.6,16.4 77.1,15.6 L46.6,1 C45.8,0.6 44.9,0.5 44.1,0.5 C43.3,0.5 42.4,0.5 41.6,0.7 L11.1,15.4 C9.6,16.1 8.5,17.4 8.1,19.1 L0.6,52 C0.3,53.7 0.7,55.4 1.7,56.8 L22.8,82.9 C24,84.1 25.7,84.9 27.4,85 L61,85 C62.8,85.2 64.5,84.4 65.6,82.9 L86.7,56.8 C87.7,55.4 88.1,53.7 87.9,52 L80.3,19.3 Z" id="Shape" stroke="#FFFFFF" stroke-width="5" fill="#FFFFFF"></path>
            <path d="M80.3,19.3 C79.8,17.7 78.6,16.4 77.1,15.6 L46.6,1 C45.8,0.6 44.9,0.5 44.1,0.5 C43.3,0.5 42.4,0.5 41.6,0.7 L11.1,15.4 C9.6,16.1 8.5,17.4 8.1,19.1 L0.6,52 C0.3,53.7 0.7,55.4 1.7,56.8 L22.8,82.9 C24,84.1 25.7,84.9 27.4,85 L61,85 C62.8,85.2 64.5,84.4 65.6,82.9 L86.7,56.8 C87.7,55.4 88.1,53.7 87.9,52 L80.3,19.3 Z" id="Shape" fill="#326DE6"></path>
            <path d="M75.6,50.7 L75.6,50.7 C75.5,50.7 75.4,50.7 75.4,50.6 C75.4,50.5 75.2,50.5 75,50.5 C74.6,50.4 74.2,50.4 73.8,50.4 C73.6,50.4 73.4,50.4 73.2,50.3 L73.1,50.3 C72,50.2 70.8,50 69.7,49.7 C69.4,49.6 69.1,49.3 69,49 C69.1,49 69,49 69,49 L69,49 L68.2,48.8 C68.6,45.9 68.4,42.9 67.8,40 C67.1,37.1 65.9,34.3 64.3,31.8 L64.9,31.2 L64.9,31.2 L64.9,31.1 C64.9,30.8 65,30.4 65.2,30.2 C66.1,29.4 67,28.8 68,28.2 L68,28.2 C68.2,28.1 68.4,28 68.6,27.9 C69,27.7 69.3,27.5 69.7,27.3 C69.8,27.2 69.9,27.2 70,27.1 C70.1,27 70,27 70,26.9 L70,26.9 C70.9,26.2 71.1,25 70.4,24.1 C70.1,23.7 69.5,23.4 69,23.4 C68.5,23.4 68,23.6 67.6,23.9 L67.6,23.9 L67.5,24 C67.4,24.1 67.3,24.2 67.2,24.2 C66.9,24.5 66.6,24.8 66.4,25.1 C66.3,25.3 66.1,25.4 66,25.5 L66,25.5 C65.3,26.3 64.4,27.1 63.5,27.7 C63.3,27.8 63.1,27.9 62.9,27.9 C62.8,27.9 62.6,27.9 62.5,27.8 L62.4,27.8 L61.6,28.3 C60.8,27.5 59.9,26.7 59.1,25.9 C55.4,23 50.8,21.2 46.1,20.7 L46,19.9 L46,19.9 L46,20 C45.7,19.8 45.6,19.5 45.5,19.2 C45.5,18.1 45.5,17 45.7,15.8 L45.7,15.7 C45.7,15.5 45.8,15.3 45.8,15.1 C45.9,14.7 45.9,14.3 46,13.9 L46,13.3 L46,13.3 C46.1,12.3 45.3,11.3 44.3,11.2 C43.7,11.1 43.1,11.4 42.6,11.9 C42.2,12.3 42,12.8 42,13.3 L42,13.3 L42,13.8 C42,14.2 42.1,14.6 42.2,15 C42.3,15.2 42.3,15.4 42.3,15.6 L42.3,15.7 C42.5,16.8 42.5,17.9 42.5,19.1 C42.4,19.4 42.3,19.7 42,19.9 L42,20.1 L42,20.1 L41.9,20.9 C40.8,21 39.7,21.2 38.5,21.4 C33.8,22.4 29.5,24.9 26.2,28.4 L25.6,28 L25.5,28 C25.4,28 25.3,28.1 25.1,28.1 C24.9,28.1 24.7,28 24.5,27.9 C23.6,27.2 22.7,26.4 22,25.6 L22,25.6 C21.9,25.4 21.7,25.3 21.6,25.2 C21.3,24.9 21.1,24.6 20.8,24.3 C20.7,24.2 20.6,24.2 20.5,24.1 C20.4,24 20.4,24 20.4,24 L20.4,24 C20,23.7 19.5,23.5 19,23.5 C18.4,23.5 17.9,23.7 17.6,24.2 C17,25.1 17.2,26.3 18,27 L18,27 C18.1,27 18.1,27.1 18.1,27.1 C18.1,27.1 18.3,27.3 18.4,27.3 C18.7,27.5 19.1,27.7 19.5,27.9 C19.7,28 19.9,28.1 20.1,28.2 L20.1,28.2 C21.1,28.8 22.1,29.4 22.9,30.2 C23.1,30.4 23.3,30.8 23.2,31.1 L23.2,31 L23.2,31 L23.8,31.6 C23.7,31.8 23.6,31.9 23.5,32.1 C20.4,37 19.1,42.8 20,48.5 L19.2,48.7 L19.2,48.7 C19.2,48.8 19.1,48.8 19.1,48.8 C19,49.1 18.7,49.3 18.4,49.5 C17.3,49.8 16.2,50 15,50.1 L15,50.1 C14.8,50.1 14.6,50.1 14.4,50.2 C14,50.2 13.6,50.3 13.2,50.3 C13.1,50.3 13,50.4 12.8,50.4 C12.7,50.4 12.7,50.4 12.6,50.5 L12.6,50.5 C11.5,50.7 10.8,51.7 11,52.8 L11,52.8 C11.2,53.7 12.1,54.3 13,54.2 C13.2,54.2 13.3,54.2 13.5,54.1 L13.5,54.1 C13.6,54.1 13.6,54.1 13.6,54 C13.6,53.9 13.9,54 14,54 C14.4,53.9 14.8,53.7 15.1,53.6 C15.3,53.5 15.5,53.4 15.7,53.4 L15.8,53.4 C16.9,53 17.9,52.7 19.1,52.5 L19.2,52.5 C19.5,52.5 19.8,52.6 20,52.8 C20.1,52.8 20.1,52.9 20.1,52.9 L20.1,52.9 L21,52.8 C22.5,57.4 25.3,61.5 29.2,64.5 C30.1,65.2 30.9,65.8 31.9,66.3 L31.4,67 L31.4,67 C31.4,67.1 31.5,67.1 31.5,67.1 C31.7,67.4 31.7,67.8 31.6,68.1 C31.2,69.1 30.6,70.1 30,71 L30,71.1 C29.9,71.3 29.8,71.4 29.6,71.6 C29.4,71.8 29.2,72.2 28.9,72.6 C28.8,72.7 28.8,72.8 28.7,72.9 C28.7,72.9 28.7,73 28.6,73 L28.6,73 C28.1,74 28.5,75.2 29.4,75.7 C29.6,75.8 29.9,75.9 30.1,75.9 C30.9,75.9 31.6,75.4 32,74.7 L32,74.7 C32,74.7 32,74.6 32.1,74.6 C32.1,74.5 32.2,74.4 32.3,74.3 C32.4,73.9 32.6,73.6 32.7,73.2 L32.9,72.6 L32.9,72.6 C33.2,71.5 33.7,70.5 34.2,69.5 C34.4,69.2 34.7,69 35,68.9 C35.1,68.9 35.1,68.9 35.1,68.8 L35.1,68.8 L35.5,68 C38.3,69.1 41.2,69.6 44.2,69.6 C46,69.6 47.8,69.4 49.6,68.9 C50.7,68.7 51.8,68.3 52.8,68 L53.2,68.7 L53.2,68.7 C53.3,68.7 53.3,68.7 53.3,68.8 C53.6,68.9 53.9,69.1 54.1,69.4 C54.6,70.4 55.1,71.4 55.4,72.5 L55.4,72.6 L55.6,73.2 C55.7,73.6 55.8,74 56,74.3 C56.1,74.4 56.1,74.5 56.2,74.6 C56.2,74.6 56.2,74.7 56.3,74.7 L56.3,74.7 C56.7,75.4 57.4,75.9 58.2,75.9 C58.5,75.9 58.7,75.8 59,75.7 C59.4,75.5 59.8,75.1 59.9,74.6 C60,74.1 60,73.6 59.8,73.1 L59.8,73.1 C59.8,73 59.7,73 59.7,73 C59.7,72.9 59.6,72.8 59.5,72.7 C59.3,72.3 59.1,72 58.8,71.7 C58.7,71.5 58.6,71.4 58.4,71.2 L58.4,71 C57.7,70.1 57.2,69.1 56.8,68.1 C56.7,67.8 56.7,67.4 56.9,67.1 C56.9,67 57,67 57,67 L57,67 L56.7,66.2 C61.8,63.1 65.7,58.3 67.5,52.6 L68.3,52.7 L68.3,52.7 C68.4,52.7 68.4,52.6 68.4,52.6 C68.6,52.4 68.9,52.3 69.2,52.3 L69.3,52.3 C70.4,52.5 71.5,52.8 72.5,53.2 L72.6,53.2 C72.8,53.3 73,53.4 73.2,53.4 C73.6,53.6 73.9,53.8 74.3,53.9 C74.4,53.9 74.5,54 74.7,54 C74.8,54 74.8,54 74.9,54.1 L74.9,54.1 C75.1,54.2 75.2,54.2 75.4,54.2 C76.3,54.2 77.1,53.6 77.4,52.8 C77.3,51.7 76.5,50.9 75.6,50.7 Z M46.7,47.6 L44,48.9 L41.3,47.6 L40.6,44.7 L42.5,42.3 L45.5,42.3 L47.4,44.7 L46.7,47.6 Z M63,41.1 C63.5,43.2 63.6,45.3 63.4,47.4 L53.9,44.7 L53.9,44.7 C53,44.5 52.5,43.6 52.7,42.7 C52.8,42.4 52.9,42.2 53.1,42 L60.6,35.2 C61.7,37 62.5,39 63,41.1 Z M57.6,31.5 L49.4,37.3 C48.7,37.7 47.7,37.6 47.2,36.9 C47,36.7 46.9,36.5 46.9,36.2 L46.3,26.1 C50.7,26.6 54.6,28.5 57.6,31.5 L57.6,31.5 Z M39.5,26.4 L41.5,26 L41,36 L41,36 C41,36.9 40.2,37.6 39.3,37.6 C39,37.6 38.8,37.5 38.5,37.4 L30.2,31.5 C32.8,29 36,27.2 39.5,26.4 Z M27.3,35.2 L34.7,41.8 L34.7,41.8 C35.4,42.4 35.5,43.4 34.9,44.1 C34.7,44.4 34.5,44.5 34.1,44.6 L24.4,47.4 C24.1,43.2 25.1,38.9 27.3,35.2 Z M25.6,52.1 L35.5,50.4 C36.3,50.4 37.1,50.9 37.2,51.7 C37.3,52 37.3,52.4 37.1,52.7 L37.1,52.7 L33.3,61.9 C29.8,59.6 27,56.1 25.6,52.1 Z M48.3,64.5 C46.9,64.8 45.5,65 44,65 C41.9,65 39.7,64.6 37.7,64 L42.6,55.1 C43.1,54.5 43.9,54.3 44.6,54.7 C44.9,54.9 45.1,55.1 45.4,55.4 L45.4,55.4 L50.2,64.1 C49.6,64.2 49,64.3 48.3,64.5 Z M60.5,55.8 C59,58.2 56.9,60.3 54.5,61.8 L50.6,52.4 C50.4,51.6 50.8,50.8 51.5,50.5 C51.8,50.4 52.1,50.3 52.4,50.3 L62.4,52 C61.9,53.4 61.3,54.7 60.5,55.8 Z" id="Shape" fill="#FFFFFF"></path>
        </g>
    </g>
</svg>