<?xml version="1.0" encoding="UTF-8"?>
<svg width="87px" height="86px" viewBox="0 0 87 86" version="1.1" xmlns="http://www.w3.org/2000/svg" xmlns:xlink="http://www.w3.org/1999/xlink">
    <title>Group</title>
    <defs>
        <path d="M41.8864954,0.994901575 C42.8830405,0.514990742 44.5028956,0.516982644 45.4953045,0.994901575 L76.8159138,16.0781121 C77.8124589,16.5580229 78.8208647,17.8257185 79.0659694,18.8995926 L86.8015211,52.7912589 C87.0476474,53.8696088 86.6852538,55.4484075 85.9984855,56.3095876 L64.3239514,83.4885938 C63.6343208,84.3533632 62.1740175,85.0543973 61.0725268,85.0543973 L26.3092731,85.0543973 C25.2031915,85.0543973 23.7446167,84.3497739 23.0578485,83.4885938 L1.38331434,56.3095876 C0.693683723,55.4448182 0.335174016,53.865133 0.580278769,52.7912589 L8.31583044,18.8995926 C8.56195675,17.8212428 9.57347722,16.556031 10.5658861,16.0781121 L41.8864954,0.994901575 Z" id="path-1"></path>
        <linearGradient x1="19.1574381%" y1="-9.04800713%" x2="116.355289%" y2="122.248263%" id="linearGradient-3">
            <stop stop-color="#FFFFFF" offset="0%"></stop>
            <stop stop-color="#03A9F4" offset="100%"></stop>
        </linearGradient>
    </defs>
    <g id="Page-1" stroke="none" stroke-width="1" fill="none" fill-rule="evenodd">
        <g id="Group">
            <g id="Rectangle-2">
                <g id="Mask" fill="#40C4FF" fill-rule="nonzero">
                    <path d="M41.8864954,0.994901575 C42.8830405,0.514990742 44.5028956,0.516982644 45.4953045,0.994901575 L76.8159138,16.0781121 C77.8124589,16.5580229 78.8208647,17.8257185 79.0659694,18.8995926 L86.8015211,52.7912589 C87.0476474,53.8696088 86.6852538,55.4484075 85.9984855,56.3095876 L64.3239514,83.4885938 C63.6343208,84.3533632 62.1740175,85.0543973 61.0725268,85.0543973 L26.3092731,85.0543973 C25.2031915,85.0543973 23.7446167,84.3497739 23.0578485,83.4885938 L1.38331434,56.3095876 C0.693683723,55.4448182 0.335174016,53.865133 0.580278769,52.7912589 L8.31583044,18.8995926 C8.56195675,17.8212428 9.57347722,16.556031 10.5658861,16.0781121 L41.8864954,0.994901575 Z" id="path-1"></path>
                </g>
                <path d="M-7.54757255,51.9846205 L34.9590185,18.5910288 C46.6627741,32.9176288 52.6379881,41.0854215 52.8846604,43.0944068 C53.1313328,45.1033921 56.4270082,48.8085119 62.7716865,54.2097661 L28.5007493,96.5707906 L-7.54757255,51.9846205 Z" id="Path" fill="#000000" fill-rule="nonzero" opacity="0.289628623" mask="url(#mask-2)" transform="translate(27.612057, 57.580910) rotate(7.000000) translate(-27.612057, -57.580910) "></path>
            </g>
            <g id="snowflake" transform="translate(20.000000, 17.000000)" fill="url(#linearGradient-3)" fill-rule="nonzero">
                <g id="Group">
                    <path d="M46.6587856,31.07 L40.6491134,32.682 L35.4905965,29.744 L35.4905965,22.256 L40.6491134,19.318 L46.6587856,20.93 L48,15.912 L43.4347125,14.69 L44.6211714,10.088 L39.6432026,8.736 L38.0440623,14.794 L32.8855454,17.732 L26.5663622,13.988 L26.5663622,8.112 L30.9768941,3.666 L27.3143471,0 L23.9871037,3.354 L20.6598603,0 L16.9973133,3.666 L21.4078452,8.112 L21.4078452,13.988 L14.9596991,17.732 L9.80118216,14.794 L8.30521225,8.736 L3.353036,10.088 L4.56528748,14.69 L0,15.912 L1.3412144,20.93 L7.35088662,19.318 L12.5094035,22.256 L12.5094035,29.77 L7.35088662,32.708 L1.3412144,31.096 L0,36.114 L4.56528748,37.336 L3.353036,41.912 L8.33100484,43.264 L9.93014508,37.206 L15.088662,34.268 L21.4078452,38.012 L21.4078452,43.888 L16.9973133,48.334 L20.6598603,52 L23.9871037,48.646 L27.3143471,52 L30.9511016,48.334 L26.5663622,43.888 L26.5663622,38.012 L33.0145083,34.242 L38.1730253,37.18 L39.7721655,43.238 L44.6211714,41.912 L43.4089199,37.31 L47.9742074,36.088 L46.6587856,31.07 M17.5389575,22.256 L23.9871037,18.486 L30.4352499,22.256 L30.4352499,29.744 L23.9871037,33.514 L17.5389575,29.744 L17.5389575,22.256 Z" id="Shape"></path>
                </g>
            </g>
        </g>
    </g>
</svg>