<?xml version="1.0" encoding="UTF-8"?>
<svg width="91px" height="92px" viewBox="0 0 91 92" version="1.1" xmlns="http://www.w3.org/2000/svg" xmlns:xlink="http://www.w3.org/1999/xlink">
    <title>Page 1</title>
    <defs>
        <path d="M43.6559266,19.7770228 L44.6372488,21.3360003 L46.4989574,24.3146563 L47.9475759,26.654991 L49.8186304,29.7147722 L50.8055602,31.3497157 L52.1738038,33.6473543 L53.0111988,35.0759289 L53.7887798,36.4219559 L54.506547,37.6854353 L55.1645002,38.8663672 L55.7626394,39.9647515 L56.0392789,40.4829883 L56.4262002,41.2216494 L56.7794762,41.9138774 L56.9963017,42.3495667 L57.2935021,42.9644064 L57.6374322,43.7119636 L57.9215484,44.3769731 L58.0953826,44.8215585 L58.1925802,45.0921526 L58.2930489,45.4013746 L58.2930489,45.4013746 L58.3701528,45.6783515 L58.3944522,45.7801136 L58.3944522,45.7801136 L58.4318359,45.9681602 L58.4542661,46.1355698 L58.4617429,46.2823426 C58.4617429,46.9300458 58.7504668,47.7881883 59.3279146,48.8567702 L59.5579915,49.2673527 L59.8151362,49.6976639 C59.8602493,49.7710265 59.9064903,49.8452112 59.953859,49.9202178 L60.2516056,50.3801221 L60.4106293,50.6174725 L60.4106293,50.6174725 L60.7489776,51.1069698 L61.1143938,51.6161958 L61.5068778,52.1451504 L61.9264298,52.6938338 L62.3730496,53.2622459 L62.8467372,53.8503866 L63.476911,54.613306 L63.476911,54.613306 L64.1493783,55.4070515 L64.7178035,56.0642426 L65.3132965,56.7411625 L65.9358574,57.437811 L66.920451,58.5197751 L66.920451,58.5197751 L39.4681796,85.0543973 L30.3092731,85.0543973 C29.2031915,85.0543973 27.7446167,84.3497739 27.0578485,83.4885938 L5.38331434,56.3095876 C4.69368372,55.4448182 4.33517402,53.865133 4.58027877,52.7912589 L7.06717957,41.8950228 L43.6559266,19.7770228 Z" id="path-1"></path>
        <filter x="-13.6%" y="-13.6%" width="131.1%" height="129.7%" filterUnits="objectBoundingBox" id="filter-2">
            <feMorphology radius="0.5" operator="dilate" in="SourceAlpha" result="shadowSpreadOuter1"></feMorphology>
            <feOffset dx="1" dy="1" in="shadowSpreadOuter1" result="shadowOffsetOuter1"></feOffset>
            <feGaussianBlur stdDeviation="2.5" in="shadowOffsetOuter1" result="shadowBlurOuter1"></feGaussianBlur>
            <feComposite in="shadowBlurOuter1" in2="SourceAlpha" operator="out" result="shadowBlurOuter1"></feComposite>
            <feColorMatrix values="0 0 0 0 0   0 0 0 0 0   0 0 0 0 0  0 0 0 0.5 0" type="matrix" in="shadowBlurOuter1"></feColorMatrix>
        </filter>
        <linearGradient x1="19.1574381%" y1="-9.04800713%" x2="116.355289%" y2="122.248263%" id="linearGradient-3">
            <stop stop-color="#FFFFFF" offset="0%"></stop>
            <stop stop-color="#4FC3F7" offset="100%"></stop>
        </linearGradient>
    </defs>
    <g id="Page-1" stroke="none" stroke-width="1" fill="none" fill-rule="evenodd">
        <path d="M45.8864954,0.994901575 C46.8830405,0.514990742 48.5028956,0.516982644 49.4953045,0.994901575 L80.8159138,16.0781121 C81.8124589,16.5580229 82.8208647,17.8257185 83.0659694,18.8995926 L90.8015211,52.7912589 C91.0476474,53.8696088 90.6852538,55.4484075 89.9984855,56.3095876 L68.3239514,83.4885938 C67.6343208,84.3533632 66.1740175,85.0543973 65.0725268,85.0543973 L30.3092731,85.0543973 C29.2031915,85.0543973 27.7446167,84.3497739 27.0578485,83.4885938 L5.38331434,56.3095876 C4.69368372,55.4448182 4.33517402,53.865133 4.58027877,52.7912589 L12.3158304,18.8995926 C12.5619568,17.8212428 13.5734772,16.556031 14.5658861,16.0781121 L45.8864954,0.994901575 Z" id="heptagon" fill="#03A9F4" fill-rule="nonzero"></path>
        <g id="Path" opacity="0.50285848">
            <use fill="black" fill-opacity="1" filter="url(#filter-2)" xlink:href="#path-1"></use>
            <use fill-opacity="0.5" fill="#000000" fill-rule="evenodd" xlink:href="#path-1"></use>
        </g>
        <path d="M51.3143471,17 L54.9768941,20.666 L50.5663622,25.112 L50.5663622,30.988 L56.8855454,34.732 L62.0440623,31.794 L63.6432026,25.736 L68.6211714,27.088 L67.4347125,31.69 L72,32.912 L70.6587856,37.93 L64.6491134,36.318 L59.4905965,39.256 L59.4905965,46.744 L64.6491134,49.682 L70.6587856,48.07 L71.9742074,53.088 L67.4089199,54.31 L68.6211714,58.912 L63.7721655,60.238 L62.1730253,54.18 L57.0145083,51.242 L50.5663622,55.012 L50.5663622,60.888 L54.9511016,65.334 L51.3143471,69 L47.9871037,65.646 L44.6598603,69 L40.9973133,65.334 L45.4078452,60.888 L45.4078452,55.012 L39.088662,51.268 L33.9301451,54.206 L32.3310048,60.264 L27.353036,58.912 L28.5652875,54.336 L24,53.114 L25.3412144,48.096 L31.3508866,49.708 L36.5094035,46.77 L36.5094035,39.256 L31.3508866,36.318 L25.3412144,37.93 L24,32.912 L28.5652875,31.69 L27.353036,27.088 L32.3052122,25.736 L33.8011822,31.794 L38.9596991,34.732 L45.4078452,30.988 L45.4078452,25.112 L40.9973133,20.666 L44.6598603,17 L47.9871037,20.354 L51.3143471,17 Z M47.9871037,35.486 L41.5389575,39.256 L41.5389575,46.744 L47.9871037,50.514 L54.4352499,46.744 L54.4352499,39.256 L47.9871037,35.486 Z" id="Shape" fill="url(#linearGradient-3)" fill-rule="nonzero"></path>
    </g>
</svg>