<?xml version="1.0" encoding="UTF-8"?>
<svg width="143px" height="114px" viewBox="0 0 143 114" version="1.1" xmlns="http://www.w3.org/2000/svg" xmlns:xlink="http://www.w3.org/1999/xlink">
    <!-- Generator: Sketch 61.1 (89650) - https://sketch.com -->
    <title>Page 1</title>
    <desc>Created with Sketch.</desc>
    <g id="Page-1" stroke="none" stroke-width="1" fill="none" fill-rule="evenodd">
        <path d="M42.3833158,29.3591865 C43.3798609,28.8792757 44.999716,28.8812676 45.9921249,29.3591865 L77.3127342,44.4423971 C78.3092793,44.9223079 79.3176851,46.1900035 79.5627898,47.2638776 L87.2983415,81.1555439 C87.5444678,82.2338938 87.1820742,83.8126925 86.4953059,84.6738726 L64.8207718,111.852879 C64.1311412,112.717648 62.6708379,113.418682 61.5693472,113.418682 L26.8060935,113.418682 C25.7000119,113.418682 24.2414371,112.714059 23.5546689,111.852879 L1.88013477,84.6738726 C1.19050415,83.8091032 0.831994446,82.229418 1.0770992,81.1555439 L8.81265087,47.2638776 C9.05877718,46.1855278 10.0702977,44.920316 11.0627065,44.4423971 L42.3833158,29.3591865 Z" id="path-1" stroke="#000000" fill="#FFFFFF" fill-rule="nonzero"></path>
        <path d="M97.3833158,29.3591865 C98.3798609,28.8792757 99.999716,28.8812676 100.992125,29.3591865 L132.312734,44.4423971 C133.309279,44.9223079 134.317685,46.1900035 134.56279,47.2638776 L142.298342,81.1555439 C142.544468,82.2338938 142.182074,83.8126925 141.495306,84.6738726 L119.820772,111.852879 C119.131141,112.717648 117.670838,113.418682 116.569347,113.418682 L81.8060935,113.418682 C80.7000119,113.418682 79.2414371,112.714059 78.5546689,111.852879 L56.8801348,84.6738726 C56.1905042,83.8091032 55.8319944,82.229418 56.0770992,81.1555439 L63.8126509,47.2638776 C64.0587772,46.1855278 65.0702977,44.920316 66.0627065,44.4423971 L97.3833158,29.3591865 Z" id="path-1" stroke="#000000" fill="#FFFFFF" fill-rule="nonzero"></path>
        <path d="M70.097559,1.47654017 C71.4243546,0.839832613 73.5810224,0.842475311 74.9023111,1.47654017 L116.602428,21.4877454 C117.929224,22.124453 119.271811,23.8063307 119.598142,25.2310616 L129.897221,70.1958315 C130.224912,71.6265005 129.742423,73.7211251 128.828063,74.8636705 L99.9706862,110.922616 C99.0525151,112.069924 97.1082739,113 95.6417542,113 L49.3581159,113 C47.8854839,113 45.943544,112.065162 45.0291839,110.922616 L16.1718074,74.8636705 C15.2536364,73.7163631 14.7763182,71.6205623 15.1026495,70.1958315 L25.4017279,25.2310616 C25.7294194,23.8003927 27.0761532,22.1218103 28.3974418,21.4877454 L70.097559,1.47654017 Z" id="path-1" stroke="#000000" fill="#FFFFFF" fill-rule="nonzero"></path>
        <path d="M54.419034,70.3852459 C51.6764555,68.5558153 49,67.9018551 49,66.8442623 C49,65.7866695 49,63.6339177 49,62.3134777 C49.4409541,61.5757728 54.6395111,57.6967213 61.1803306,53.8606557 L73.1595843,47 L76.1727708,48.6967213 C77.7896026,49.6557377 83.3015292,52.7540984 88.3725016,55.704918 C97.7795229,62.3134777 97.7795229,60.1134832 98,62.9905324 L98,66.8442623 L91.973627,70.4590164 L85.9472539,74 L83.3015292,72.5245902 C81.8316821,71.7131148 78.9654803,70.0901639 76.9076944,68.9098361 L73.2330767,66.7704918 L67.2067036,70.2377049 C63.97304,72.1557377 60.9598535,73.704918 60.6658841,73.704918 C60.3719147,73.704918 57.2556819,72.2774253 54.419034,70.3852459 Z M66.9509434,65.7272727 C69.9679245,63.9090909 72.9113208,62.4545455 73.3528302,62.4545455 C73.8679245,62.4545455 76.8113208,63.9090909 80.0490566,65.7272727 C83.2132075,67.5454545 85.9358491,69 86.0830189,69 C86.745283,69 93,64.9272727 93,64.5636364 C93,64.2727273 88.5849057,61.5818182 83.2132075,58.5272727 L73.4264151,53 L63.7132075,58.5272727 C58.3415094,61.5818182 54,64.3454545 54,64.6363636 C54,65.2181818 59.6660377,68.7818182 60.7698113,68.9272727 C61.0641509,69 63.8603774,67.5454545 66.9509434,65.7272727 Z" id="Shape" stroke="#000000" fill="#000000" fill-rule="nonzero"></path>
        <path d="M54.9150522,80.6024096 C49.8032787,77.6385542 49.438152,77.2771084 49.219076,74.746988 L49,72 L52.8703428,74.2409639 C54.9880775,75.3975904 57.7630402,76.9879518 58.9314456,77.6385542 L61.195231,78.939759 L67.0372578,75.5421687 C70.3233979,73.7349398 73.2444113,72.2168675 73.5365127,72.2168675 C73.9016393,72.2168675 76.7496274,73.7349398 79.9627422,75.6144578 L85.804769,79.0120482 L88.0685544,77.7108434 C89.3099851,76.9879518 92.0849478,75.3975904 94.2026826,74.2409639 L98,72.0722892 L98,74.6024096 C98,77.060241 97.7078987,77.3493976 92.0119225,80.6024096 L86.023845,84 L82.3725782,81.9036145 C80.3278689,80.8192771 77.4798808,79.2289157 76.0193741,78.4337349 L73.390462,76.9879518 L67.3293592,80.3855422 C64.0432191,82.2650602 61.1222057,83.7831325 60.8301043,83.7108434 C60.6110283,83.7108434 57.9090909,82.3373494 54.9150522,80.6024096 Z" id="Path" stroke="#000000" fill="#000000" fill-rule="nonzero"></path>
        <path d="M54.9150522,90.6024096 C49.8032787,87.6385542 49.438152,87.2771084 49.219076,84.746988 L49,82 L52.8703428,84.2409639 C54.9880775,85.3975904 57.7630402,86.9879518 58.9314456,87.6385542 L61.195231,88.939759 L67.0372578,85.5421687 C70.3233979,83.7349398 73.2444113,82.2168675 73.5365127,82.2168675 C73.9016393,82.2168675 76.7496274,83.7349398 79.9627422,85.6144578 L85.804769,89.0120482 L88.0685544,87.7108434 C89.3099851,86.9879518 92.0849478,85.3975904 94.2026826,84.2409639 L98,82.0722892 L98,84.6024096 C98,87.060241 97.7078987,87.3493976 92.0119225,90.6024096 L86.023845,94 L82.3725782,91.9036145 C80.3278689,90.8192771 77.4798808,89.2289157 76.0193741,88.4337349 L73.390462,86.9879518 L67.3293592,90.3855422 C64.0432191,92.2650602 61.1222057,93.7831325 60.8301043,93.7108434 C60.6110283,93.7108434 57.9090909,92.3373494 54.9150522,90.6024096 Z" id="Path" stroke="#000000" fill="#000000" fill-rule="nonzero"></path>
    </g>
</svg>