<?xml version="1.0" encoding="UTF-8" standalone="no"?>
<!DOCTYPE svg PUBLIC "-//W3C//DTD SVG 1.1//EN" "http://www.w3.org/Graphics/SVG/1.1/DTD/svg11.dtd">
<svg width="100%" height="100%" viewBox="0 0 752 705" version="1.1" xmlns="http://www.w3.org/2000/svg" xmlns:xlink="http://www.w3.org/1999/xlink" xml:space="preserve" xmlns:serif="http://www.serif.com/" style="fill-rule:evenodd;clip-rule:evenodd;stroke-linejoin:round;stroke-miterlimit:2;">
    <g transform="matrix(1,0,0,1,-204.177,-1091.93)">
        <g transform="matrix(0.596927,0,0,0.596927,-406.101,729.887)">
            <rect x="1022.37" y="606.512" width="155.009" height="1180.67" style="fill:white;"/>
        </g>
        <path d="M955.939,1091.93L955.939,1796.71L396.828,1796.71L396.828,1091.93L955.939,1091.93ZM763.761,1714.19C749.304,1714.19 734.848,1712.83 720.391,1710.09C705.934,1707.35 695.878,1704.93 690.224,1702.83C684.569,1700.73 681.042,1699.39 679.643,1698.81L692.235,1657.53C693.75,1658.58 698.939,1660.51 707.799,1663.31C716.66,1666.1 725.258,1668.23 733.594,1669.69C741.93,1671.14 749.771,1671.87 757.116,1671.87C771.106,1671.87 781.891,1670.1 789.469,1666.54C797.047,1662.98 801.594,1658.76 803.109,1653.86C804.625,1648.96 805.383,1644.36 805.383,1640.05C805.383,1632.12 802.206,1625.62 795.852,1620.55C789.498,1615.48 781.745,1611.28 772.593,1607.95C763.441,1604.63 755.483,1601.57 748.721,1598.77C744.874,1597.26 740.677,1595.57 736.13,1593.7C731.583,1591.84 727.036,1589.62 722.489,1587.06C717.942,1584.49 713.541,1581.46 709.286,1577.96C705.03,1574.47 701.27,1570.36 698.006,1565.63C694.741,1560.91 692.118,1555.52 690.136,1549.46C688.154,1543.39 687.163,1536.46 687.163,1528.65C687.163,1517.45 689.378,1507.4 693.809,1498.48C698.239,1489.56 704.477,1482.01 712.521,1475.83C720.566,1469.65 730.213,1464.9 741.464,1461.58C752.715,1458.26 765.16,1456.6 778.801,1456.6C791.043,1456.6 802.964,1457.56 814.564,1459.48C826.165,1461.4 836.104,1463.53 844.381,1465.86L844.381,1509.23C838.319,1507.14 831.848,1505.3 824.97,1503.73C818.091,1502.15 810.688,1500.78 802.76,1499.62C794.832,1498.45 787.603,1497.87 781.074,1497.87C765.685,1497.87 754.609,1500.43 747.847,1505.56C741.085,1510.69 737.704,1517.63 737.704,1526.37C737.704,1533.6 740.823,1539.63 747.06,1544.47C753.297,1549.31 760.759,1553.13 769.445,1555.93C778.131,1558.73 785.796,1561.29 792.442,1563.62C802.002,1567.24 809.609,1570.33 815.264,1572.89C820.918,1575.46 826.806,1579.1 832.927,1583.82C839.048,1588.54 844.148,1594.02 848.229,1600.26C852.309,1606.5 855.078,1612.85 856.536,1619.32C857.993,1625.79 858.722,1632.47 858.722,1639.35C858.722,1651.47 856.652,1662.17 852.513,1671.44C848.374,1680.7 842.283,1688.52 834.238,1694.87C826.194,1701.23 816.284,1706.03 804.508,1709.3C792.733,1712.56 779.151,1714.19 763.761,1714.19ZM666.527,1503.46L666.527,1460.97L479.579,1460.97L479.579,1503.46L547.958,1503.46L547.958,1709.82L598.499,1709.82L598.499,1503.46L666.527,1503.46ZM792.879,1423.3L792.879,1174.44L741.989,1174.44L741.989,1423.3L792.879,1423.3ZM704.039,1215.54L704.039,1174.44L555.041,1174.44L555.041,1423.3L605.931,1423.3L605.931,1312.6L683.578,1312.6L683.578,1271.5L605.581,1271.5L605.581,1215.54L704.039,1215.54Z" style="fill:white;"/>
    </g>
</svg>
