<?xml version="1.0" encoding="UTF-8" standalone="no"?>
<!DOCTYPE svg PUBLIC "-//W3C//DTD SVG 1.1//EN" "http://www.w3.org/Graphics/SVG/1.1/DTD/svg11.dtd">
<svg width="100%" height="100%" viewBox="0 0 752 705" version="1.1" xmlns="http://www.w3.org/2000/svg" xmlns:xlink="http://www.w3.org/1999/xlink" xml:space="preserve" xmlns:serif="http://www.serif.com/" style="fill-rule:evenodd;clip-rule:evenodd;stroke-linejoin:round;stroke-miterlimit:2;">
    <g transform="matrix(1,0,0,1,-204.177,-188.285)">
        <g transform="matrix(0.596927,0,0,0.596927,-406.101,-173.759)">
            <rect x="1022.37" y="606.512" width="155.009" height="1180.67" style="fill:rgb(255,0,0);"/>
            <g transform="matrix(1.11212,0,0,1.33696,972.364,-934.209)">
                <rect x="335.159" y="1152.4" width="842.216" height="883.101" style="fill:url(#_Radial1);"/>
            </g>
            <g transform="matrix(1,0,0,1,136.846,114.084)">
                <g transform="matrix(600,0,0,600,1421.15,1047.55)">
                    <path d="M0.087,0L0.087,-0.695L0.503,-0.695L0.503,-0.58L0.228,-0.58L0.228,-0.424L0.446,-0.424L0.446,-0.309L0.229,-0.309L0.229,0L0.087,0Z" style="fill:white;fill-rule:nonzero;"/>
                </g>
                <g transform="matrix(600,0,0,600,1734.34,1047.55)">
                    <rect x="0.087" y="-0.695" width="0.142" height="0.695" style="fill:white;fill-rule:nonzero;"/>
                </g>
                <g transform="matrix(600,0,0,600,1338.98,1527.55)">
                    <path d="M0.204,0L0.204,-0.576L0.013,-0.576L0.013,-0.695L0.535,-0.695L0.535,-0.576L0.345,-0.576L0.345,0L0.204,0Z" style="fill:white;fill-rule:nonzero;"/>
                </g>
                <g transform="matrix(600,0,0,600,1667.69,1527.55)">
                    <path d="M0.259,0.012C0.218,0.012 0.178,0.008 0.138,0.001C0.097,-0.007 0.069,-0.014 0.053,-0.02C0.038,-0.025 0.028,-0.029 0.024,-0.031L0.059,-0.146C0.063,-0.143 0.078,-0.138 0.103,-0.13C0.127,-0.122 0.151,-0.116 0.175,-0.112C0.198,-0.108 0.22,-0.106 0.24,-0.106C0.279,-0.106 0.309,-0.111 0.331,-0.121C0.352,-0.131 0.364,-0.143 0.369,-0.156C0.373,-0.17 0.375,-0.183 0.375,-0.195C0.375,-0.217 0.366,-0.235 0.348,-0.249C0.331,-0.263 0.309,-0.275 0.283,-0.284C0.258,-0.294 0.236,-0.302 0.217,-0.31C0.206,-0.314 0.194,-0.319 0.182,-0.324C0.169,-0.329 0.156,-0.336 0.144,-0.343C0.131,-0.35 0.119,-0.358 0.107,-0.368C0.095,-0.378 0.084,-0.389 0.075,-0.403C0.066,-0.416 0.059,-0.431 0.053,-0.448C0.048,-0.465 0.045,-0.484 0.045,-0.506C0.045,-0.537 0.051,-0.565 0.063,-0.59C0.076,-0.615 0.093,-0.636 0.116,-0.653C0.138,-0.671 0.165,-0.684 0.197,-0.693C0.228,-0.702 0.263,-0.707 0.301,-0.707C0.335,-0.707 0.368,-0.704 0.401,-0.699C0.433,-0.694 0.461,-0.688 0.484,-0.681L0.484,-0.56C0.467,-0.566 0.449,-0.571 0.43,-0.575C0.41,-0.58 0.39,-0.584 0.368,-0.587C0.346,-0.59 0.325,-0.592 0.307,-0.592C0.264,-0.592 0.233,-0.585 0.214,-0.57C0.195,-0.556 0.186,-0.537 0.186,-0.512C0.186,-0.492 0.195,-0.475 0.212,-0.462C0.23,-0.448 0.25,-0.438 0.275,-0.43C0.299,-0.422 0.32,-0.415 0.339,-0.408C0.366,-0.398 0.387,-0.389 0.403,-0.382C0.418,-0.375 0.435,-0.365 0.452,-0.352C0.469,-0.339 0.483,-0.323 0.495,-0.306C0.506,-0.288 0.514,-0.271 0.518,-0.253C0.522,-0.235 0.524,-0.216 0.524,-0.197C0.524,-0.163 0.518,-0.133 0.507,-0.107C0.495,-0.081 0.478,-0.059 0.456,-0.042C0.433,-0.024 0.405,-0.011 0.373,-0.001C0.34,0.008 0.302,0.012 0.259,0.012Z" style="fill:white;fill-rule:nonzero;"/>
                </g>
            </g>
        </g>
    </g>
    <defs>
        <radialGradient id="_Radial1" cx="0" cy="0" r="1" gradientUnits="userSpaceOnUse" gradientTransform="matrix(842.216,0,0,883.101,1022.37,1296.14)"><stop offset="0" style="stop-color:rgb(177,189,198);stop-opacity:1"/><stop offset="1" style="stop-color:rgb(101,122,143);stop-opacity:1"/></radialGradient>
    </defs>
</svg>
