<?xml version="1.0" encoding="UTF-8"?>
<svg width="142px" height="113px" viewBox="0 0 142 113" version="1.1" xmlns="http://www.w3.org/2000/svg" xmlns:xlink="http://www.w3.org/1999/xlink">
    <!-- Generator: Sketch 61.1 (89650) - https://sketch.com -->
    <title>Page 1</title>
    <desc>Created with Sketch.</desc>
    <g id="Page-1" stroke="none" stroke-width="1" fill="none" fill-rule="evenodd">
        <path d="M41.3833158,28.3591865 C42.3798609,27.8792757 43.999716,27.8812676 44.9921249,28.3591865 L76.3127342,43.4423971 C77.3092793,43.9223079 78.3176851,45.1900035 78.5627898,46.2638776 L86.2983415,80.1555439 C86.5444678,81.2338938 86.1820742,82.8126925 85.4953059,83.6738726 L63.8207718,110.852879 C63.1311412,111.717648 61.6708379,112.418682 60.5693472,112.418682 L25.8060935,112.418682 C24.7000119,112.418682 23.2414371,111.714059 22.5546689,110.852879 L0.88013477,83.6738726 C0.190504153,82.8091032 -0.168005554,81.229418 0.0770991994,80.1555439 L7.81265087,46.2638776 C8.05877718,45.1855278 9.07029765,43.920316 10.0627065,43.4423971 L41.3833158,28.3591865 Z" id="path-1" fill-opacity="0.8" fill="#66CEF5" fill-rule="nonzero"></path>
        <path d="M96.3833158,28.3591865 C97.3798609,27.8792757 98.999716,27.8812676 99.9921249,28.3591865 L131.312734,43.4423971 C132.309279,43.9223079 133.317685,45.1900035 133.56279,46.2638776 L141.298342,80.1555439 C141.544468,81.2338938 141.182074,82.8126925 140.495306,83.6738726 L118.820772,110.852879 C118.131141,111.717648 116.670838,112.418682 115.569347,112.418682 L80.8060935,112.418682 C79.7000119,112.418682 78.2414371,111.714059 77.5546689,110.852879 L55.8801348,83.6738726 C55.1905042,82.8091032 54.8319944,81.229418 55.0770992,80.1555439 L62.8126509,46.2638776 C63.0587772,45.1855278 64.0702977,43.920316 65.0627065,43.4423971 L96.3833158,28.3591865 Z" id="path-1" fill-opacity="0.8" fill="#66CEF5" fill-rule="nonzero"></path>
        <path d="M69.097559,0.476540175 C70.4243546,-0.160167387 72.5810224,-0.157524689 73.9023111,0.476540175 L115.602428,20.4877454 C116.929224,21.124453 118.271811,22.8063307 118.598142,24.2310616 L128.897221,69.1958315 C129.224912,70.6265005 128.742423,72.7211251 127.828063,73.8636705 L98.9706862,109.922616 C98.0525151,111.069924 96.1082739,112 94.6417542,112 L48.3581159,112 C46.8854839,112 44.943544,111.065162 44.0291839,109.922616 L15.1718074,73.8636705 C14.2536364,72.7163631 13.7763182,70.6205623 14.1026495,69.1958315 L24.4017279,24.2310616 C24.7294194,22.8003927 26.0761532,21.1218103 27.3974418,20.4877454 L69.097559,0.476540175 Z" id="path-1" fill-opacity="0.8" fill="#3B8ACD" fill-rule="nonzero"></path>
        <path d="M53.419034,69.3852459 C50.6764555,67.5558153 48,66.9018551 48,65.8442623 C48,64.7866695 48,62.6339177 48,61.3134777 C48.4409541,60.5757728 53.6395111,56.6967213 60.1803306,52.8606557 L72.1595843,46 L75.1727708,47.6967213 C76.7896026,48.6557377 82.3015292,51.7540984 87.3725016,54.704918 C96.7795229,61.3134777 96.7795229,59.1134832 97,61.9905324 L97,65.8442623 L90.973627,69.4590164 L84.9472539,73 L82.3015292,71.5245902 C80.8316821,70.7131148 77.9654803,69.0901639 75.9076944,67.9098361 L72.2330767,65.7704918 L66.2067036,69.2377049 C62.97304,71.1557377 59.9598535,72.704918 59.6658841,72.704918 C59.3719147,72.704918 56.2556819,71.2774253 53.419034,69.3852459 Z M65.9509434,64.7272727 C68.9679245,62.9090909 71.9113208,61.4545455 72.3528302,61.4545455 C72.8679245,61.4545455 75.8113208,62.9090909 79.0490566,64.7272727 C82.2132075,66.5454545 84.9358491,68 85.0830189,68 C85.745283,68 92,63.9272727 92,63.5636364 C92,63.2727273 87.5849057,60.5818182 82.2132075,57.5272727 L72.4264151,52 L62.7132075,57.5272727 C57.3415094,60.5818182 53,63.3454545 53,63.6363636 C53,64.2181818 58.6660377,67.7818182 59.7698113,67.9272727 C60.0641509,68 62.8603774,66.5454545 65.9509434,64.7272727 Z" id="Shape" fill="#FFFFFF" fill-rule="nonzero"></path>
        <path d="M53.9150522,79.6024096 C48.8032787,76.6385542 48.438152,76.2771084 48.219076,73.746988 L48,71 L51.8703428,73.2409639 C53.9880775,74.3975904 56.7630402,75.9879518 57.9314456,76.6385542 L60.195231,77.939759 L66.0372578,74.5421687 C69.3233979,72.7349398 72.2444113,71.2168675 72.5365127,71.2168675 C72.9016393,71.2168675 75.7496274,72.7349398 78.9627422,74.6144578 L84.804769,78.0120482 L87.0685544,76.7108434 C88.3099851,75.9879518 91.0849478,74.3975904 93.2026826,73.2409639 L97,71.0722892 L97,73.6024096 C97,76.060241 96.7078987,76.3493976 91.0119225,79.6024096 L85.023845,83 L81.3725782,80.9036145 C79.3278689,79.8192771 76.4798808,78.2289157 75.0193741,77.4337349 L72.390462,75.9879518 L66.3293592,79.3855422 C63.0432191,81.2650602 60.1222057,82.7831325 59.8301043,82.7108434 C59.6110283,82.7108434 56.9090909,81.3373494 53.9150522,79.6024096 Z" id="Path" fill-opacity="0.8" fill="#90BFE5" fill-rule="nonzero"></path>
        <path d="M53.9150522,89.6024096 C48.8032787,86.6385542 48.438152,86.2771084 48.219076,83.746988 L48,81 L51.8703428,83.2409639 C53.9880775,84.3975904 56.7630402,85.9879518 57.9314456,86.6385542 L60.195231,87.939759 L66.0372578,84.5421687 C69.3233979,82.7349398 72.2444113,81.2168675 72.5365127,81.2168675 C72.9016393,81.2168675 75.7496274,82.7349398 78.9627422,84.6144578 L84.804769,88.0120482 L87.0685544,86.7108434 C88.3099851,85.9879518 91.0849478,84.3975904 93.2026826,83.2409639 L97,81.0722892 L97,83.6024096 C97,86.060241 96.7078987,86.3493976 91.0119225,89.6024096 L85.023845,93 L81.3725782,90.9036145 C79.3278689,89.8192771 76.4798808,88.2289157 75.0193741,87.4337349 L72.390462,85.9879518 L66.3293592,89.3855422 C63.0432191,91.2650602 60.1222057,92.7831325 59.8301043,92.7108434 C59.6110283,92.7108434 56.9090909,91.3373494 53.9150522,89.6024096 Z" id="Path" fill-opacity="0.8" fill="#90BFE5" fill-rule="nonzero"></path>
    </g>
</svg>