<svg xmlns="http://www.w3.org/2000/svg" xmlns:xlink="http://www.w3.org/1999/xlink" viewBox="0 0 312 345"><defs><linearGradient id="a" x1="71.02" y1="265.31" x2="365.93" y2="265.31" gradientUnits="userSpaceOnUse"><stop offset="0.25" stop-color="#000aad"/><stop offset="0.32" stop-color="#010833"/></linearGradient><linearGradient id="b" x1="-24.1" y1="282.56" x2="164.11" y2="214.06" gradientUnits="userSpaceOnUse"><stop offset="0.03" stop-color="#000aad"/><stop offset="1" stop-color="#000664"/></linearGradient><linearGradient id="c" x1="156" y1="45.73" x2="156" y2="263.25" gradientUnits="userSpaceOnUse"><stop offset="0" stop-color="#a1ecff"/><stop offset="0.97" stop-color="#000aad"/></linearGradient></defs><path d="M14.09,217v14.65c.14,2,1.66,4.1,4.51,5.75L146.05,311c5.5,3.17,13.81,3.51,18.56.77l130.12-75.12c2.28-1.32,3.32-3.12,3.19-5V217Z" fill="url(#a)"/><path d="M294.73,222,164.61,297.1c-4.75,2.75-13.06,2.41-18.56-.76L18.6,222.75c-5.49-3.17-6.09-8-1.33-10.71l130.12-75.12c4.75-2.75,13.06-2.41,18.56.76L293.4,211.27C298.89,214.44,299.49,219.24,294.73,222Z" fill="url(#b)"/><path d="M258.3,152.66a28.92,28.92,0,0,0-5.05.45,23.52,23.52,0,0,0,.69-5.66c0-13.94-12-25.24-26.77-25.24a28.66,28.66,0,0,0-5,.45,42.81,42.81,0,0,0,.73-7.81c0-24.85-21.35-45-47.7-45-17.42,0-32.65,8.81-41,22a45.16,45.16,0,0,0-58.82,25.24,43,43,0,0,0-5.93-.42,42.51,42.51,0,0,0,0,85H262.13c14.78,0,22.93-9.81,22.93-23.76S273.08,152.66,258.3,152.66Z" fill="url(#c)"/><path d="M82.61,183.54c-12,0-17.73-7.53-17.73-18.3,0-10.35,5.59-18.35,17.73-18.35s17.68,8,17.68,18.3C100.29,175.7,94.3,183.54,82.61,183.54Zm0-29.57c-5.74,0-7.07,5.38-7.07,11.32,0,7,1.64,11.13,7.07,11.13,5.18,0,6.87-4.57,6.87-11.18C89.48,159.19,88.2,154,82.61,154Z" fill="#fff"/><path d="M121.32,170.11h-5.43V183H105.74V147.61h14.87c9.32,0,13,4.72,13,11.23C133.62,164.58,129.78,170.11,121.32,170.11Zm-5.43-15.63v9h3.33c2.31,0,4.15-1.28,4.15-4.41,0-3.33-1.89-4.56-4.4-4.56Z" fill="#fff"/><path d="M137.44,183V147.61H164v6.87H147.64v6.71h13.68V168H147.64v8h17v7Z" fill="#fff"/><path d="M193.93,168.47V147.66h9.79V183h-10.2c-3.64-5.59-7.07-11.23-10.66-16.92-.92-1.53-1.85-3.07-2.72-4.61-.1,0-.2.05-.31.05V183H170.1V147.66h10.25c3.53,5.23,6.66,10.36,10.14,15.69l3.08,5.12Z" fill="#fff"/><path d="M251.26,198.29H233V180a7.14,7.14,0,0,0-7.13-7.14h0a7.14,7.14,0,0,0-7.14,7.14v18.28H200.43a7.14,7.14,0,0,0-7.14,7.14h0a7.14,7.14,0,0,0,7.14,7.13h18.28v18.28a7.14,7.14,0,0,0,7.14,7.14h0a7.13,7.13,0,0,0,7.13-7.14V212.56h18.28a7.14,7.14,0,0,0,7.14-7.13h0A7.14,7.14,0,0,0,251.26,198.29Z" fill="#fff"/></svg>