<svg width="719.9999999999999" height="199.99999999999997" xmlns="http://www.w3.org/2000/svg" xmlns:xlink="http://www.w3.org/1999/xlink">
 <!-- Generator: Sketch 43.2 (39069) - http://www.bohemiancoding.com/sketch -->
 <title>project_background</title>
 <desc>Created with Sketch.</desc>
 <defs>
  <polygon points="44 41 44 375 781.207031 375 781.207031 41" id="path-1"/>
  <filter id="filter-2" filterUnits="objectBoundingBox" height="115.3%" width="106.9%" y="-7.0%" x="-1.8%">
   <feGaussianBlur stdDeviation="6.5"/>
  </filter>
  <polygon points="579.724774 761.808938 695.110485 -405.727005 270.592328 -395.604339 565.66087 727.52781" id="path-5"/>
  <filter id="filter-6" filterUnits="objectBoundingBox" height="101.4%" width="103.8%" y="-0.5%" x="-0.9%">
   <feGaussianBlur stdDeviation="2"/>
  </filter>
  <polygon points="553.569237 744.934866 655.956177 -428.357737 239.953758 -417.81032 535.022301 705.321829" id="path-9"/>
  <filter id="filter-10" filterUnits="objectBoundingBox" height="100.8%" width="102.4%" y="-0.2%" x="-0.6%">
   <feGaussianBlur stdDeviation="1"/>
  </filter>
  <polygon points="503.73333 711.102233 606.12027 -462.19037 190.117851 -451.642953 485.186394 671.489196" id="path-11"/>
  <filter id="filter-12" filterUnits="objectBoundingBox" height="100.9%" width="102.6%" y="-0.3%" x="-1.1%">
   <feGaussianBlur stdDeviation="1.5"/>
  </filter>
  <polygon points="439.023195 692.254072 539.120851 -453.050615 123.118433 -442.503198 167.941164 600.988447" id="path-15"/>
  <filter id="filter-16" filterUnits="objectBoundingBox" height="100.7%" width="101.9%" y="-0.2%" x="-0.5%">
   <feGaussianBlur stdDeviation="1"/>
  </filter>
  <polygon points="366.343221 676.304688 503 -469 -13 -453.847656 -3.74733611 585.039062" id="path-18"/>
  <filter id="filter-19" filterUnits="objectBoundingBox" height="101.3%" width="102.9%" y="-0.5%" x="-0.9%">
   <feGaussianBlur stdDeviation="2"/>
  </filter>
  <polygon points="766.859375 351.71875 -61 -472.015625 780.847656 -476" id="path-21"/>
  <filter id="filter-22" filterUnits="objectBoundingBox" height="107.1%" width="107.0%" y="-3.6%" x="-4.5%">
   <feGaussianBlur stdDeviation="8.5"/>
  </filter>
  <polygon points="346.027344 863.972656 -13 -137 3.625 876.472656" id="path-23"/>
  <filter id="filter-24" filterUnits="objectBoundingBox" height="101.8%" width="105.0%" y="-0.9%" x="-2.5%">
   <feGaussianBlur stdDeviation="3"/>
  </filter>
 </defs>
 <g>
  <title>background</title>
  <rect fill="none" id="canvas_background" height="402" width="582" y="-1" x="-1"/>
 </g>
 <g>
  <title>Layer 1</title>
  <g fill-rule="evenodd" fill="none" id="Page-1">
   <g id="Path-309">
    <use id="svg_1" xlink:href="#path-1" filter="url(#filter-2)" fill="#eceff1"/>
    <use id="svg_2" xlink:href="#path-1" fill-rule="evenodd" fill="#eceff1"/>
    <use id="svg_3" xlink:href="#path-1" fill-rule="evenodd" fill="#eceff1" fill-opacity="0.1"/>
   </g>
   <g transform="rotate(36 482.85137939453125,178.04095458984375) " id="Path-311-Copy-4">
    <use id="svg_4" x="0" y="0" xlink:href="#path-5" filter="url(#filter-6)" fill="#cfd8dc"/>
    <use id="svg_5" x="0" y="0" xlink:href="#path-5" fill-rule="evenodd" fill="#cfd8dc"/>
    <use id="svg_6" x="0" y="0" xlink:href="#path-5" fill-rule="evenodd" fill="#cfd8dc" fill-opacity="0.09"/>
   </g>
   <g transform="rotate(33 447.9549560546875,158.28857421875) " id="Path-311-Copy-3">
    <use id="svg_7" x="0" y="0" xlink:href="#path-9" filter="url(#filter-10)" fill="#b0bec5"/>
    <use id="svg_8" x="0" y="0" xlink:href="#path-9" fill-rule="evenodd" fill="#b0bec5"/>
   </g>
   <g transform="rotate(26 398.11907958984375,124.45593261718753) " id="Path-311-Copy-2">
    <use id="svg_9" x="0" y="0" xlink:href="#path-11" filter="url(#filter-12)" fill="#78909c"/>
    <use id="svg_10" x="0" y="0" xlink:href="#path-11" fill-rule="evenodd" fill="#78909c"/>
    <use id="svg_11" x="0" y="0" xlink:href="#path-11" fill-rule="evenodd" fill="#78909c" fill-opacity="0.02"/>
   </g>
   <g transform="rotate(5 331.1196289062499,119.6017150878906) " id="Path-311-Copy">
    <use id="svg_12" x="0" y="0" xlink:href="#path-15" filter="url(#filter-16)" fill="#546e7a"/>
    <use id="svg_13" x="0" y="0" xlink:href="#path-15" fill-rule="evenodd" fill="#546e7a"/>
   </g>
   <g id="Path-311">
    <use id="svg_14" xlink:href="#path-18" filter="url(#filter-19)" fill="#455a64"/>
    <use id="svg_15" xlink:href="#path-18" fill-rule="evenodd" fill="#455a64"/>
   </g>
   <g id="Path-308">
    <use x="98.665594" y="-10.666551" id="svg_16" xlink:href="#path-21" filter="url(#filter-22)" fill="#37474f"/>
    <use x="98.665594" y="-10.666551" id="svg_17" xlink:href="#path-21" fill-rule="evenodd" fill="#37474f"/>
   </g>
   <use id="svg_18" xlink:href="#path-23" filter="url(#filter-24)" fill="black"/>
   <use transform="matrix(1.529201865196228,0,0,1,4.057245001583226,0) " x="-3.821728" y="-0.666659" id="svg_19" xlink:href="#path-23" fill-rule="evenodd" fill="#37474f"/>
  </g>
 </g>
</svg>