<?xml version="1.0" encoding="UTF-8"?>
<svg width="460px" height="460px" viewBox="0 0 460 460" version="1.1" xmlns="http://www.w3.org/2000/svg" xmlns:xlink="http://www.w3.org/1999/xlink">
    <g id="Page-1" stroke="none" stroke-width="1" fill="none" fill-rule="evenodd">
        <g id="Globe_icon">
            <g id="Group">
                <circle id="Oval" fill="#FFFFFF" cx="230" cy="230" r="230"></circle>
                <circle id="Oval" fill="#000000" cx="230.5" cy="230.5" r="207.5"></circle>
                <circle id="Oval" fill="#FFFFFF" cx="231" cy="230" r="185"></circle>
            </g>
            <path d="M231.000014,35 L231.000014,425 M426.000014,230 L36.0000138,230 M80.0000138,110 C170.348915,174.456343 291.651113,174.456343 382.000014,110 M382.000014,350 C291.651113,285.543657 170.348915,285.543657 80.0000138,350 M216.000014,40 C159.753785,87.5012833 127.304075,157.379282 127.304075,231 C127.304075,304.620718 159.753785,374.498717 216.000014,422 M246.000014,422 C302.246243,374.498717 334.695953,304.620718 334.695953,231 C334.695953,157.379282 302.246243,87.5012833 246.000014,40" id="Shape" stroke="#000000" stroke-width="18"></path>
            <g id="Text" transform="translate(88.000000, 173.000000)">
                <rect id="Rectangle" fill="#FFFFFF" x="0" y="0" width="286" height="115" rx="8"></rect>
                <text id="DDNS" fill="#000000" fill-rule="nonzero" font-family="Helvetica-Bold, Helvetica" font-size="96" font-weight="bold">
                    <tspan x="7" y="93">DDNS</tspan>
                </text>
            </g>
        </g>
    </g>
</svg>
