<?xml version="1.0" encoding="utf-8"?>
<!-- Generator: Adobe Illustrator 21.0.0, SVG Export Plug-In . SVG Version: 6.00 Build 0)  -->
<svg version="1.1" id="Layer_1" xmlns="http://www.w3.org/2000/svg" xmlns:xlink="http://www.w3.org/1999/xlink" x="0px" y="0px"
	 viewBox="0 0 187.3 41.8" style="enable-background:new 0 0 187.3 41.8;" xml:space="preserve">
<style type="text/css">
	.st0{fill:#FFFFFF;}
	.st1{fill:#066AA5;}
	.st2{fill:none;stroke:#000000;stroke-width:2.1213;stroke-miterlimit:10;}
	.st3{fill:#FF8200;}
	.st4{fill:#666666;}
	.st5{fill-rule:evenodd;clip-rule:evenodd;fill:#666666;}
	.st6{fill:#EBEBEB;}
	.st7{fill:none;stroke:#066AA5;stroke-width:2;stroke-miterlimit:10;}
	.st8{fill:none;}
	.st9{fill:#808080;}
	.st10{fill:none;stroke:#FFFFFF;stroke-width:2;stroke-miterlimit:10;}
	.st11{fill:none;stroke:#FF8200;stroke-width:2;stroke-miterlimit:10;}
	.st12{fill:#333333;}
	.st13{fill:none;stroke:#FFFFFF;}
	.st14{fill:#4C4C4C;}
	.st15{fill:none;stroke:#FFFFFF;stroke-width:4;stroke-linecap:round;stroke-linejoin:round;stroke-miterlimit:10;}
</style>
<rect x="-1977.6" y="1830.4" class="st0" width="1850" height="454"/>
<image style="overflow:visible;" width="8965" height="3474" xlink:href="Images/Homepage_574544962 Blue.jpg"  transform="matrix(0.2064 0 0 0.2078 -1977.5706 120.3943)">
</image>
<polygon points="-1463.8,189.6 -1468,189.6 -1468.1,190.1 -1466.4,190.1 -1468.4,196.4 -1467.7,196.4 -1465.7,190.1 -1464,190.1 "/>
<polygon points="-1461.8,195.5 -1458.1,189.6 -1456.9,189.6 -1456.9,189.6 -1459.1,196.4 -1459.8,196.4 -1457.8,190.2 
	-1461.7,196.4 -1462.4,196.4 -1462.4,190.2 -1464.4,196.4 -1465,196.4 -1462.9,189.8 -1462.9,189.6 -1461.8,189.6 "/>
<path class="st1" d="M-1625.2,181.4h-7.1c0,0-2,5.6-2.3,6.4c-0.6,1.7-1,3.3-0.8,4.5c0.3,2.6,2.6,4.1,5.3,4.1h12.2
	c1.4,0,2.8-0.4,4.3-1.7c1.2-0.9,1.9-2.8,2.7-5.4c0.2-0.7,2.3-7.4,2.6-8.4c1-3.4-0.8-5.8-4.3-7.3c-3.5-1.5-6.6-2.7-7.2-3
	c-0.6-0.3-1.2-1.2-0.8-2.5c0.4-1.3,1-2.7,1.2-3.1c0.2-0.4,0.5-1.5,2-1.5h4.7c0.4,0,1.6,0.4,1,2.4c-0.6,2-1.1,3.7-1.1,3.7h8.1
	c0,0,1.9-6.1,2.3-7.5c0.4-1.5,0.5-3.5-0.2-4.6c-0.9-1.4-2.8-2.4-5.2-2.4h-10.9c-1.7,0-3.5,0.5-4.8,1.7c-1,0.9-1.7,2.1-2.2,3.8
	c-0.9,2.9-1.9,5.9-2.8,8.8c-0.9,2.9-0.7,5.4,2.7,7c3.4,1.5,6,2.6,6.9,3.1c0.9,0.4,2.3,1.4,1.6,4c0,0-0.5,1.8-0.9,2.9
	c-0.4,1.1-1.2,1.8-2.5,1.8c-1.3,0-3.8,0-4.7,0c-0.8,0-1.6-0.6-1.2-1.7C-1626.4,185.2-1625.2,181.4-1625.2,181.4"/>
<polygon points="-1562.2,196.3 -1554.9,196.3 -1542.4,155.5 -1549.5,155.5 "/>
<polygon class="st1" points="-1526.3,196.3 -1518.1,196.3 -1510.3,170.7 -1510,170.5 -1511.4,196.3 -1503.6,196.3 -1488.5,170.7 
	-1488.3,170.8 -1496.7,196.3 -1488,196.3 -1475.2,155.5 -1487.7,155.5 -1503.6,183.3 -1501.6,155.5 -1513.4,155.5 "/>
<path class="st1" d="M-1453.3,155.5h-17.4h-0.2l-12.8,40.7h9l4.6-15.3h11.6c3.3,0,4.8-1.9,5.4-3.6c1.2-3.5,3.6-11.2,4.7-14.7
	C-1447.4,159.2-1449.4,155.5-1453.3,155.5 M-1457.7,165.6c-0.5,1.6-1.7,5.5-2,6.3c-0.2,0.7-0.5,1.2-1.5,1.2c-1,0-6.3,0-6.3,0l3-9.7
	h5.7C-1458,163.4-1457.2,163.9-1457.7,165.6"/>
<path d="M-1601.8,172.5c-1.8,2-3.4,5.2-4.7,9.7c-0.8,2.8-1.4,5.1-1.5,6.8c0,0.4,0,0.8,0,1.1c0,2,0.5,3.5,1.5,4.6
	c1.3,1.4,3.7,2.1,6.9,2.1c7.7,0,12-3,14.1-9.8l0.1-0.4h-8.1l-0.1,0.2c-1.2,3.8-2.6,4.6-4.6,4.6c-0.6,0-1.1-0.2-1.4-0.5
	c-0.4-0.4-0.5-1.1-0.4-2c0.1-1.4,0.7-3.7,1.7-7c0.9-3.1,1.7-5.1,2.4-6.2c0.8-1.3,1.9-2,3.3-2c1.6,0,2.3,1,2.3,1.6
	c0,0.7-0.1,1.1-0.4,1.8l-0.3,0.9l0.4,0h7.7l0.1-0.2c0.3-1,0.3-1.1,0.4-2.1c0.2-2.1-0.3-3.8-1.4-5c-1.4-1.5-3.9-2.3-7.3-2.3
	C-1595.8,168.3-1599.3,169.7-1601.8,172.5"/>
<path d="M-1580.5,177.6l-0.1,0.4h7.9l0.2-0.8c0.3-1.1,0.7-2.4,1-2.8c0.6-0.8,1.4-1.1,2.5-1.1c0.8,0,1.3,0.2,1.6,0.5
	c0.2,0.2,0.3,0.6,0.3,1c0,0.1,0,0.2,0,0.3c0,0.4-0.2,1.1-0.4,1.8c0,0-0.7,2.7-0.8,3.1c-4,0-6.8,0.3-9.1,1.3c-1.5,0.6-5.2,2.5-6.5,7
	c-0.4,1.2-0.5,2.1-0.6,3c-0.1,1.3,0.1,3.1,1.3,4.4c0.8,0.9,2,1.3,3.5,1.3c3.2,0,5.7-1.2,7.9-3.5c0,0.3,0,0.5,0,0.9
	c0,1.1,0.3,2.1,0.3,2.1h7.3c0,0-0.1-0.3-0.2-0.9c-0.3-1.8,0.1-2.8,0.5-4.1l4-13.5c0.4-1.3,0.6-2.4,0.7-3.3c0.1-1.6-0.3-2.9-1.2-3.9
	c-1.4-1.5-4-2.3-7.8-2.3C-1574.4,168.3-1578.8,171.6-1580.5,177.6 M-1574,185.3c0.9-0.4,1.9-0.5,3.7-0.5c0,0,0.3,0,0.6,0
	c-0.8,2.7-1.1,3.3-1.4,3.9c-1.1,2.2-2.4,3.2-4.2,3.2c-0.6,0-1-0.2-1.3-0.5c-0.3-0.3-0.4-0.7-0.4-1.3c0-0.1,0-0.2,0-0.3
	C-1576.8,187.1-1575,185.7-1574,185.3"/>
<path d="M-1542.7,172.4c-1.8,2-3.4,5.2-4.7,9.6c-0.8,2.8-1.4,5.1-1.5,6.8c0,0.4-0.1,0.8-0.1,1.1c0,2,0.5,3.5,1.5,4.6
	c1.3,1.4,3.7,2.1,7,2.1c3.3,0,6.2-0.8,8.6-2.5c2.4-1.7,4.2-4.1,5.3-7.3l0.1-0.4h-7.7l-0.1,0.2c-0.9,2.9-2.5,4.5-4.6,4.5
	c-0.6,0-1.1-0.2-1.4-0.5c-0.4-0.4-0.6-1-0.6-1.9c0-0.2,0-0.4,0-0.6c0.1-1,0.4-2.5,1-4.4h14.3l0.1-0.2c1.1-3.2,1.7-5.8,1.8-7.6
	c0-0.3,0-0.7,0-1c0-1.9-0.5-3.4-1.5-4.5c-1.4-1.5-3.8-2.3-7-2.3C-1536.7,168.3-1540.3,169.7-1542.7,172.4 M-1533.6,173.5
	c0.8,0,1.3,0.2,1.7,0.6c0.3,0.3,0.5,0.8,0.5,1.5c0,0.1,0,0.3,0,0.4c-0.1,0.6-0.3,1.7-0.8,3.2h-6.2c0.5-1.6,1-2.8,1.4-3.5
	C-1536.1,174.2-1535,173.5-1533.6,173.5"/>
<polygon points="-1463.8,189.6 -1468,189.6 -1468.1,190.1 -1466.4,190.1 -1468.4,196.4 -1467.7,196.4 -1465.7,190.1 -1464,190.1 "/>
<polygon points="-1461.8,195.5 -1458.1,189.6 -1456.9,189.6 -1456.9,189.6 -1459.1,196.4 -1459.8,196.4 -1457.8,190.2 
	-1461.7,196.4 -1462.4,196.4 -1462.4,190.2 -1464.4,196.4 -1465,196.4 -1462.9,189.8 -1462.9,189.6 -1461.8,189.6 "/>
<text transform="matrix(1 0 0 1 -1174.0706 171.7419)" style="font-family:'OpenSans'; font-size:14px;">Products &amp; Solutions</text>
<text transform="matrix(1 0 0 1 -957.3025 171.7419)" style="font-family:'OpenSans'; font-size:14px;">Media-hub</text>
<text transform="matrix(1 0 0 1 -840.7102 171.7419)" style="font-family:'OpenSans'; font-size:14px;">Company Info</text>
<text transform="matrix(1 0 0 1 -694.0706 171.7419)" style="font-family:'OpenSans'; font-size:14px;">Support</text>
<g>
	<text transform="matrix(1 0 0 1 -585.0706 171.7419)" style="font-family:'OpenSans'; font-size:14px;">Ask an Expert</text>
</g>
<rect x="-597.1" y="146.4" class="st2" width="126" height="39"/>
<g>
	<rect x="-1635.1" y="699.4" class="st3" width="174.5" height="46"/>
	<text transform="matrix(1 0 0 1 -1603.0125 727.6677)" class="st0" style="font-family:'OpenSans-Semibold'; font-size:18px;">Get Started</text>
</g>
<g>
	<text transform="matrix(1 0 0 1 -1637.6418 620.6804)"><tspan x="0" y="0" class="st1" style="font-family:'OpenSans'; font-size:24px;">Scale beyond barriers.</tspan><tspan x="0" y="34" class="st1" style="font-family:'OpenSans'; font-size:24px;">Software-defined servers by ScaleMP</tspan></text>
</g>
<g>
	
		<image style="overflow:visible;opacity:0.4;" width="292" height="210" xlink:href="F323EC21.png"  transform="matrix(1 0 0 1 -1653.5706 376.3943)">
	</image>
	<g>
		<text transform="matrix(1 0 0 1 -1637.0715 437.9743)"><tspan x="0" y="0" style="font-family:'OpenSans-Semibold'; font-size:54.3374px;">Creating</tspan><tspan x="0" y="63" style="font-family:'OpenSans-Semibold'; font-size:54.3374px;">The Power</tspan><tspan x="0" y="126" style="font-family:'OpenSans-Semibold'; font-size:54.3374px;">OF One</tspan></text>
	</g>
</g>
<rect x="-1977.6" y="3331.4" class="st0" width="1850" height="275"/>
<g>
	<defs>
		<rect id="SVGID_1_" x="-1977.6" y="842.4" width="1850" height="280"/>
	</defs>
	<clipPath id="SVGID_2_">
		<use xlink:href="#SVGID_1_"  style="overflow:visible;"/>
	</clipPath>
	<g transform="matrix(1 0 0 1 -1.220703e-04 0)" style="clip-path:url(#SVGID_2_);">
		
			<image style="overflow:visible;" width="5616" height="3744" id="_x37_2019217.psd_1_" xlink:href="Images/72019217.jpg"  transform="matrix(0.3349 0 0 0.3349 -1992.5706 182.3943)">
		</image>
	</g>
</g>
<text transform="matrix(1 0 0 1 -1173.5706 171.7419)" style="font-family:'OpenSans'; font-size:14px;">Products &amp; Solutions</text>
<text transform="matrix(1 0 0 1 -956.8025 171.7419)" style="font-family:'OpenSans'; font-size:14px;">Media-hub</text>
<text transform="matrix(1 0 0 1 -840.2102 171.7419)" style="font-family:'OpenSans'; font-size:14px;">Company Info</text>
<text transform="matrix(1 0 0 1 -693.5706 171.7419)" style="font-family:'OpenSans'; font-size:14px;">Support</text>
<rect x="-1977.6" y="74.4" class="st1" width="1850" height="46"/>
<path id="XMLID_4730_" class="st0" d="M-747.3,98.6c-0.6,0-1.1-0.1-1.7-0.3c-0.3-0.1-0.6,0-0.7,0.2l-1.1,0.8c-1.2-0.7-2-1.4-2.7-2.7
	l0.8-1c0.2-0.2,0.3-0.5,0.2-0.8c-0.2-0.5-0.3-1.1-0.3-1.7c0-0.4-0.3-0.7-0.7-0.7h-1.7c-0.4,0-0.7,0.3-0.7,0.7c0,4.8,3.9,8.7,8.7,8.7
	c0.4,0,0.7-0.3,0.7-0.7v-1.7C-746.6,98.9-746.9,98.6-747.3,98.6z"/>
<g>
	<path class="st0" d="M-608.7,96.7c0.5,0.4,1.1,0.4,1.6,0l6.2-4.1c-0.2-0.1-0.4-0.2-0.6-0.2h-12.4c-0.1,0-0.3,0-0.4,0.1L-608.7,96.7
		z"/>
	<path class="st0" d="M-606.5,97.6c-0.4,0.3-0.9,0.4-1.3,0.4c-0.5,0-1-0.2-1.4-0.5l-5.7-4.3c-0.1,0.1-0.1,0.3-0.1,0.5v7.4
		c0,0.7,0.6,1.2,1.2,1.2h12.4c0.7,0,1.2-0.6,1.2-1.2v-7.4c0-0.1,0-0.2,0-0.3L-606.5,97.6z"/>
</g>
<g>
	<text transform="matrix(1 0 0 1 -738.7317 102.2196)" class="st0" style="font-family:'OpenSans'; font-size:14px;">+1-800-565-6786</text>
</g>
<text transform="matrix(1 0 0 1 -593.5168 102.2195)" class="st0" style="font-family:'OpenSans'; font-size:14px;">info@scalemp.com</text>
<g>
	<text transform="matrix(1 0 0 1 -584.5706 171.7419)" style="font-family:'OpenSans'; font-size:14px;">Ask an Expert</text>
</g>
<rect x="-596.6" y="146.4" class="st2" width="126" height="39"/>
<text transform="matrix(1 0 0 1 -38.8968 1574.0642)"><tspan x="0" y="0" class="st0" style="font-family:'OpenSans'; font-size:51.0153px;">Elements &gt; Single post &gt; PRESETS SET: LAYOUT 2</tspan><tspan x="0" y="61.2" class="st0" style="font-family:'OpenSans'; font-size:51.0153px;">Left option</tspan></text>
<text transform="matrix(1 0 0 1 -38.8968 1172.0642)"><tspan x="0" y="0" class="st0" style="font-family:'OpenSans'; font-size:51.0153px;">TITLES: </tspan><tspan x="0" y="61.2" class="st0" style="font-family:'OpenSans'; font-size:51.0153px;">home&gt;elements&gt;divider: </tspan><tspan x="0" y="122.4" class="st0" style="font-family:'OpenSans'; font-size:51.0153px;">PRESETS SET: 1 SIMPLE DIVIDER</tspan><tspan x="0" y="183.7" class="st0" style="font-family:'OpenSans'; font-size:51.0153px;">SINGLE LINE</tspan></text>
<text transform="matrix(1 0 0 1 -38.8968 438.0642)"><tspan x="0" y="0" class="st0" style="font-family:'OpenSans'; font-size:51.0153px;">Style taken partly from Business 5 template.</tspan><tspan x="0" y="61.2" class="st0" style="font-family:'OpenSans'; font-size:51.0153px;">No changing and enlarging images.</tspan></text>
<text transform="matrix(1 0 0 1 -38.8968 960.0642)" class="st0" style="font-family:'OpenSans'; font-size:51.0153px;">Business 3 template</text>
<text transform="matrix(1 0 0 1 -38.8968 2055.0642)"><tspan x="0" y="0" class="st0" style="font-family:'OpenSans'; font-size:51.0153px;">Business 3 template</tspan><tspan x="0" y="61.2" class="st0" style="font-family:'OpenSans'; font-size:51.0153px;">(No body text)</tspan></text>
<text transform="matrix(1 0 0 1 -38.8968 2611.0642)" class="st0" style="font-family:'OpenSans'; font-size:51.0153px;">Business 3 template</text>
<text transform="matrix(1 0 0 1 -38.8968 3098.0642)" class="st0" style="font-family:'OpenSans'; font-size:51.0153px;">Business 3 template</text>
<text transform="matrix(1 0 0 1 -38.8968 3478.0642)" class="st0" style="font-family:'OpenSans'; font-size:51.0153px;">Business 3 template</text>
<text transform="matrix(1 0 0 1 -38.8968 3869.0642)" class="st0" style="font-family:'OpenSans'; font-size:51.0153px;">Business 3 template</text>
<g>
	<defs>
		<rect id="SVGID_3_" x="-1977.6" y="2864.4" width="1850" height="467"/>
	</defs>
	<clipPath id="SVGID_4_">
		<use xlink:href="#SVGID_3_"  style="overflow:visible;"/>
	</clipPath>
	<g style="clip-path:url(#SVGID_4_);">
		
			<image style="overflow:visible;" width="5616" height="3744" id="_x37_2019217.psd" xlink:href="Images/72019217.jpg"  transform="matrix(0.3356 0 0 0.3356 -1995.205 2236.345)">
		</image>
	</g>
</g>
<rect x="-1440.6" y="3053.9" class="st8" width="776" height="142"/>
<text transform="matrix(1 0 0 1 -1423.9807 3066.0544)"><tspan x="0" y="0" class="st0" style="font-family:'OpenSans-Italic'; font-size:16px;">“vSMP ServerOne provides us with unprecedented fexibility in our cloud infrastructure, which is incredibly </tspan><tspan x="-15.5" y="25" class="st0" style="font-family:'OpenSans-Italic'; font-size:16px;">valuable for the types of projects we are working on that often have very wide-ranging needs. Using traditional </tspan><tspan x="-10.8" y="50" class="st0" style="font-family:'OpenSans-Italic'; font-size:16px;">servers or virtualization we are only able to partition our physical systems to accommodate small workloads. </tspan><tspan x="-8.9" y="75" class="st0" style="font-family:'OpenSans-Italic'; font-size:16px;">Now, using vSMP ServerOne for Cloud, we have the fexibility to dynamically aggregate those same servers to </tspan><tspan x="104.1" y="100" class="st0" style="font-family:'OpenSans-Italic'; font-size:16px;">create private on-demand virtual SMP systems for demanding applications.”</tspan></text>
<text transform="matrix(1 0 0 1 -1253.2644 3222.2966)" class="st0" style="font-family:'OpenSans'; font-size:18px;">— Greg Keller, principal of R Systems, Inc.</text>
<g>
	<rect x="-1505.1" y="959.9" class="st8" width="903" height="53.5"/>
	<text transform="matrix(1 0 0 1 -1445.0491 972.6746)"><tspan x="0" y="0" class="st0" style="font-family:'OpenSans'; font-size:18px;">Thousands of organizations benefit from higher performance, flexible, cost-effective </tspan><tspan x="61.8" y="28" class="st0" style="font-family:'OpenSans'; font-size:18px;">software-defined server and memory solutions from ScaleMP. Join them. </tspan></text>
</g>
<g>
	<g>
		<path class="st4" d="M-1086,3496.6L-1086,3496.6 M-1063.2,3487c17.9,0,32.4,14.6,32.4,32.5c0,17.9-14.6,32.4-32.5,32.4
			c-17.9,0-32.4-14.6-32.4-32.5C-1095.6,3501.5-1081.1,3487-1063.2,3487 M-1040.3,3496.7L-1040.3,3496.7 M-1063.2,3490.5
			c-8,0-15.2,3.2-20.5,8.5c-5.2,5.2-8.5,12.5-8.5,20.5c0,8,3.2,15.2,8.5,20.5c5.2,5.2,12.5,8.5,20.5,8.5c8,0,15.2-3.2,20.5-8.5
			c5.2-5.2,8.5-12.5,8.5-20.5c0-8-3.2-15.2-8.5-20.5C-1047.9,3493.8-1055.2,3490.5-1063.2,3490.5"/>
	</g>
	<g>
		<path class="st4" d="M-1043.3,3522.2l4.9,0l0,4.1l-9.7,0l0-14l4.9,0L-1043.3,3522.2z M-1059.2,3521.4l-8,6.3l-7.3-5.8
			c-1.1,2.5-3.6,4.3-6.6,4.3l-6.3,0l0-14l6.3,0c3.3,0,5.7,2.1,6.5,4.3l7.3-5.8l2.7,2.1l-6.7,5.3l1.3,1l6.7-5.3l2.7,2.1l-6.7,5.3
			l1.3,1l6.7-5.3l0-4.8l4.9,0l0,9.9l4.9,0l0,4.1l-9.7,0L-1059.2,3521.4z M-1078.6,3519.2c0-1.9-1.2-3-3-3l-1.1,0l0,5.9h1.1
			C-1080,3522.2-1078.6,3521.3-1078.6,3519.2"/>
	</g>
</g>
<g>
	<path class="st5" d="M-893.2,3517.4c0,2,1.6,3.7,3.7,3.7h30l0,0c1.5,0,2.8,1.2,2.8,2.7c0,1.5-1.3,2.8-2.8,2.8h0.1l-30.2-0.1
		c-5.2,0-9.3-4.1-9.3-9.3v0.6c0-5.1,4.2-9.3,9.3-9.3h30.2l0,0c1.5,0,2.8,1.2,2.8,2.7c0,1.5-1.2,2.8-2.7,2.8h-0.1h-29.9
		C-891.5,3513.7-893.1,3515.3-893.2,3517.4L-893.2,3517.4L-893.2,3517.4z"/>
	<path class="st5" d="M-815.1,3520.2c1.5-1.3,2.5-3.2,2.5-5.4c0-3.9-3.2-7.1-7.1-7.1v0.1c-0.2,0-0.4-0.1-0.6-0.1h-32
		c-1.5,0-2.6,1.2-2.6,2.7v13.8c0,1.5,1.1,2.7,2.6,2.7c1.5,0,2.7-1.1,2.7-2.7v-2.3h29.2c0.1,0.3,0.2,0.6,0.6,0.9l2.6,2.7
		c1,1.1,2.7,1.1,3.7,0.1c1.1-1.1,1.1-2.7,0.1-3.7L-815.1,3520.2L-815.1,3520.2z M-820.6,3516.6h-29v-3.5h29h0.2
		c0.9,0,1.7,0.8,1.7,1.7c0,1-0.8,1.8-1.7,1.8H-820.6L-820.6,3516.6z"/>
	<path class="st5" d="M-732.8,3508.8c-0.6-1.4-2.1-1.9-3.4-1.4l-17.3,7.2l-18.2-7.1c-1.3-0.6-2.8,0.2-3.4,1.5
		c-0.6,1.4,0.2,2.9,1.5,3.5l17.5,6.9l-0.1,4.1c0,1.5,1.2,2.7,2.7,2.7s2.7-1.1,2.7-2.7v-4.2l16.7-7
		C-732.8,3511.8-732.3,3510.2-732.8,3508.8L-732.8,3508.8z"/>
	<path class="st5" d="M-766.3,3521.3l-20.2-13.2c-0.6-0.7-1.6-0.9-2.5-0.7l0,0c-0.1,0.1-0.2,0.1-0.4,0.2c-0.2,0.1-0.4,0.2-0.6,0.3
		l-20.2,13.7c-1.2,0.8-1.5,2.4-0.7,3.7c0.8,1.2,2.4,1.5,3.7,0.7l6.3-4.2c0.1,0,0.2,0,0.4,0h24.6c0.3,0,0.6,0,0.8-0.1l6.1,4
		c1.2,0.7,2.8,0.4,3.7-0.8C-764.7,3523.7-765.1,3522-766.3,3521.3L-766.3,3521.3z M-793.3,3516.6l4.9-3.3l5.1,3.3H-793.3
		L-793.3,3516.6z"/>
</g>
<g>
	<rect x="-640.6" y="3489.1" class="st4" width="144" height="48"/>
	<g>
		<path class="st0" d="M-577.8,3505.2c-2.1,0-4.5,1-6,3l0,0l0,0l0-2.6h-5.1v18.5h5.1v-10.5c0-1.9,1.5-3.9,4.2-3.9
			c2.1,0,4.3,1.5,4.3,3.9v10.5h5.1v-11.5C-570.3,3508.3-573.4,3505.2-577.8,3505.2"/>
		<polygon class="st0" points="-534.3,3505.5 -538.9,3518.1 -543.5,3505.5 -549.2,3505.5 -541.6,3524 -536.1,3524 -528.5,3505.5 		
			"/>
		<path class="st0" d="M-594.3,3518.3c-2.1,1.6-3.4,2-5.3,2c-1.8,0-3.1-0.5-4.1-1.5l13-5.4c-0.3-2-1-3.8-2.2-5.2c-1.7-2-4.2-3-7.3-3
			c-5.6,0-9.8,4.1-9.8,9.6c0,5.6,4.2,9.5,10.3,9.5c3.4,0,6.9-1.6,8.6-3.5L-594.3,3518.3z M-604.1,3511.1c0.9-1.2,2.2-1.8,3.9-1.8
			c1.8,0,3.2,1,3.9,2.6l-8.9,3.7C-605.3,3513.6-604.9,3512.2-604.1,3511.1z"/>
		<polygon class="st0" points="-610.5,3519.4 -622.1,3519.4 -622.1,3500 -627.2,3500 -627.2,3524 -610.5,3524 		"/>
		<path class="st0" d="M-519.4,3524.3c-5.5,0-9.9-4.1-9.9-9.5c0-5.4,4.4-9.5,10-9.5c5.5,0,9.9,4.1,9.9,9.5
			C-509.4,3520.1-513.8,3524.3-519.4,3524.3 M-519.4,3509.6c-2.8,0-4.9,2.1-4.9,5.2c0,2.9,2.2,5.2,5,5.2c2.8,0,4.9-2.2,4.9-5.2
			C-514.4,3511.9-516.6,3509.6-519.4,3509.6"/>
		<path class="st0" d="M-558.4,3524.3c-5.5,0-9.9-4.1-9.9-9.5c0-5.4,4.4-9.5,10-9.5c5.5,0,9.9,4.1,9.9,9.5
			C-548.5,3520.1-552.8,3524.3-558.4,3524.3 M-558.4,3509.6c-2.8,0-4.9,2.1-4.9,5.2c0,2.9,2.2,5.2,5,5.2c2.8,0,4.9-2.2,4.9-5.2
			C-553.5,3511.9-555.7,3509.6-558.4,3509.6"/>
		<g>
			<path class="st0" d="M-508.7,3521.8h-0.8v-0.5h2.2v0.5h-0.8v2.2h-0.5V3521.8z M-506.8,3521.4h0.5l0.8,1.3l0.8-1.3h0.5v2.7h-0.5
				v-1.9l-0.8,1.3h-0.1l-0.8-1.3v1.9h-0.5V3521.4z"/>
		</g>
	</g>
</g>
<g>
	<path class="st5" d="M-1607.7,3521.9v2.7c0,4.7,1.9,8.9,3.8,11.7c2.1,3.2,5,5.1,8.3,7.2c2.6,1.6,7.8,3.4,11.3,4.1
		c4.3,0.9,8.7,1.5,13.9,1.5h2.6c16,0,32.4-4.7,42.8-10.2v-7.6c-2.8,1.5-6.3,3.5-9.6,4.5c-0.7,0.2-1.8,0.7-2.5,1
		c-0.9,0.3-1.8,0.5-2.7,0.9c-1.3,0.5-4,1.2-5.5,1.6c-1.9,0.4-3.7,0.9-5.7,1.3c-2.1,0.4-3.9,0.6-6,1c-2,0.3-4.3,0.5-6.4,0.6
		c-2.2,0.2-4.5,0.2-6.9,0.2h-0.5c-8.5,0-16.6-1.3-22.3-4.2c-5.5-2.7-10.6-7.8-10.6-15.9v-0.7c0-3.8,1.2-6.8,2.3-9.5
		c0.5-1.2,1.4-2.8,2.1-3.8c0.4-0.7,0.8-1.1,1.2-1.7c0.4-0.6,1-1.1,1.4-1.6v-2.7c-1.3,0.9-2.7,2.6-3.8,3.8c-1.3,1.3-2.2,2.8-3.3,4.4
		C-1605.5,3512.7-1607.7,3518.1-1607.7,3521.9L-1607.7,3521.9z"/>
	<path class="st5" d="M-1508,3507.6v-2.4c0,0-0.4-2.7-0.4-3c-0.2-0.9-0.5-2-0.8-2.7c-0.8-1.8-1.4-3.1-2.5-4.6
		c-2.1-2.7-4.5-4.7-7.6-6.4c-5.7-3.1-14.3-5-23.1-5h-0.7c-9.1,0-16.6,1.5-23.7,3.5c-1.9,0.5-3.4,1.1-5.2,1.7
		c-1.4,0.5-3.6,1.3-4.9,1.9c-1.6,0.8-3.1,1.4-4.6,2.2c-0.8,0.4-3.9,2.3-4.4,2.4v2c0.7-0.2,3.2-1.6,4.2-2c1.3-0.6,3-1.4,4.4-1.8
		c0.6-0.2,1.6-0.6,2.2-0.8c0.7-0.3,1.5-0.5,2.3-0.8c1.5-0.5,3.2-1.1,4.8-1.5c3.4-0.9,6.4-1.6,10.2-2.2c3.2-0.6,7.7-1.1,11.2-1.1h3.7
		c7.3,0,15.2,1.7,19.8,4.3c2.8,1.6,4.7,2.9,6.7,5.4c1.5,1.9,3.3,5.5,3.3,8.8v1.4c0,3.4-1.8,7.2-3.3,9.2c-0.9,1.2-1.8,2.3-2.9,3.3
		c-0.5,0.5-3.1,2.5-3.7,2.6v5.5c1.2-0.1,4.7-2.4,5.6-3c1.7-1.2,3.2-2.7,4.4-4.3c1.4-1.8,2.2-3.2,3.3-5.4c0.5-1,0.8-2.1,1.1-3.2
		C-1508.5,3510.9-1508,3507.6-1508,3507.6L-1508,3507.6z"/>
	<path class="st5" d="M-1552.8,3516.8v1c0,5.7,3.5,9.9,9.2,9.9h1.1c1.7,0,3-0.4,4.2-0.9c1.3-0.6,2-1.5,3-2.2l-3.3-3.1
		c-0.6,1-2.4,1.9-4.1,1.9h-0.9c-2.2,0-4.2-1.8-4.2-3.9v-0.6h13v-2.2c0-2.6-0.9-5.2-2.1-6.7c-1.1-1.4-3.3-3.1-5.8-3.1h-1.6
		c-2.6,0-5,1.6-6.3,3.1C-1551.7,3511.3-1552.8,3514.1-1552.8,3516.8L-1552.8,3516.8z M-1547.6,3514.8v0.6h7.8v-0.4
		c0-2.1-1.5-3.9-3.7-3.9h-0.4C-1545.8,3511.1-1547.6,3512.9-1547.6,3514.8L-1547.6,3514.8z"/>
	<path class="st5" d="M-1583.4,3527.3h5.1v-16h4.6c1,0,1.8,0.8,1.8,1.7v14.3h5.1v-14.2c0-3.4-2.3-6-5.6-6h-11V3527.3L-1583.4,3527.3
		z"/>
	<path class="st5" d="M-1563.1,3521.4c0,3.4,2.2,6,5.6,6h3.5v-4.3h-2.6c-0.8,0-1.3-0.9-1.3-1.7v-10h3.9v-4.2h-3.9v-5.6h-5.1V3521.4
		L-1563.1,3521.4z"/>
	<path class="st5" d="M-1531.7,3522.4c0,1.4,0.8,2.6,1.6,3.3c0.4,0.4,1,0.7,1.6,0.9c0.8,0.3,1.2,0.3,2,0.5v-28.4h-5.1V3522.4
		L-1531.7,3522.4z"/>
	<path class="st5" d="M-1593.2,3511.9l0,10c0,3.4,2,5.6,5.2,5.6v-20.4l-5.1,0L-1593.2,3511.9L-1593.2,3511.9z"/>
	<polygon class="st5" points="-1593.1,3504.3 -1588,3504.3 -1588,3499.4 -1593.1,3499.4 -1593.1,3504.3 	"/>
	<path class="st5" d="M-1521,3498.7c0.3,0,0.7,0.1,1,0.3c0.3,0.2,0.6,0.4,0.8,0.8c0.2,0.3,0.3,0.7,0.3,1c0,0.4-0.1,0.7-0.3,1
		c-0.2,0.3-0.4,0.6-0.8,0.8c-0.3,0.2-0.7,0.3-1,0.3c-0.4,0-0.7-0.1-1-0.3c-0.3-0.2-0.6-0.4-0.8-0.8c-0.2-0.3-0.3-0.7-0.3-1
		c0-0.4,0.1-0.7,0.3-1c0.2-0.3,0.4-0.6,0.8-0.8C-1521.7,3498.8-1521.3,3498.7-1521,3498.7L-1521,3498.7z M-1521,3499.1
		c-0.3,0-0.6,0.1-0.8,0.2c-0.3,0.1-0.5,0.4-0.6,0.6c-0.2,0.3-0.2,0.6-0.2,0.9c0,0.3,0.1,0.6,0.2,0.9c0.2,0.3,0.4,0.5,0.6,0.6
		c0.3,0.2,0.6,0.2,0.9,0.2s0.6-0.1,0.9-0.2c0.3-0.2,0.5-0.4,0.6-0.6c0.2-0.3,0.2-0.6,0.2-0.9c0-0.3-0.1-0.6-0.2-0.9
		c-0.2-0.3-0.4-0.5-0.6-0.6C-1520.4,3499.2-1520.7,3499.1-1521,3499.1L-1521,3499.1z M-1521.9,3501.9v-2.2h0.8c0.3,0,0.4,0,0.6,0.1
		c0.1,0,0.2,0.1,0.3,0.2c0.1,0.1,0.1,0.2,0.1,0.3c0,0.2-0.1,0.3-0.2,0.4c-0.1,0.1-0.3,0.2-0.5,0.2c0.1,0,0.1,0.1,0.2,0.1
		c0.1,0.1,0.2,0.2,0.3,0.4l0.3,0.4h-0.4l-0.2-0.3c-0.2-0.3-0.3-0.4-0.4-0.5c-0.1-0.1-0.2-0.1-0.3-0.1h-0.2v0.9H-1521.9
		L-1521.9,3501.9z M-1521.5,3500.7h0.4c0.2,0,0.3,0,0.4-0.1c0.1-0.1,0.1-0.1,0.1-0.2c0-0.1,0-0.1-0.1-0.2c0-0.1-0.1-0.1-0.2-0.1
		c-0.1,0-0.2,0-0.4,0h-0.4V3500.7L-1521.5,3500.7z"/>
</g>
<g>
	<text transform="matrix(1 0 0 1 -1591.3049 1952.8113)" style="font-family:'OpenSans'; font-size:20px;">Shared Memory</text>
	<text transform="matrix(1 0 0 1 -1591.3049 2062.8113)" style="font-family:'OpenSans'; font-size:20px;">Single System</text>
	<text transform="matrix(1 0 0 1 -1591.3049 2172.8113)" style="font-family:'OpenSans'; font-size:20px;">On-Demand SMP</text>
	<g>
		<g>
			<circle class="st1" cx="-1633.1" cy="2170.4" r="4"/>
		</g>
		<g>
			<path class="st1" d="M-1617.4,2164.5c-1.3-5.8-6.5-10.1-12.7-10.1c-7.2,0-13,5.8-13,13s5.8,13,13,13c6.2,0,11.3-4.3,12.7-10.1
				c1.3-0.3,2.3-1.5,2.3-2.9S-1616.1,2164.8-1617.4,2164.5z M-1630.1,2178.4c-6.1,0-11-4.9-11-11s4.9-11,11-11
				c5.1,0,9.5,3.6,10.7,8.3c-1,0.5-1.7,1.5-1.7,2.7s0.7,2.2,1.7,2.7C-1620.6,2174.8-1624.9,2178.4-1630.1,2178.4z"/>
		</g>
		<g>
			<path class="st1" d="M-1601.1,2163.4c0-1.4-0.9-2.5-2.2-2.9c-1.4-11.3-11.1-20.1-22.8-20.1c-12.7,0-23,10.3-23,23s10.3,23,23,23
				c11.7,0,21.4-8.8,22.8-20.1C-1602,2165.9-1601.1,2164.8-1601.1,2163.4z M-1626.1,2184.4c-11.6,0-21-9.4-21-21s9.4-21,21-21
				c10.6,0,19.4,8,20.8,18.3c-1.1,0.5-1.8,1.5-1.8,2.7c0,1.2,0.7,2.3,1.8,2.7C-1606.6,2176.4-1615.4,2184.4-1626.1,2184.4z"/>
		</g>
	</g>
	<g>
		<g>
			<path class="st1" d="M-1649.4,2064.4h15.3c0.7,0,1.4,0.3,2,0.8c0.2,0.2,0.4,0.3,0.7,0.3h4.7c0.2,0,0.5-0.1,0.7-0.3
				c0.5-0.5,1.3-0.8,2-0.8h15.3c0,0,0,0,0,0c0.6,0,1-0.4,1-1c0-0.3-0.1-0.6-0.3-0.7l-1-1.6v-20.7c0-2.2-1.8-4-4-4h-32
				c-2.2,0-4,1.8-4,4v20.7l-1.2,1.7c-0.2,0.3-0.2,0.7,0,1S-1649.8,2064.4-1649.4,2064.4z M-1647.1,2040.4c0-1.1,0.9-2,2-2h32
				c1.1,0,2,0.9,2,2v20h-36V2040.4z"/>
		</g>
		<g>
			<path class="st1" d="M-1606.1,2066.4h-18c-0.3,0-0.5,0.1-0.7,0.3l-0.7,0.7h-7.2l-0.7-0.7c-0.2-0.2-0.4-0.3-0.7-0.3h-18
				c-0.6,0-1,0.4-1,1v1c0,2.2,1.8,4,4,4h40c2.2,0,4-1.8,4-4v-1C-1605.1,2066.8-1605.5,2066.4-1606.1,2066.4z"/>
		</g>
	</g>
	<g>
		<g>
			<path class="st1" d="M-1628.6,1967.9c-5.8,0-9-11.9-9-23s3.2-23,9-23s9,11.9,9,23S-1622.7,1967.9-1628.6,1967.9z M-1628.6,1923.9
				c-3.3,0-7,8.6-7,21s3.7,21,7,21c3.3,0,7-8.6,7-21S-1625.3,1923.9-1628.6,1923.9z"/>
		</g>
		<g>
			<path class="st1" d="M-1614.6,1958.9c-4.9,0-11.8-2.3-18.5-6.2c-5.2-3-9.7-6.6-12.6-10c-3.1-3.7-4.1-7-2.9-9.3
				c0.7-1.1,2.2-2.5,5.9-2.5c4.9,0,11.8,2.3,18.5,6.2c5.2,3,9.7,6.6,12.6,10c3.1,3.7,4.1,7,2.9,9.3
				C-1609.3,1957.5-1610.9,1958.9-1614.6,1958.9z M-1642.6,1932.9c-2.1,0-3.6,0.5-4.2,1.5c-0.8,1.4,0.2,4,2.7,7
				c2.8,3.3,7,6.7,12,9.6c6.4,3.7,13,5.9,17.5,5.9c2.1,0,3.6-0.5,4.2-1.5c0.8-1.4-0.2-4-2.7-7c-2.8-3.3-7-6.7-12-9.6
				C-1631.5,1935.1-1638.1,1932.9-1642.6,1932.9z"/>
		</g>
		<g>
			<path class="st1" d="M-1642.6,1958.9c-3.7,0-5.3-1.4-5.9-2.5c-1.3-2.2-0.3-5.5,2.9-9.3c2.9-3.5,7.4-7,12.6-10
				c6.7-3.9,13.7-6.2,18.5-6.2c3.7,0,5.3,1.4,5.9,2.5c1.3,2.2,0.3,5.5-2.9,9.3c-2.9,3.5-7.4,7-12.6,10
				C-1630.8,1956.6-1637.7,1958.9-1642.6,1958.9z M-1614.6,1932.9c-4.5,0-11.2,2.3-17.5,5.9c-5,2.9-9.3,6.3-12,9.6
				c-2.5,3-3.5,5.6-2.7,7c0.6,1,2,1.5,4.2,1.5c4.5,0,11.2-2.3,17.5-5.9c5-2.9,9.3-6.3,12-9.6c2.5-3,3.5-5.6,2.7-7
				C-1610.9,1933.4-1612.4,1932.9-1614.6,1932.9z"/>
		</g>
		<circle class="st1" cx="-1628.6" cy="1944.9" r="5"/>
		<g>
			<circle class="st1" cx="-1623.6" cy="1927.9" r="2"/>
		</g>
		<g>
			<circle class="st1" cx="-1646.6" cy="1939.9" r="2"/>
		</g>
		<g>
			<circle class="st1" cx="-1614.6" cy="1957.9" r="2"/>
		</g>
	</g>
</g>
<g>
	<text transform="matrix(1 0 0 1 -1178.8051 1952.8113)" style="font-family:'OpenSans'; font-size:20px;">Memory Expansion</text>
	<text transform="matrix(1 0 0 1 -1178.8051 2062.8113)" style="font-family:'OpenSans'; font-size:20px;">Simplifed Cluster</text>
	<text transform="matrix(1 0 0 1 -1178.8051 2172.8113)" style="font-family:'OpenSans'; font-size:20px;">Virtual Fat Nodes</text>
	<g>
		<path class="st1" d="M-1197.6,2059.9c-1.7,0-3,1.3-3,3c0,0.7,0.2,1.3,0.6,1.8l-4.9,7.3c-0.2-0.1-0.5-0.1-0.7-0.1
			c-0.7,0-1.3,0.3-1.9,0.7l-11.2-7c0-0.2,0.1-0.4,0.1-0.6c0-0.7-0.3-1.4-0.7-1.9l3.1-5.2c0.2,0,0.4,0.1,0.6,0.1c1.7,0,3-1.3,3-3
			s-1.3-3-3-3c-0.2,0-0.4,0-0.6,0.1l-3.1-5.2c0.4-0.5,0.7-1.2,0.7-1.9c0-1.7-1.3-3-3-3c-0.2,0-0.4,0-0.6,0.1l-2-3.2
			c0.4-0.5,0.7-1.2,0.7-1.9c0-1.7-1.3-3-3-3c-1,0-1.9,0.5-2.4,1.2l-7.6-2.3c-0.1-1.6-1.4-2.9-3-2.9c-1.7,0-3,1.3-3,3s1.3,3,3,3
			c1,0,1.9-0.5,2.4-1.2l7.6,2.3c0.1,1.6,1.4,2.9,3,2.9c0.2,0,0.4,0,0.6-0.1l2,3.2c-0.4,0.5-0.7,1.2-0.7,1.9c0,1.7,1.3,3,3,3
			c0.2,0,0.4,0,0.6-0.1l3.1,5.2c-0.4,0.5-0.7,1.2-0.7,1.9s0.3,1.4,0.7,1.9l-3.1,5.2c-0.2,0-0.4-0.1-0.6-0.1c-1.7,0-3,1.3-3,3
			s1.3,3,3,3c0.7,0,1.3-0.3,1.9-0.7l11.2,7c0,0.2-0.1,0.4-0.1,0.6c0,1.7,1.3,3,3,3s3-1.3,3-3c0-0.7-0.2-1.3-0.6-1.8l4.9-7.3
			c0.2,0.1,0.5,0.1,0.7,0.1c1.7,0,3-1.3,3-3S-1195.9,2059.9-1197.6,2059.9z"/>
	</g>
	<g>
		<g>
			<g>
				<path class="st1" d="M-1220.6,2152.4h-8.5c-0.7,3-1.2,6.4-1.4,10h9.9V2152.4z"/>
			</g>
			<g>
				<path class="st1" d="M-1220.6,2150.4v-9.9c-1.2,0.1-2.3,0.2-3.4,0.4c-1.8,2.1-3.4,5.4-4.6,9.6H-1220.6z"/>
			</g>
			<g>
				<path class="st1" d="M-1215.2,2140.8c-1.1-0.2-2.2-0.3-3.4-0.4v9.9h8C-1211.8,2146.2-1213.3,2142.9-1215.2,2140.8z"/>
			</g>
			<g>
				<path class="st1" d="M-1242.5,2164.4c0.2,3.5,1.1,7,2.8,10h7.2v-1c0-0.6,0.1-1.1,0.3-1.6c0-0.1-0.1-0.2-0.1-0.3
					c-0.1-1.7-0.2-3.5-0.2-5.3c0-0.6,0-1.2,0-1.8H-1242.5z"/>
			</g>
			<g>
				<path class="st1" d="M-1218.6,2168.4h9.9c0-0.7,0.1-1.5,0.1-2.2c0-0.6,0-1.2,0-1.8h-10V2168.4z"/>
			</g>
			<g>
				<path class="st1" d="M-1218.6,2152.4v10h9.9c-0.2-3.6-0.7-7-1.4-10H-1218.6z"/>
			</g>
			<g>
				<path class="st1" d="M-1239.8,2152.4c-1.6,3-2.6,6.4-2.8,10h10.1c0.2-3.6,0.6-7,1.3-10H-1239.8z"/>
			</g>
			<g>
				<path class="st1" d="M-1199.4,2152.4h-8.6c0.7,3,1.1,6.4,1.3,10h10.1C-1196.8,2158.8-1197.8,2155.4-1199.4,2152.4z"/>
			</g>
			<g>
				<path class="st1" d="M-1232.5,2176.4h-6.1c1.2,1.8,2.6,3.4,4.3,4.8c0.2,0.1,0.4,0.2,0.6,0.2c0.1,0,0.2,0,0.3-0.1l1.1-0.4
					c0.2-0.1,0.4-0.3,0.5-0.4c0.1-0.2,0.2-0.3,0.3-0.4c0.3-0.4,0.3-1,0-1.3C-1231.9,2178-1232.3,2177.2-1232.5,2176.4z"/>
			</g>
			<g>
				<path class="st1" d="M-1206.6,2164.4c0,0.6,0,1.2,0,1.8c0,0.7-0.1,1.5-0.1,2.2h8.7c0.5,0,0.9-0.3,1-0.8c0.2-1,0.3-2.1,0.3-3.2
					H-1206.6z"/>
			</g>
			<g>
				<path class="st1" d="M-1220.6,2164.4h-10c0,0.6,0,1.2,0,1.8c0,1.1,0.1,2.1,0.1,3.2c0.8-0.6,1.8-0.9,2.9-0.9h7V2164.4z"/>
			</g>
			<g>
				<path class="st1" d="M-1208.5,2150.4h7.9c-2.8-4-6.8-7.1-11.5-8.7C-1210.7,2143.9-1209.4,2146.9-1208.5,2150.4z"/>
			</g>
			<g>
				<path class="st1" d="M-1230.7,2150.4c0.9-3.5,2.2-6.4,3.6-8.7c-4.7,1.6-8.7,4.7-11.5,8.7H-1230.7z"/>
			</g>
		</g>
		<g>
			<path class="st1" d="M-1197.6,2170.4h-30c-1.7,0-3,1.3-3,3v2c0,1.7,1.3,3,3,3h30c1.7,0,3-1.3,3-3v-2
				C-1194.6,2171.7-1195.9,2170.4-1197.6,2170.4z M-1225.6,2176.4c-0.6,0-1-0.4-1-1s0.4-1,1-1s1,0.4,1,1S-1225,2176.4-1225.6,2176.4
				z M-1199.6,2176.4h-8c-0.6,0-1-0.4-1-1s0.4-1,1-1h8c0.6,0,1,0.4,1,1S-1199,2176.4-1199.6,2176.4z"/>
		</g>
		<g>
			<path class="st1" d="M-1197.6,2180.4h-30c-1.7,0-3,1.3-3,3v2c0,1.7,1.3,3,3,3h30c1.7,0,3-1.3,3-3v-2
				C-1194.6,2181.7-1195.9,2180.4-1197.6,2180.4z M-1225.6,2186.4c-0.6,0-1-0.4-1-1s0.4-1,1-1s1,0.4,1,1S-1225,2186.4-1225.6,2186.4
				z M-1199.6,2186.4h-8c-0.6,0-1-0.4-1-1s0.4-1,1-1h8c0.6,0,1,0.4,1,1S-1199,2186.4-1199.6,2186.4z"/>
		</g>
	</g>
	<path class="st1" d="M-1207.1,1945.4c-3.2,0-6,1.4-8.1,3.5l-4.1-4.1c2-2.3,3.1-5.2,3.1-8.4c0-1-0.1-2-0.4-3h4.4c0,4.4,3.6,8,8,8
		c4.4,0,8-3.6,8-8c0-4.4-3.6-8-8-8c-3.7,0-6.8,2.6-7.7,6h-5.3l0,0c-2-4.7-6.6-8-12-8c-7.2,0-13,5.8-13,13c0,6.2,4.3,11.3,10.1,12.7
		l0.7,4.5c-2.8,0.5-4.8,3-4.8,5.9c0,3.3,2.7,6,6,6s6-2.7,6-6c0-3-2.2-5.5-5.1-5.9l-0.7-4.1c0.3,0,0.5,0,0.8,0c3.2,0,6.2-1.2,8.4-3.1
		l4.3,4.3c-1.1,1.7-1.7,3.7-1.7,5.9c0,6.1,4.9,11,11,11c6.1,0,11-4.9,11-11S-1201,1945.4-1207.1,1945.4z"/>
</g>
<g>
	<text transform="matrix(1 0 0 1 -769.3046 1952.8113)" style="font-family:'OpenSans'; font-size:20px;">Flash-Based Memory Expansion</text>
	<text transform="matrix(1 0 0 1 -769.3046 2062.8113)" style="font-family:'OpenSans'; font-size:20px;">Virtual SMP</text>
	<text transform="matrix(1 0 0 1 -769.3046 2172.8113)" style="font-family:'OpenSans'; font-size:20px;">Software-Defned Memory</text>
	<g>
		<g>
			<path class="st1" d="M-797.6,2044.4c-5.1,0-9.6,2.5-11.3,6c-0.1,0-0.2,0-0.3,0c-0.9-2.9,0.4-6.8,3.4-9.8c3.9-3.9,9.3-4.9,12-2.1
				c0.4,0.4,1,0.4,1.4,0s0.4-1,0-1.4c-3.5-3.5-10.2-2.6-14.8,2.1c-3.6,3.6-5.1,8.5-3.7,12.2c-0.1,0.1-0.1,0.1-0.2,0.2
				c-2.7-1.5-4.5-5.1-4.5-9.3c0-5.5,3.1-10,7-10c0.6,0,1-0.4,1-1s-0.4-1-1-1c-5,0-9,5.4-9,12c0,5.1,2.5,9.6,6,11.3
				c0,0.1,0,0.2,0,0.3c-2.9,0.9-6.8-0.4-9.8-3.4c-3.9-3.9-4.9-9.3-2.1-12c0.4-0.4,0.4-1,0-1.4s-1-0.4-1.4,0
				c-3.5,3.5-2.6,10.2,2.1,14.8c2.7,2.7,6.2,4.3,9.3,4.3c1,0,2-0.2,2.9-0.5c0.1,0.1,0.1,0.1,0.2,0.2c-1.5,2.7-5.1,4.5-9.3,4.5
				c-5.5,0-10-3.1-10-7c0-0.6-0.4-1-1-1s-1,0.4-1,1c0,5,5.4,9,12,9c5.1,0,9.6-2.5,11.3-6c0.1,0,0.2,0,0.3,0c0.9,2.9-0.4,6.8-3.4,9.8
				c-3.9,3.9-9.3,4.9-12,2.1c-0.4-0.4-1-0.4-1.4,0s-0.4,1,0,1.4c1.4,1.4,3.3,2.1,5.5,2.1c0.5,0,1.1,0,1.6-0.1
				c2.7-0.4,5.5-1.9,7.7-4.1c3.6-3.6,5.1-8.5,3.7-12.2c0.1-0.1,0.1-0.1,0.2-0.2c2.7,1.5,4.5,5.1,4.5,9.3c0,5.5-3.1,10-7,10
				c-0.6,0-1,0.4-1,1s0.4,1,1,1c5,0,9-5.4,9-12c0-5.1-2.5-9.6-6-11.3c0-0.1,0-0.2,0-0.3c2.9-0.9,6.8,0.4,9.8,3.4
				c3.9,3.9,4.9,9.3,2.1,12c-0.4,0.4-0.4,1,0,1.4c0.2,0.2,0.5,0.3,0.7,0.3s0.5-0.1,0.7-0.3c3.5-3.5,2.6-10.2-2.1-14.8
				c-3.6-3.6-8.5-5.1-12.2-3.7c-0.1-0.1-0.1-0.1-0.2-0.2c1.5-2.7,5.1-4.5,9.3-4.5c5.5,0,10,3.1,10,7c0,0.6,0.4,1,1,1s1-0.4,1-1
				C-785.6,2048.4-791,2044.4-797.6,2044.4z"/>
		</g>
		<g>
			<circle class="st1" cx="-792.6" cy="2051.4" r="1"/>
		</g>
		<g>
			<circle class="st1" cx="-788.6" cy="2043.4" r="1"/>
		</g>
		<g>
			<circle class="st1" cx="-800.6" cy="2041.4" r="1"/>
		</g>
		<g>
			<circle class="st1" cx="-812.6" cy="2039.4" r="1"/>
		</g>
		<g>
			<circle class="st1" cx="-818.6" cy="2035.4" r="1"/>
		</g>
		<g>
			<circle class="st1" cx="-820.6" cy="2045.4" r="1"/>
		</g>
		<g>
			<circle class="st1" cx="-824.6" cy="2055.4" r="1"/>
		</g>
		<g>
			<circle class="st1" cx="-826.6" cy="2051.4" r="1"/>
		</g>
		<g>
			<circle class="st1" cx="-812.6" cy="2063.4" r="1"/>
		</g>
		<g>
			<circle class="st1" cx="-812.6" cy="2075.4" r="1"/>
		</g>
		<g>
			<circle class="st1" cx="-796.6" cy="2062.4" r="1"/>
		</g>
		<g>
			<circle class="st1" cx="-796.6" cy="2067.4" r="1"/>
		</g>
	</g>
	<g>
		<path class="st1" d="M-818.3,2148.4c-0.4-0.3-1.1-0.3-1.4,0.2l-12.1,15.8c-0.3,0.4-0.3,0.9,0,1.2l12,16c0.2,0.3,0.5,0.4,0.8,0.4
			c0.2,0,0.4-0.1,0.6-0.2c0.4-0.3,0.5-1,0.2-1.4l-11.5-15.4l11.7-15.1C-817.8,2149.3-817.9,2148.7-818.3,2148.4z"/>
		<path class="st1" d="M-784.3,2164.3l-12-16c-0.3-0.4-1-0.5-1.4-0.2s-0.5,1-0.2,1.4l11.6,15.4l-11.6,15.4c-0.3,0.4-0.2,1.1,0.2,1.4
			c0.2,0.1,0.4,0.2,0.6,0.2c0.3,0,0.6-0.1,0.8-0.4l12-16C-784,2165.1-784,2164.7-784.3,2164.3z"/>
		<path class="st1" d="M-802.8,2141.9c-0.5-0.2-1.1,0.2-1.2,0.7l-12,42c-0.2,0.5,0.2,1.1,0.7,1.2c0.1,0,0.2,0,0.3,0
			c0.4,0,0.8-0.3,1-0.7l12-42C-802,2142.6-802.3,2142.1-802.8,2141.9z"/>
	</g>
	<g>
		<g>
			<path class="st1" d="M-803.1,1935.4h-20c-0.6,0-1-0.4-1-1c0-0.7-0.2-1.3-0.7-1.9c-0.2-0.2-0.2-0.5-0.2-0.7c0-0.3,0.2-0.5,0.4-0.7
				l3.8-3c0.4-0.3,1.1-0.3,1.4,0.2c0.6,0.7,1.4,1.1,2.3,1.1c1.7,0,3-1.3,3-3c0-0.6,0.4-1,1-1h20c0.6,0,1,0.4,1,1
				c0,0.7,0.2,1.3,0.7,1.9c0.2,0.2,0.2,0.5,0.2,0.7c0,0.3-0.2,0.5-0.4,0.7l-3.8,3c-0.4,0.3-1.1,0.3-1.4-0.2
				c-0.6-0.7-1.4-1.1-2.3-1.1c-1.7,0-3,1.3-3,3C-802.1,1934.9-802.5,1935.4-803.1,1935.4z M-822.2,1933.4h18.2c0.5-2.3,2.5-4,4.9-4
				c1.2,0,2.3,0.4,3.2,1.2l2.4-1.9c-0.2-0.4-0.4-0.8-0.5-1.3h-18.2c-0.5,2.3-2.5,4-4.9,4c-1.2,0-2.3-0.4-3.2-1.2l-2.4,1.9
				C-822.4,1932.5-822.3,1933-822.2,1933.4z"/>
		</g>
		<g>
			<path class="st1" d="M-803.1,1963.4h-20c-0.6,0-1-0.4-1-1c0-0.7-0.2-1.3-0.7-1.9c-0.2-0.2-0.2-0.5-0.2-0.7c0-0.3,0.2-0.5,0.4-0.7
				l3.8-3c0.4-0.3,1.1-0.3,1.4,0.2c0.6,0.7,1.4,1.1,2.3,1.1c1.7,0,3-1.3,3-3c0-0.6,0.4-1,1-1h20c0.6,0,1,0.4,1,1
				c0,0.7,0.2,1.3,0.7,1.9c0.2,0.2,0.2,0.5,0.2,0.7c0,0.3-0.2,0.5-0.4,0.7l-3.8,3c-0.4,0.3-1.1,0.3-1.4-0.2
				c-0.6-0.7-1.4-1.1-2.3-1.1c-1.7,0-3,1.3-3,3C-802.1,1962.9-802.5,1963.4-803.1,1963.4z M-822.2,1961.4h18.2c0.5-2.3,2.5-4,4.9-4
				c1.2,0,2.3,0.4,3.2,1.2l2.4-1.9c-0.2-0.4-0.4-0.8-0.5-1.3h-18.2c-0.5,2.3-2.5,4-4.9,4c-1.2,0-2.3-0.4-3.2-1.2l-2.4,1.9
				C-822.4,1960.5-822.3,1961-822.2,1961.4z"/>
		</g>
		<g>
			<path class="st1" d="M-793.1,1955.4h-20c-0.6,0-1-0.4-1-1c0-1.7-1.3-3-3-3c-0.6,0-1-0.4-1-1v-20c0-0.6,0.4-1,1-1c1.7,0,3-1.3,3-3
				c0-0.6,0.4-1,1-1h20c0.6,0,1,0.4,1,1c0,1.7,1.3,3,3,3c0.6,0,1,0.4,1,1v20c0,0.6-0.4,1-1,1c-1.7,0-3,1.3-3,3
				C-792.1,1954.9-792.5,1955.4-793.1,1955.4z M-812.2,1953.4h18.2c0.4-2,1.9-3.5,3.9-3.9v-18.2c-2-0.4-3.5-1.9-3.9-3.9h-18.2
				c-0.4,2-1.9,3.5-3.9,3.9v18.2C-814.1,1949.9-812.6,1951.4-812.2,1953.4z M-799.1,1939.4c-2.8,0-5-2.2-5-5s2.2-5,5-5
				c2.8,0,5,2.2,5,5S-796.3,1939.4-799.1,1939.4z M-799.1,1931.4c-1.7,0-3,1.3-3,3s1.3,3,3,3c1.7,0,3-1.3,3-3
				S-797.4,1931.4-799.1,1931.4z"/>
		</g>
		<g>
			<path class="st1" d="M-803.1,1963.4h-20c-0.6,0-1-0.4-1-1c0-1.7-1.3-3-3-3c-0.6,0-1-0.4-1-1v-20c0-0.6,0.4-1,1-1c1.7,0,3-1.3,3-3
				c0-0.6,0.4-1,1-1h20c0.6,0,1,0.4,1,1c0,1.7,1.3,3,3,3c0.6,0,1,0.4,1,1v20c0,0.6-0.4,1-1,1c-1.7,0-3,1.3-3,3
				C-802.1,1962.9-802.5,1963.4-803.1,1963.4z M-822.2,1961.4h18.2c0.4-2,1.9-3.5,3.9-3.9v-18.2c-2-0.4-3.5-1.9-3.9-3.9h-18.2
				c-0.4,2-1.9,3.5-3.9,3.9v18.2C-824.1,1957.9-822.6,1959.4-822.2,1961.4z M-817.1,1959.4c-2.8,0-5-2.2-5-5s2.2-5,5-5
				c2.8,0,5,2.2,5,5S-814.3,1959.4-817.1,1959.4z M-817.1,1951.4c-1.7,0-3,1.3-3,3s1.3,3,3,3c1.7,0,3-1.3,3-3
				S-815.4,1951.4-817.1,1951.4z"/>
		</g>
		<g>
			<circle class="st1" cx="-827.1" cy="1934.4" r="5"/>
			<circle class="st1" cx="-789.1" cy="1954.4" r="5"/>
			<circle class="st1" cx="-789.1" cy="1926.4" r="5"/>
			<circle class="st1" cx="-827.1" cy="1962.4" r="5"/>
			<circle class="st1" cx="-799.1" cy="1934.4" r="5"/>
			<circle class="st1" cx="-799.1" cy="1962.4" r="5"/>
			<circle class="st1" cx="-817.1" cy="1954.4" r="5"/>
			<circle class="st1" cx="-817.1" cy="1926.4" r="5"/>
		</g>
	</g>
</g>
<rect x="-1977.6" y="1122.4" class="st6" width="1850" height="708"/>
<line class="st7" x1="-1094.1" y1="1212.4" x2="-1011.1" y2="1212.4"/>
<polygon class="st0" points="-1273.1,1786.4 -1652.6,1786.4 -1653.1,1497.9 -1273.6,1497.9 "/>
<polygon class="st0" points="-452.1,1786.4 -831.6,1786.4 -832.1,1497.9 -452.6,1497.9 "/>
<polygon class="st0" points="-862.6,1786.4 -1242.1,1786.4 -1242.6,1497.9 -863.1,1497.9 "/>
<g>
	<rect x="-1626.6" y="1719.4" class="st1" width="106" height="38"/>
	<text transform="matrix(1 0 0 1 -1613.1335 1742.4958)" class="st0" style="font-family:'OpenSans'; font-size:14px;">Read More</text>
</g>
<text transform="matrix(1 0 0 1 -1626.5706 1541.2966)" class="st1" style="font-family:'OpenSans-Bold'; font-size:22px;">vSMP ClusterOne</text>
<rect x="-1626.6" y="1614" class="st8" width="319.9" height="87.4"/>
<text transform="matrix(1 0 0 1 -1626.5706 1623.9187)"><tspan x="0" y="0" style="fill:#595959; font-family:'OpenSans'; font-size:14px;">Reduce the management complexity and get a </tspan><tspan x="0" y="22" style="fill:#595959; font-family:'OpenSans'; font-size:14px;">super-sized workstation. vSMP ClusterOne provides </tspan><tspan x="0" y="44" style="fill:#595959; font-family:'OpenSans'; font-size:14px;">both interactive and batch use, so you can keep your </tspan><tspan x="0" y="66" style="fill:#595959; font-family:'OpenSans'; font-size:14px;">existing, simple work process. </tspan></text>
<g>
	<text transform="matrix(1 0 0 1 -1626.5706 1570.7917)" style="font-family:'OpenSans-Bold'; font-size:18px;">Plan for your frst HPC cluster</text>
</g>
<g>
	<rect x="-805.6" y="1719.4" class="st1" width="106" height="38"/>
	<text transform="matrix(1 0 0 1 -792.1335 1742.4958)" class="st0" style="font-family:'OpenSans'; font-size:14px;">Read More</text>
</g>
<text transform="matrix(1 0 0 1 -805.5706 1541.2966)" class="st1" style="font-family:'OpenSans-Bold'; font-size:22px;">vSMP MemoryOne</text>
<rect x="-805.6" y="1614" class="st8" width="319.9" height="87.4"/>
<text transform="matrix(1 0 0 1 -805.5706 1623.9187)"><tspan x="0" y="0" style="fill:#595959; font-family:'OpenSans'; font-size:14px;">Aggregates DRAM and NVM capacity into a single </tspan><tspan x="0" y="22" style="fill:#595959; font-family:'OpenSans'; font-size:14px;">memory space for use in industry-standard, x86 </tspan><tspan x="0" y="44" style="fill:#595959; font-family:'OpenSans'; font-size:14px;">servers, leveraging advanced virtual machine </tspan><tspan x="0" y="66" style="fill:#595959; font-family:'OpenSans'; font-size:14px;">technology.</tspan></text>
<g>
	<text transform="matrix(1 0 0 1 -805.5706 1570.7917)"><tspan x="0" y="0" style="font-family:'OpenSans-Bold'; font-size:18px;">Increase memory size. </tspan><tspan x="0" y="22" style="font-family:'OpenSans-Bold'; font-size:18px;">Reduce DRAM expense</tspan></text>
</g>
<g>
	<rect x="-1216.1" y="1719.4" class="st1" width="106" height="38"/>
	<text transform="matrix(1 0 0 1 -1202.6335 1742.4958)" class="st0" style="font-family:'OpenSans'; font-size:14px;">Read More</text>
</g>
<text transform="matrix(1 0 0 1 -1216.0706 1541.2966)" class="st1" style="font-family:'OpenSans-Bold'; font-size:22px;">vSMP ServerOne</text>
<rect x="-1216.1" y="1614" class="st8" width="319.9" height="87.4"/>
<text transform="matrix(1 0 0 1 -1216.0706 1623.9187)"><tspan x="0" y="0" style="fill:#595959; font-family:'OpenSans'; font-size:14px;">Aggregates multiple x86 systems into a single virtual </tspan><tspan x="0" y="22" style="fill:#595959; font-family:'OpenSans'; font-size:14px;">system, delivering an industry-standard, high-end, </tspan><tspan x="0" y="44" style="fill:#595959; font-family:'OpenSans'; font-size:14px;">shared-memory computer.</tspan></text>
<g>
	<text transform="matrix(1 0 0 1 -1216.0706 1570.7917)"><tspan x="0" y="0" style="font-family:'OpenSans-Bold'; font-size:18px;">Scale your server’s processing </tspan><tspan x="0" y="22" style="font-family:'OpenSans-Bold'; font-size:18px;">power or memory</tspan></text>
</g>
<rect x="-1618.6" y="1574.4" class="st8" width="152" height="152"/>
<g>
	<defs>
		<polygon id="SVGID_5_" points="-862.6,1499.4 -1242.1,1499.4 -1242.6,1249.4 -863.1,1249.4 		"/>
	</defs>
	<clipPath id="SVGID_6_">
		<use xlink:href="#SVGID_5_"  style="overflow:visible;"/>
	</clipPath>
	<g style="clip-path:url(#SVGID_6_);">
		
			<image style="overflow:visible;" width="6486" height="4329" xlink:href="Images/64202403 vSMP ServerOne.jpg"  transform="matrix(6.559002e-02 0 0 6.559002e-02 -1264.5706 1243.3943)">
		</image>
	</g>
</g>
<g>
	<defs>
		<polygon id="SVGID_7_" points="-452.1,1499.4 -831.6,1499.4 -832.1,1249.4 -452.6,1249.4 		"/>
	</defs>
	<clipPath id="SVGID_8_">
		<use xlink:href="#SVGID_7_"  style="overflow:visible;"/>
	</clipPath>
	<g style="clip-path:url(#SVGID_8_);">
		
			<image style="overflow:visible;" width="4804" height="3474" xlink:href="Images/4837759 vSMP MemoryOne.jpg"  transform="matrix(7.919558e-02 0 0 7.919558e-02 -831.5706 1236.3943)">
		</image>
	</g>
</g>
<g>
	<text transform="matrix(1 0 0 1 -1274.2671 1183.2966)" style="font-family:'OpenSans-Semibold'; font-size:30px;">CREATING The Power of One</text>
</g>
<line class="st7" x1="-1094.1" y1="3421.4" x2="-1011.1" y2="3421.4"/>
<g>
	<text transform="matrix(1 0 0 1 -1238.54 3392.2966)" style="font-family:'OpenSans-Semibold'; font-size:30px;">Our Business Partners</text>
</g>
<rect x="-1977.6" y="2284.4" class="st1" width="1850" height="581"/>
<g>
	<polygon class="st9" points="-1273.1,2732.4 -1652.6,2732.4 -1653.1,2432.4 -1273.6,2432.4 	"/>
	<polygon class="st0" points="-1273.1,2814.4 -1652.6,2814.4 -1653.1,2732.4 -1273.6,2732.4 	"/>
	<text transform="matrix(1 0 0 1 -1634.5706 2766.8113)"><tspan x="0" y="0" style="font-family:'OpenSans'; font-size:16px;">Comparison: Legacy SMP</tspan><tspan x="0" y="28" style="font-family:'OpenSans'; font-size:16px;">vs ScaleMP vSMP ServerOne</tspan></text>
</g>
<polygon class="st9" points="-862.6,2732.4 -1242.1,2732.4 -1242.6,2432.4 -863.1,2432.4 "/>
<polygon class="st0" points="-862.6,2814.4 -1242.1,2814.4 -1242.6,2732.4 -863.1,2732.4 "/>
<text transform="matrix(1 0 0 1 -1224.0706 2766.8113)"><tspan x="0" y="0" style="font-family:'OpenSans'; font-size:16px;">On-demand Scale-up – </tspan><tspan x="0" y="28" style="font-family:'OpenSans'; font-size:16px;">Flexible and Cost-effective</tspan></text>
<polygon class="st9" points="-451.1,2732.4 -830.6,2732.4 -831.1,2432.4 -451.6,2432.4 "/>
<polygon class="st0" points="-451.1,2814.4 -830.6,2814.4 -831.1,2732.4 -451.6,2732.4 "/>
<text transform="matrix(1 0 0 1 -812.5706 2766.8113)"><tspan x="0" y="0" style="font-family:'OpenSans'; font-size:16px;">3 ways virtualization aggregation </tspan><tspan x="0" y="28" style="font-family:'OpenSans'; font-size:16px;">can save you money</tspan></text>
<text transform="matrix(1 0 0 1 -1143.2156 2372.3542)" class="st0" style="font-family:'OpenSans-Semibold'; font-size:30px;">Blog Posts</text>
<line class="st10" x1="-1094.1" y1="2401.4" x2="-1011.1" y2="2401.4"/>
<text transform="matrix(1 0 0 1 -1272.7515 2952.3542)" class="st0" style="font-family:'OpenSans-Semibold'; font-size:30px;">From the ScaleMP Community</text>
<line class="st11" x1="-1094.1" y1="2981.4" x2="-1011.1" y2="2981.4"/>
<image style="overflow:visible;" width="341" height="148" xlink:href="Images/HP.jpg"  transform="matrix(0.5037 0 0 0.5037 -1386.5706 3478.3943)">
</image>
<rect x="-1977.6" y="3696.4" class="st12" width="1850" height="346"/>
<rect x="-1977.6" y="3606.4" width="1850" height="90"/>
<rect x="-1977.6" y="4042.4" width="1850" height="74"/>
<g>
	<polygon points="-1478.2,3653.3 -1481.9,3653.3 -1482,3653.8 -1480.4,3653.8 -1482.3,3659.4 -1481.7,3659.4 -1479.9,3653.8 
		-1478.3,3653.8 	"/>
	<polygon class="st0" points="-1476.3,3658.6 -1473,3653.3 -1472,3653.3 -1472,3653.3 -1473.9,3659.4 -1474.5,3659.4 
		-1472.8,3653.9 -1476.3,3659.4 -1476.9,3659.4 -1476.9,3653.9 -1478.6,3659.4 -1479.2,3659.4 -1477.3,3653.5 -1477.3,3653.3 
		-1476.3,3653.3 	"/>
	<path class="st1" d="M-1623.4,3645.9h-6.4c0,0-1.8,5-2.1,5.8c-0.6,1.6-0.9,2.9-0.7,4.1c0.3,2.3,2.4,3.7,4.8,3.7h11
		c1.2,0,2.5-0.4,3.9-1.5c1-0.8,1.7-2.5,2.4-4.9c0.2-0.6,2.1-6.7,2.4-7.6c0.9-3-0.7-5.2-3.9-6.6c-3.1-1.3-6-2.5-6.5-2.7
		c-0.5-0.3-1.1-1.1-0.7-2.2c0.4-1.1,0.9-2.4,1-2.8c0.2-0.4,0.5-1.4,1.8-1.4h4.2c0.4,0,1.4,0.4,0.9,2.1c-0.5,1.8-1,3.4-1,3.4h7.3
		c0,0,1.7-5.5,2-6.8c0.4-1.4,0.4-3.2-0.2-4.2c-0.8-1.3-2.5-2.1-4.7-2.1h-9.8c-1.5,0-3.1,0.5-4.4,1.5c-0.9,0.8-1.5,1.9-2,3.4
		c-0.8,2.6-1.7,5.3-2.5,7.9c-0.8,2.6-0.6,4.9,2.4,6.3c3.1,1.4,5.4,2.4,6.2,2.8c0.8,0.4,2.1,1.2,1.4,3.6c0,0-0.4,1.6-0.8,2.6
		c-0.3,1-1.1,1.6-2.2,1.6c-1.2,0-3.5,0-4.2,0c-0.7,0-1.4-0.5-1.1-1.5C-1624.5,3649.4-1623.4,3645.9-1623.4,3645.9"/>
	<polygon class="st0" points="-1566.7,3659.3 -1560.1,3659.3 -1548.8,3622.7 -1555.2,3622.7 	"/>
	<polygon class="st1" points="-1534.4,3659.3 -1527,3659.3 -1520,3636.3 -1519.7,3636.1 -1521,3659.3 -1514,3659.3 -1500.3,3636.3 
		-1500.2,3636.4 -1507.8,3659.3 -1499.9,3659.3 -1488.4,3622.7 -1499.7,3622.7 -1513.9,3647.7 -1512.2,3622.6 -1522.8,3622.6 	"/>
	<path class="st1" d="M-1468.7,3622.7h-15.7h-0.2l-11.5,36.7h8.1l4.1-13.8h10.4c3,0,4.3-1.7,4.8-3.2c1.1-3.2,3.2-10.1,4.2-13.2
		C-1463.4,3626-1465.2,3622.7-1468.7,3622.7 M-1472.7,3631.7c-0.5,1.5-1.6,5-1.8,5.7c-0.2,0.7-0.4,1.1-1.4,1.1c-0.9,0-5.7,0-5.7,0
		l2.7-8.7h5.2C-1472.9,3629.7-1472.2,3630.2-1472.7,3631.7"/>
	<path class="st0" d="M-1602.3,3637.9c-1.6,1.8-3,4.7-4.2,8.7c-0.8,2.5-1.2,4.6-1.4,6.2c0,0.4,0,0.7,0,1c0,1.8,0.5,3.1,1.3,4.1
		c1.2,1.3,3.3,1.9,6.3,1.9c6.9,0,10.8-2.7,12.7-8.8l0.1-0.3h-7.3l-0.1,0.2c-1,3.4-2.4,4.1-4.2,4.1c-0.6,0-1-0.1-1.3-0.4
		c-0.3-0.4-0.5-1-0.4-1.8c0.1-1.2,0.6-3.4,1.5-6.3c0.8-2.8,1.5-4.6,2.1-5.6c0.7-1.2,1.7-1.8,2.9-1.8c1.5,0,2,0.9,2,1.4
		c0,0.6-0.1,1-0.3,1.6l-0.3,0.8l0.4,0h6.9l0.1-0.2c0.2-0.9,0.3-1,0.3-1.9c0.2-1.9-0.3-3.4-1.3-4.5c-1.3-1.4-3.5-2.1-6.6-2.1
		C-1596.9,3634.2-1600.1,3635.4-1602.3,3637.9"/>
	<path class="st0" d="M-1583.2,3642.5l-0.1,0.3h7.1l0.2-0.8c0.3-1,0.6-2.1,0.9-2.6c0.6-0.7,1.3-1,2.3-1c0.7,0,1.2,0.2,1.5,0.5
		c0.2,0.2,0.3,0.5,0.3,0.9c0,0.1,0,0.2,0,0.2c0,0.4-0.2,1-0.4,1.7c0,0-0.7,2.4-0.8,2.8c-3.6,0-6.1,0.3-8.2,1.1
		c-1.4,0.5-4.7,2.2-5.9,6.3c-0.3,1.1-0.5,1.9-0.5,2.7c-0.1,1.2,0.1,2.8,1.2,4c0.7,0.8,1.8,1.2,3.2,1.2c2.8,0,5.2-1,7.1-3.1
		c0,0.2,0,0.5,0,0.8c0,1,0.3,1.9,0.3,1.9h6.6c0,0-0.1-0.2-0.2-0.8c-0.2-1.6,0.1-2.5,0.5-3.7l3.6-12.2c0.3-1.2,0.5-2.2,0.6-2.9
		c0.1-1.4-0.2-2.6-1-3.5c-1.2-1.4-3.6-2-7-2C-1577.6,3634.2-1581.6,3637.1-1583.2,3642.5 M-1577.3,3649.4c0.8-0.4,1.7-0.4,3.3-0.5
		c0,0,0.3,0,0.5,0c-0.7,2.4-1,3-1.3,3.5c-1,1.9-2.2,2.9-3.8,2.9c-0.5,0-0.9-0.1-1.2-0.4c-0.2-0.3-0.4-0.7-0.4-1.2c0-0.1,0-0.2,0-0.3
		C-1579.8,3651.1-1578.2,3649.8-1577.3,3649.4"/>
	<path class="st0" d="M-1549.2,3637.9c-1.6,1.8-3,4.7-4.2,8.7c-0.8,2.5-1.2,4.6-1.4,6.2c0,0.4,0,0.7,0,1c0,1.8,0.5,3.1,1.4,4.1
		c1.2,1.3,3.3,1.9,6.3,1.9c3,0,5.6-0.8,7.7-2.2c2.2-1.5,3.8-3.7,4.7-6.5l0.1-0.4h-7l-0.1,0.2c-0.8,2.6-2.3,4.1-4.2,4.1
		c-0.5,0-0.9-0.2-1.2-0.5c-0.3-0.4-0.5-0.9-0.5-1.7c0-0.2,0-0.3,0-0.5c0.1-0.9,0.4-2.2,0.9-3.9h12.8l0.1-0.2c1-2.9,1.5-5.2,1.7-6.9
		c0-0.3,0-0.6,0-0.9c0-1.7-0.5-3.1-1.4-4.1c-1.3-1.4-3.4-2.1-6.3-2.1C-1543.8,3634.2-1546.9,3635.4-1549.2,3637.9 M-1540.9,3638.9
		c0.7,0,1.2,0.2,1.5,0.5c0.3,0.3,0.4,0.7,0.4,1.3c0,0.1,0,0.2,0,0.4c-0.1,0.6-0.3,1.6-0.7,2.9h-5.6c0.4-1.4,0.9-2.5,1.3-3.2
		C-1543.2,3639.5-1542.2,3638.9-1540.9,3638.9"/>
	<polygon class="st0" points="-1478.2,3653.3 -1481.9,3653.3 -1482,3653.8 -1480.4,3653.8 -1482.3,3659.4 -1481.7,3659.4 
		-1479.9,3653.8 -1478.3,3653.8 	"/>
	<polygon class="st0" points="-1476.3,3658.6 -1473,3653.3 -1472,3653.3 -1472,3653.3 -1473.9,3659.4 -1474.5,3659.4 
		-1472.8,3653.9 -1476.3,3659.4 -1476.9,3659.4 -1476.9,3653.9 -1478.6,3659.4 -1479.2,3659.4 -1477.3,3653.5 -1477.3,3653.3 
		-1476.3,3653.3 	"/>
	<g>
		<path class="st0" d="M-1625.6,3674.8c0,0.1,0,0.2,0,0.2c0,0.1,0,0.1,0,0.2c0,0,0,0.1-0.1,0.1c0,0-0.1,0.1-0.1,0.1
			c-0.1,0.1-0.2,0.1-0.3,0.2c-0.2,0.1-0.4,0.2-0.6,0.3c-0.3,0.1-0.5,0.2-0.9,0.3c-0.3,0.1-0.7,0.1-1.1,0.1c-0.7,0-1.3-0.1-1.8-0.3
			c-0.5-0.2-1-0.6-1.4-1c-0.4-0.4-0.7-1-0.9-1.6c-0.2-0.6-0.3-1.4-0.3-2.2c0-0.9,0.1-1.6,0.3-2.3c0.2-0.7,0.5-1.3,0.9-1.7
			c0.4-0.5,0.9-0.8,1.4-1.1c0.6-0.2,1.2-0.4,1.9-0.4c0.3,0,0.6,0,0.9,0.1c0.3,0.1,0.5,0.1,0.8,0.2c0.2,0.1,0.5,0.2,0.6,0.3
			c0.2,0.1,0.3,0.2,0.4,0.3c0.1,0.1,0.1,0.1,0.1,0.2c0,0,0,0.1,0.1,0.1c0,0.1,0,0.1,0,0.2c0,0.1,0,0.2,0,0.2c0,0.1,0,0.2,0,0.3
			c0,0.1,0,0.1,0,0.2c0,0.1,0,0.1-0.1,0.1c0,0-0.1,0-0.1,0c-0.1,0-0.2-0.1-0.3-0.2c-0.1-0.1-0.3-0.2-0.5-0.3
			c-0.2-0.1-0.5-0.2-0.8-0.3c-0.3-0.1-0.7-0.2-1.1-0.2c-0.5,0-0.9,0.1-1.3,0.3c-0.4,0.2-0.7,0.5-1,0.8c-0.3,0.4-0.5,0.8-0.6,1.3
			c-0.1,0.5-0.2,1.1-0.2,1.8c0,0.7,0.1,1.2,0.2,1.8c0.1,0.5,0.3,0.9,0.6,1.3c0.3,0.3,0.6,0.6,1,0.8c0.4,0.2,0.8,0.3,1.3,0.3
			c0.4,0,0.8-0.1,1.1-0.2c0.3-0.1,0.6-0.2,0.8-0.3c0.2-0.1,0.4-0.2,0.5-0.3c0.1-0.1,0.3-0.2,0.3-0.2c0,0,0.1,0,0.1,0
			c0,0,0,0,0.1,0.1c0,0,0,0.1,0,0.2C-1625.6,3674.6-1625.6,3674.7-1625.6,3674.8z"/>
		<path class="st0" d="M-1619.9,3669.3c0,0.1,0,0.2,0,0.3c0,0.1,0,0.1,0,0.2c0,0,0,0.1-0.1,0.1c0,0-0.1,0-0.1,0s-0.1,0-0.2,0
			c-0.1,0-0.1,0-0.2-0.1c-0.1,0-0.2,0-0.3-0.1c-0.1,0-0.2,0-0.3,0c-0.1,0-0.3,0-0.4,0.1c-0.1,0.1-0.3,0.1-0.4,0.3
			c-0.1,0.1-0.3,0.3-0.4,0.5c-0.2,0.2-0.3,0.5-0.5,0.8v4.8c0,0,0,0.1,0,0.1c0,0-0.1,0.1-0.1,0.1c0,0-0.1,0-0.2,0c-0.1,0-0.2,0-0.3,0
			c-0.1,0-0.2,0-0.3,0c-0.1,0-0.2,0-0.2,0c-0.1,0-0.1,0-0.1-0.1c0,0,0-0.1,0-0.1v-7.3c0,0,0-0.1,0-0.1c0,0,0-0.1,0.1-0.1
			c0,0,0.1,0,0.2,0c0.1,0,0.2,0,0.3,0c0.1,0,0.2,0,0.3,0c0.1,0,0.1,0,0.2,0c0,0,0.1,0.1,0.1,0.1c0,0,0,0.1,0,0.1v1.1
			c0.2-0.3,0.4-0.5,0.6-0.7c0.2-0.2,0.3-0.3,0.5-0.4c0.2-0.1,0.3-0.2,0.5-0.2c0.2,0,0.3-0.1,0.5-0.1c0.1,0,0.1,0,0.2,0
			c0.1,0,0.2,0,0.3,0c0.1,0,0.2,0,0.3,0.1c0.1,0,0.1,0.1,0.2,0.1c0,0,0.1,0.1,0.1,0.1c0,0,0,0.1,0,0.1c0,0,0,0.1,0,0.2
			C-1619.9,3669.1-1619.9,3669.2-1619.9,3669.3z"/>
		<path class="st0" d="M-1612.7,3672.1c0,0.2-0.1,0.4-0.2,0.4c-0.1,0.1-0.2,0.1-0.4,0.1h-4.8c0,0.4,0,0.8,0.1,1.1
			c0.1,0.3,0.2,0.6,0.4,0.8c0.2,0.2,0.4,0.4,0.7,0.5c0.3,0.1,0.7,0.2,1.1,0.2c0.3,0,0.7,0,0.9-0.1s0.5-0.1,0.7-0.2
			c0.2-0.1,0.4-0.1,0.5-0.2c0.1-0.1,0.2-0.1,0.3-0.1c0,0,0.1,0,0.1,0c0,0,0.1,0,0.1,0.1c0,0,0,0.1,0,0.2c0,0.1,0,0.1,0,0.2
			c0,0.1,0,0.1,0,0.2c0,0.1,0,0.1,0,0.1c0,0,0,0.1,0,0.1c0,0,0,0.1-0.1,0.1c0,0-0.1,0.1-0.3,0.1c-0.1,0.1-0.3,0.1-0.6,0.2
			c-0.2,0.1-0.5,0.1-0.8,0.2c-0.3,0.1-0.6,0.1-1,0.1c-0.6,0-1.1-0.1-1.6-0.2c-0.4-0.2-0.8-0.4-1.1-0.7c-0.3-0.3-0.5-0.7-0.7-1.2
			c-0.2-0.5-0.2-1.1-0.2-1.7c0-0.6,0.1-1.2,0.2-1.7c0.2-0.5,0.4-0.9,0.7-1.3c0.3-0.3,0.7-0.6,1.1-0.8s0.9-0.3,1.4-0.3
			c0.6,0,1.1,0.1,1.5,0.3c0.4,0.2,0.7,0.4,1,0.7c0.3,0.3,0.4,0.7,0.6,1.1c0.1,0.4,0.2,0.9,0.2,1.3V3672.1z M-1614.1,3671.7
			c0-0.7-0.1-1.2-0.5-1.6c-0.3-0.4-0.8-0.6-1.5-0.6c-0.3,0-0.6,0.1-0.9,0.2c-0.2,0.1-0.5,0.3-0.6,0.5c-0.2,0.2-0.3,0.4-0.4,0.7
			c-0.1,0.3-0.1,0.6-0.2,0.9H-1614.1z"/>
		<path class="st0" d="M-1605.5,3676.1c0,0.1,0,0.1-0.1,0.1c0,0-0.1,0.1-0.2,0.1s-0.2,0-0.3,0c-0.1,0-0.3,0-0.3,0
			c-0.1,0-0.1,0-0.2-0.1c0,0-0.1-0.1-0.1-0.1v-0.7c-0.3,0.3-0.7,0.6-1.1,0.8c-0.4,0.2-0.8,0.3-1.2,0.3c-0.4,0-0.7,0-1-0.1
			c-0.3-0.1-0.6-0.2-0.8-0.4c-0.2-0.2-0.4-0.4-0.5-0.7c-0.1-0.3-0.2-0.6-0.2-0.9c0-0.4,0.1-0.8,0.2-1.1c0.2-0.3,0.4-0.6,0.7-0.8
			c0.3-0.2,0.7-0.3,1.1-0.4c0.5-0.1,1-0.1,1.5-0.1h1v-0.6c0-0.3,0-0.5-0.1-0.7c-0.1-0.2-0.2-0.4-0.3-0.5c-0.1-0.1-0.3-0.2-0.5-0.3
			c-0.2-0.1-0.5-0.1-0.8-0.1c-0.3,0-0.6,0-0.9,0.1c-0.3,0.1-0.5,0.2-0.7,0.3s-0.4,0.2-0.5,0.3c-0.1,0.1-0.2,0.1-0.3,0.1
			c0,0-0.1,0-0.1,0c0,0-0.1-0.1-0.1-0.1c0,0,0-0.1-0.1-0.2c0-0.1,0-0.1,0-0.2c0-0.1,0-0.2,0-0.3c0-0.1,0.1-0.2,0.1-0.2
			c0.1-0.1,0.2-0.2,0.4-0.2c0.2-0.1,0.4-0.2,0.6-0.3c0.2-0.1,0.5-0.1,0.8-0.2c0.3-0.1,0.6-0.1,0.8-0.1c0.5,0,1,0.1,1.3,0.2
			c0.4,0.1,0.7,0.3,0.9,0.5c0.2,0.2,0.4,0.5,0.5,0.9c0.1,0.3,0.2,0.7,0.2,1.2V3676.1z M-1606.9,3672.8h-1.1c-0.4,0-0.7,0-1,0.1
			c-0.3,0.1-0.5,0.2-0.7,0.3c-0.2,0.1-0.3,0.3-0.4,0.4c-0.1,0.2-0.1,0.4-0.1,0.6c0,0.4,0.1,0.7,0.4,0.9c0.2,0.2,0.6,0.3,1,0.3
			c0.3,0,0.7-0.1,1-0.3c0.3-0.2,0.6-0.4,0.9-0.8V3672.8z"/>
		<path class="st0" d="M-1599.8,3675.5c0,0.2,0,0.3,0,0.4c0,0.1-0.1,0.2-0.1,0.2c0,0-0.1,0.1-0.2,0.1c-0.1,0-0.2,0.1-0.3,0.1
			c-0.1,0-0.2,0-0.4,0.1s-0.2,0-0.4,0c-0.4,0-0.7,0-1-0.1c-0.3-0.1-0.5-0.2-0.7-0.5c-0.2-0.2-0.3-0.5-0.4-0.8
			c-0.1-0.3-0.1-0.7-0.1-1.1v-4.2h-1c-0.1,0-0.1,0-0.2-0.1c0-0.1-0.1-0.2-0.1-0.4c0-0.1,0-0.2,0-0.3c0-0.1,0-0.1,0.1-0.2
			c0,0,0-0.1,0.1-0.1c0,0,0.1,0,0.1,0h1v-1.7c0,0,0-0.1,0-0.1c0,0,0.1-0.1,0.1-0.1c0.1,0,0.1,0,0.2-0.1c0.1,0,0.2,0,0.3,0
			c0.1,0,0.2,0,0.3,0c0.1,0,0.2,0,0.2,0.1c0,0,0.1,0.1,0.1,0.1c0,0,0,0.1,0,0.1v1.7h1.9c0,0,0.1,0,0.1,0c0,0,0.1,0.1,0.1,0.1
			c0,0,0,0.1,0.1,0.2c0,0.1,0,0.2,0,0.3c0,0.2,0,0.3-0.1,0.4c0,0.1-0.1,0.1-0.2,0.1h-1.9v4c0,0.5,0.1,0.9,0.2,1.1s0.4,0.4,0.8,0.4
			c0.1,0,0.2,0,0.3,0c0.1,0,0.2,0,0.3-0.1c0.1,0,0.1-0.1,0.2-0.1c0.1,0,0.1,0,0.1,0c0,0,0.1,0,0.1,0c0,0,0,0,0.1,0.1
			c0,0,0,0.1,0,0.2C-1599.8,3675.4-1599.8,3675.5-1599.8,3675.5z"/>
		<path class="st0" d="M-1596.7,3666.4c0,0.3-0.1,0.5-0.2,0.6c-0.1,0.1-0.3,0.2-0.7,0.2c-0.3,0-0.5-0.1-0.6-0.2
			c-0.1-0.1-0.2-0.3-0.2-0.6c0-0.3,0.1-0.5,0.2-0.6c0.1-0.1,0.3-0.2,0.7-0.2c0.3,0,0.5,0.1,0.6,0.2
			C-1596.8,3665.9-1596.7,3666.1-1596.7,3666.4z M-1596.9,3676.1c0,0,0,0.1,0,0.1c0,0-0.1,0.1-0.1,0.1c0,0-0.1,0-0.2,0
			c-0.1,0-0.2,0-0.3,0c-0.1,0-0.2,0-0.3,0c-0.1,0-0.2,0-0.2,0c-0.1,0-0.1,0-0.1-0.1c0,0,0-0.1,0-0.1v-7.3c0,0,0-0.1,0-0.1
			c0,0,0.1-0.1,0.1-0.1c0.1,0,0.1,0,0.2,0c0.1,0,0.2,0,0.3,0c0.1,0,0.2,0,0.3,0c0.1,0,0.2,0,0.2,0c0,0,0.1,0,0.1,0.1
			c0,0,0,0.1,0,0.1V3676.1z"/>
		<path class="st0" d="M-1588.5,3676.1c0,0,0,0.1,0,0.1c0,0-0.1,0.1-0.1,0.1c0,0-0.1,0-0.2,0c-0.1,0-0.2,0-0.3,0c-0.1,0-0.2,0-0.3,0
			c-0.1,0-0.2,0-0.2,0c0,0-0.1,0-0.1-0.1c0,0,0-0.1,0-0.1v-4.2c0-0.4,0-0.7-0.1-1c-0.1-0.3-0.2-0.5-0.3-0.7
			c-0.1-0.2-0.3-0.3-0.5-0.4c-0.2-0.1-0.4-0.1-0.7-0.1c-0.3,0-0.7,0.1-1,0.4c-0.3,0.2-0.7,0.6-1,1v5.1c0,0,0,0.1,0,0.1
			c0,0-0.1,0.1-0.1,0.1c0,0-0.1,0-0.2,0c-0.1,0-0.2,0-0.3,0c-0.1,0-0.2,0-0.3,0c-0.1,0-0.2,0-0.2,0c-0.1,0-0.1,0-0.1-0.1
			c0,0,0-0.1,0-0.1v-7.3c0,0,0-0.1,0-0.1c0,0,0-0.1,0.1-0.1c0,0,0.1,0,0.2,0c0.1,0,0.2,0,0.3,0c0.1,0,0.2,0,0.3,0c0.1,0,0.1,0,0.2,0
			c0,0,0.1,0.1,0.1,0.1c0,0,0,0.1,0,0.1v1c0.4-0.5,0.8-0.8,1.2-1c0.4-0.2,0.8-0.3,1.2-0.3c0.5,0,0.9,0.1,1.2,0.2
			c0.3,0.2,0.6,0.4,0.8,0.7c0.2,0.3,0.4,0.6,0.4,1c0.1,0.4,0.1,0.8,0.1,1.3V3676.1z"/>
		<path class="st0" d="M-1580.3,3669.2c0,0.2,0,0.3-0.1,0.4c-0.1,0.1-0.1,0.1-0.2,0.1h-1c0.2,0.2,0.3,0.4,0.4,0.6
			c0.1,0.2,0.1,0.5,0.1,0.7c0,0.4-0.1,0.8-0.2,1.1c-0.1,0.3-0.3,0.6-0.6,0.8c-0.3,0.2-0.5,0.4-0.9,0.5c-0.3,0.1-0.7,0.2-1.1,0.2
			c-0.3,0-0.6,0-0.8-0.1c-0.3-0.1-0.5-0.2-0.6-0.3c-0.1,0.1-0.2,0.2-0.2,0.3c-0.1,0.1-0.1,0.3-0.1,0.4c0,0.2,0.1,0.3,0.3,0.5
			c0.2,0.1,0.4,0.2,0.7,0.2l1.9,0.1c0.4,0,0.7,0.1,1,0.1c0.3,0.1,0.6,0.2,0.8,0.4c0.2,0.2,0.4,0.4,0.5,0.6c0.1,0.2,0.2,0.5,0.2,0.8
			c0,0.3-0.1,0.7-0.2,1c-0.1,0.3-0.4,0.6-0.6,0.8c-0.3,0.2-0.7,0.4-1.1,0.5c-0.4,0.1-1,0.2-1.6,0.2c-0.6,0-1.1-0.1-1.5-0.1
			c-0.4-0.1-0.7-0.2-1-0.4c-0.3-0.2-0.5-0.4-0.6-0.6c-0.1-0.2-0.2-0.5-0.2-0.8c0-0.2,0-0.3,0.1-0.5c0-0.2,0.1-0.3,0.2-0.5
			c0.1-0.2,0.2-0.3,0.3-0.4c0.1-0.1,0.3-0.3,0.5-0.4c-0.3-0.1-0.5-0.3-0.6-0.5s-0.2-0.4-0.2-0.7c0-0.3,0.1-0.6,0.2-0.9
			c0.1-0.3,0.3-0.5,0.5-0.7c-0.2-0.2-0.3-0.4-0.4-0.7s-0.1-0.6-0.1-0.9c0-0.4,0.1-0.8,0.2-1.1c0.1-0.3,0.3-0.6,0.6-0.8
			s0.5-0.4,0.9-0.5c0.3-0.1,0.7-0.2,1.1-0.2c0.2,0,0.4,0,0.6,0c0.2,0,0.4,0.1,0.5,0.1h2.2c0.1,0,0.2,0,0.2,0.1
			S-1580.3,3669-1580.3,3669.2z M-1581.7,3676.8c0-0.3-0.1-0.6-0.4-0.7c-0.3-0.2-0.6-0.3-1-0.3l-1.9-0.1c-0.2,0.1-0.3,0.3-0.4,0.4
			c-0.1,0.1-0.2,0.2-0.3,0.3c-0.1,0.1-0.1,0.2-0.1,0.3c0,0.1,0,0.2,0,0.3c0,0.3,0.2,0.6,0.5,0.8c0.4,0.2,0.8,0.3,1.5,0.3
			c0.4,0,0.7,0,1-0.1c0.3-0.1,0.5-0.2,0.7-0.3c0.2-0.1,0.3-0.3,0.4-0.4C-1581.7,3677.2-1581.7,3677-1581.7,3676.8z M-1582.4,3671.1
			c0-0.5-0.1-0.9-0.4-1.2c-0.3-0.3-0.7-0.4-1.2-0.4c-0.3,0-0.5,0-0.7,0.1c-0.2,0.1-0.3,0.2-0.5,0.4c-0.1,0.2-0.2,0.3-0.3,0.5
			c-0.1,0.2-0.1,0.4-0.1,0.6c0,0.5,0.1,0.9,0.4,1.1c0.3,0.3,0.7,0.4,1.1,0.4c0.3,0,0.5,0,0.7-0.1c0.2-0.1,0.4-0.2,0.5-0.3
			c0.1-0.1,0.2-0.3,0.3-0.5C-1582.4,3671.5-1582.4,3671.3-1582.4,3671.1z"/>
		<path class="st0" d="M-1571.7,3675.5c0,0.2,0,0.3,0,0.4c0,0.1-0.1,0.2-0.1,0.2c0,0-0.1,0.1-0.2,0.1c-0.1,0-0.2,0.1-0.3,0.1
			c-0.1,0-0.2,0-0.4,0.1s-0.2,0-0.4,0c-0.4,0-0.7,0-1-0.1c-0.3-0.1-0.5-0.2-0.7-0.5c-0.2-0.2-0.3-0.5-0.4-0.8
			c-0.1-0.3-0.1-0.7-0.1-1.1v-4.2h-1c-0.1,0-0.1,0-0.2-0.1c0-0.1-0.1-0.2-0.1-0.4c0-0.1,0-0.2,0-0.3c0-0.1,0-0.1,0.1-0.2
			c0,0,0-0.1,0.1-0.1c0,0,0.1,0,0.1,0h1v-1.7c0,0,0-0.1,0-0.1c0,0,0.1-0.1,0.1-0.1c0.1,0,0.1,0,0.2-0.1c0.1,0,0.2,0,0.3,0
			c0.1,0,0.2,0,0.3,0c0.1,0,0.2,0,0.2,0.1c0,0,0.1,0.1,0.1,0.1c0,0,0,0.1,0,0.1v1.7h1.9c0,0,0.1,0,0.1,0c0,0,0.1,0.1,0.1,0.1
			c0,0,0,0.1,0.1,0.2c0,0.1,0,0.2,0,0.3c0,0.2,0,0.3-0.1,0.4c0,0.1-0.1,0.1-0.2,0.1h-1.9v4c0,0.5,0.1,0.9,0.2,1.1
			c0.1,0.3,0.4,0.4,0.8,0.4c0.1,0,0.2,0,0.3,0c0.1,0,0.2,0,0.3-0.1c0.1,0,0.1-0.1,0.2-0.1c0.1,0,0.1,0,0.1,0c0,0,0.1,0,0.1,0
			c0,0,0,0,0.1,0.1c0,0,0,0.1,0,0.2C-1571.7,3675.4-1571.7,3675.5-1571.7,3675.5z"/>
		<path class="st0" d="M-1564,3676.1c0,0,0,0.1,0,0.1c0,0-0.1,0.1-0.1,0.1c0,0-0.1,0-0.2,0c-0.1,0-0.2,0-0.3,0c-0.1,0-0.2,0-0.3,0
			c-0.1,0-0.2,0-0.2,0c0,0-0.1,0-0.1-0.1c0,0,0-0.1,0-0.1v-4.2c0-0.4,0-0.7-0.1-1s-0.2-0.5-0.3-0.7c-0.1-0.2-0.3-0.3-0.5-0.4
			c-0.2-0.1-0.4-0.1-0.7-0.1c-0.3,0-0.7,0.1-1,0.4c-0.3,0.2-0.7,0.6-1,1v5.1c0,0,0,0.1,0,0.1c0,0-0.1,0.1-0.1,0.1c0,0-0.1,0-0.2,0
			c-0.1,0-0.2,0-0.3,0c-0.1,0-0.2,0-0.3,0c-0.1,0-0.2,0-0.2,0c-0.1,0-0.1,0-0.1-0.1c0,0,0-0.1,0-0.1v-10.8c0,0,0-0.1,0-0.1
			c0,0,0.1-0.1,0.1-0.1c0.1,0,0.1,0,0.2,0c0.1,0,0.2,0,0.3,0c0.1,0,0.2,0,0.3,0c0.1,0,0.2,0,0.2,0c0,0,0.1,0,0.1,0.1
			c0,0,0,0.1,0,0.1v4.3c0.4-0.4,0.8-0.7,1.2-0.9c0.4-0.2,0.8-0.3,1.2-0.3c0.5,0,0.9,0.1,1.2,0.2c0.3,0.2,0.6,0.4,0.8,0.7
			c0.2,0.3,0.4,0.6,0.4,1c0.1,0.4,0.1,0.8,0.1,1.3V3676.1z"/>
		<path class="st0" d="M-1555.6,3672.1c0,0.2-0.1,0.4-0.2,0.4s-0.2,0.1-0.4,0.1h-4.8c0,0.4,0,0.8,0.1,1.1c0.1,0.3,0.2,0.6,0.4,0.8
			c0.2,0.2,0.4,0.4,0.7,0.5c0.3,0.1,0.7,0.2,1.1,0.2c0.3,0,0.7,0,0.9-0.1s0.5-0.1,0.7-0.2c0.2-0.1,0.4-0.1,0.5-0.2
			c0.1-0.1,0.2-0.1,0.3-0.1c0,0,0.1,0,0.1,0c0,0,0.1,0,0.1,0.1c0,0,0,0.1,0,0.2c0,0.1,0,0.1,0,0.2c0,0.1,0,0.1,0,0.2
			c0,0.1,0,0.1,0,0.1c0,0,0,0.1,0,0.1c0,0,0,0.1-0.1,0.1c0,0-0.1,0.1-0.3,0.1c-0.1,0.1-0.3,0.1-0.6,0.2c-0.2,0.1-0.5,0.1-0.8,0.2
			c-0.3,0.1-0.6,0.1-1,0.1c-0.6,0-1.1-0.1-1.6-0.2c-0.4-0.2-0.8-0.4-1.1-0.7c-0.3-0.3-0.5-0.7-0.7-1.2c-0.2-0.5-0.2-1.1-0.2-1.7
			c0-0.6,0.1-1.2,0.2-1.7c0.2-0.5,0.4-0.9,0.7-1.3c0.3-0.3,0.7-0.6,1.1-0.8c0.4-0.2,0.9-0.3,1.4-0.3c0.6,0,1.1,0.1,1.5,0.3
			c0.4,0.2,0.7,0.4,1,0.7c0.3,0.3,0.4,0.7,0.6,1.1c0.1,0.4,0.2,0.9,0.2,1.3V3672.1z M-1557,3671.7c0-0.7-0.1-1.2-0.5-1.6
			c-0.3-0.4-0.8-0.6-1.5-0.6c-0.3,0-0.6,0.1-0.9,0.2c-0.2,0.1-0.5,0.3-0.6,0.5c-0.2,0.2-0.3,0.4-0.4,0.7c-0.1,0.3-0.1,0.6-0.2,0.9
			H-1557z"/>
		<path class="st0" d="M-1543.9,3668.9c0,0.5-0.1,1-0.3,1.4c-0.2,0.4-0.4,0.8-0.7,1.1c-0.3,0.3-0.7,0.5-1.2,0.7
			c-0.5,0.2-1,0.2-1.7,0.2h-1.2v3.8c0,0,0,0.1,0,0.1c0,0-0.1,0.1-0.1,0.1c-0.1,0-0.1,0-0.2,0c-0.1,0-0.2,0-0.3,0c-0.1,0-0.2,0-0.3,0
			c-0.1,0-0.2,0-0.2,0c-0.1,0-0.1,0-0.1-0.1c0,0,0-0.1,0-0.1v-9.6c0-0.2,0.1-0.4,0.2-0.5c0.1-0.1,0.2-0.1,0.4-0.1h2.2
			c0.2,0,0.4,0,0.6,0c0.2,0,0.5,0.1,0.7,0.1c0.3,0.1,0.6,0.2,0.9,0.3c0.3,0.2,0.5,0.4,0.7,0.6c0.2,0.2,0.4,0.5,0.5,0.9
			C-1544,3668.2-1543.9,3668.5-1543.9,3668.9z M-1545.4,3669c0-0.4-0.1-0.8-0.2-1.1c-0.2-0.3-0.4-0.5-0.6-0.6
			c-0.2-0.1-0.5-0.2-0.7-0.3c-0.3,0-0.5-0.1-0.7-0.1h-1.3v4.2h1.2c0.4,0,0.8-0.1,1-0.2c0.3-0.1,0.5-0.3,0.7-0.4
			c0.2-0.2,0.3-0.4,0.4-0.7C-1545.4,3669.6-1545.4,3669.3-1545.4,3669z"/>
		<path class="st0" d="M-1535.8,3672.4c0,0.6-0.1,1.1-0.2,1.6c-0.2,0.5-0.4,0.9-0.7,1.3s-0.7,0.6-1.2,0.8c-0.5,0.2-1,0.3-1.6,0.3
			c-0.6,0-1.1-0.1-1.6-0.3c-0.4-0.2-0.8-0.4-1.1-0.8c-0.3-0.3-0.5-0.7-0.7-1.2c-0.1-0.5-0.2-1-0.2-1.6c0-0.6,0.1-1.1,0.2-1.6
			s0.4-0.9,0.7-1.3c0.3-0.4,0.7-0.6,1.2-0.8s1-0.3,1.6-0.3c0.6,0,1.1,0.1,1.6,0.3c0.4,0.2,0.8,0.4,1.1,0.8c0.3,0.3,0.5,0.7,0.7,1.2
			C-1535.9,3671.2-1535.8,3671.8-1535.8,3672.4z M-1537.2,3672.5c0-0.4,0-0.8-0.1-1.1c-0.1-0.3-0.2-0.7-0.4-0.9
			c-0.2-0.3-0.4-0.5-0.7-0.6c-0.3-0.2-0.6-0.2-1.1-0.2c-0.4,0-0.7,0.1-1,0.2c-0.3,0.1-0.5,0.3-0.7,0.6c-0.2,0.3-0.3,0.6-0.4,0.9
			c-0.1,0.3-0.1,0.7-0.1,1.1c0,0.4,0,0.8,0.1,1.1c0.1,0.3,0.2,0.7,0.4,0.9c0.2,0.3,0.4,0.5,0.7,0.6s0.6,0.2,1.1,0.2
			c0.4,0,0.7-0.1,1-0.2c0.3-0.1,0.5-0.3,0.7-0.6c0.2-0.3,0.3-0.6,0.4-0.9C-1537.2,3673.3-1537.2,3672.9-1537.2,3672.5z"/>
		<path class="st0" d="M-1524.1,3668.8c0,0,0,0.1,0,0.1c0,0.1,0,0.1-0.1,0.2l-2.1,6.9c0,0.1,0,0.1-0.1,0.1c0,0-0.1,0.1-0.1,0.1
			c-0.1,0-0.1,0-0.3,0c-0.1,0-0.2,0-0.4,0c-0.2,0-0.3,0-0.4,0c-0.1,0-0.2,0-0.3,0c-0.1,0-0.1-0.1-0.1-0.1c0,0-0.1-0.1-0.1-0.1
			l-1.5-5.3l0-0.1l0,0.1l-1.4,5.3c0,0.1,0,0.1-0.1,0.1c0,0-0.1,0.1-0.2,0.1c-0.1,0-0.2,0-0.3,0c-0.1,0-0.2,0-0.4,0
			c-0.2,0-0.3,0-0.4,0c-0.1,0-0.2,0-0.3,0c-0.1,0-0.1-0.1-0.1-0.1c0,0-0.1-0.1-0.1-0.1l-2.1-6.9c0-0.1,0-0.1-0.1-0.2
			c0-0.1,0-0.1,0-0.1c0,0,0-0.1,0-0.1c0,0,0.1-0.1,0.1-0.1c0.1,0,0.1,0,0.2,0c0.1,0,0.2,0,0.3,0c0.2,0,0.3,0,0.4,0
			c0.1,0,0.2,0,0.2,0c0,0,0.1,0,0.1,0.1c0,0,0,0.1,0.1,0.1l1.7,6l0,0.1l0-0.1l1.6-6c0,0,0-0.1,0.1-0.1c0,0,0.1-0.1,0.1-0.1
			c0,0,0.1,0,0.2,0c0.1,0,0.2,0,0.3,0c0.1,0,0.2,0,0.3,0c0.1,0,0.1,0,0.2,0c0,0,0.1,0,0.1,0.1s0,0.1,0,0.1l1.7,6l0,0.1l0-0.1l1.7-6
			c0,0,0-0.1,0.1-0.1c0,0,0.1-0.1,0.1-0.1c0.1,0,0.1,0,0.2,0c0.1,0,0.2,0,0.3,0c0.1,0,0.2,0,0.3,0c0.1,0,0.1,0,0.2,0
			c0,0,0.1,0,0.1,0.1C-1524.1,3668.7-1524.1,3668.8-1524.1,3668.8z"/>
		<path class="st0" d="M-1516.7,3672.1c0,0.2-0.1,0.4-0.2,0.4s-0.2,0.1-0.4,0.1h-4.8c0,0.4,0,0.8,0.1,1.1c0.1,0.3,0.2,0.6,0.4,0.8
			s0.4,0.4,0.7,0.5c0.3,0.1,0.7,0.2,1.1,0.2c0.3,0,0.7,0,0.9-0.1c0.3-0.1,0.5-0.1,0.7-0.2c0.2-0.1,0.4-0.1,0.5-0.2
			c0.1-0.1,0.2-0.1,0.3-0.1c0,0,0.1,0,0.1,0c0,0,0.1,0,0.1,0.1c0,0,0,0.1,0,0.2c0,0.1,0,0.1,0,0.2c0,0.1,0,0.1,0,0.2
			c0,0.1,0,0.1,0,0.1c0,0,0,0.1,0,0.1c0,0,0,0.1-0.1,0.1c0,0-0.1,0.1-0.3,0.1c-0.1,0.1-0.3,0.1-0.6,0.2c-0.2,0.1-0.5,0.1-0.8,0.2
			c-0.3,0.1-0.6,0.1-1,0.1c-0.6,0-1.1-0.1-1.6-0.2c-0.4-0.2-0.8-0.4-1.1-0.7c-0.3-0.3-0.5-0.7-0.7-1.2c-0.2-0.5-0.2-1.1-0.2-1.7
			c0-0.6,0.1-1.2,0.2-1.7c0.2-0.5,0.4-0.9,0.7-1.3c0.3-0.3,0.7-0.6,1.1-0.8c0.4-0.2,0.9-0.3,1.4-0.3c0.6,0,1.1,0.1,1.5,0.3
			c0.4,0.2,0.7,0.4,1,0.7s0.4,0.7,0.6,1.1c0.1,0.4,0.2,0.9,0.2,1.3V3672.1z M-1518,3671.7c0-0.7-0.1-1.2-0.5-1.6
			c-0.3-0.4-0.8-0.6-1.5-0.6c-0.3,0-0.6,0.1-0.9,0.2c-0.2,0.1-0.5,0.3-0.6,0.5c-0.2,0.2-0.3,0.4-0.4,0.7c-0.1,0.3-0.1,0.6-0.2,0.9
			H-1518z"/>
		<path class="st0" d="M-1510.7,3669.3c0,0.1,0,0.2,0,0.3c0,0.1,0,0.1,0,0.2c0,0,0,0.1-0.1,0.1c0,0-0.1,0-0.1,0c0,0-0.1,0-0.2,0
			c-0.1,0-0.1,0-0.2-0.1c-0.1,0-0.2,0-0.3-0.1c-0.1,0-0.2,0-0.3,0c-0.1,0-0.3,0-0.4,0.1c-0.1,0.1-0.3,0.1-0.4,0.3
			c-0.1,0.1-0.3,0.3-0.4,0.5c-0.2,0.2-0.3,0.5-0.5,0.8v4.8c0,0,0,0.1,0,0.1c0,0-0.1,0.1-0.1,0.1c0,0-0.1,0-0.2,0c-0.1,0-0.2,0-0.3,0
			c-0.1,0-0.2,0-0.3,0c-0.1,0-0.2,0-0.2,0c-0.1,0-0.1,0-0.1-0.1c0,0,0-0.1,0-0.1v-7.3c0,0,0-0.1,0-0.1c0,0,0-0.1,0.1-0.1
			c0,0,0.1,0,0.2,0c0.1,0,0.2,0,0.3,0c0.1,0,0.2,0,0.3,0c0.1,0,0.1,0,0.2,0c0,0,0.1,0.1,0.1,0.1c0,0,0,0.1,0,0.1v1.1
			c0.2-0.3,0.4-0.5,0.6-0.7c0.2-0.2,0.3-0.3,0.5-0.4c0.2-0.1,0.3-0.2,0.5-0.2c0.2,0,0.3-0.1,0.5-0.1c0.1,0,0.1,0,0.2,0
			c0.1,0,0.2,0,0.3,0c0.1,0,0.2,0,0.3,0.1c0.1,0,0.1,0.1,0.2,0.1c0,0,0.1,0.1,0.1,0.1c0,0,0,0.1,0,0.1c0,0,0,0.1,0,0.2
			C-1510.7,3669.1-1510.7,3669.2-1510.7,3669.3z"/>
		<path class="st0" d="M-1499.3,3672.4c0,0.6-0.1,1.1-0.2,1.6c-0.2,0.5-0.4,0.9-0.7,1.3s-0.7,0.6-1.2,0.8c-0.5,0.2-1,0.3-1.6,0.3
			c-0.6,0-1.1-0.1-1.6-0.3c-0.4-0.2-0.8-0.4-1.1-0.8c-0.3-0.3-0.5-0.7-0.7-1.2c-0.1-0.5-0.2-1-0.2-1.6c0-0.6,0.1-1.1,0.2-1.6
			c0.2-0.5,0.4-0.9,0.7-1.3c0.3-0.4,0.7-0.6,1.2-0.8s1-0.3,1.6-0.3c0.6,0,1.1,0.1,1.6,0.3c0.4,0.2,0.8,0.4,1.1,0.8
			c0.3,0.3,0.5,0.7,0.7,1.2C-1499.4,3671.2-1499.3,3671.8-1499.3,3672.4z M-1500.7,3672.5c0-0.4,0-0.8-0.1-1.1
			c-0.1-0.3-0.2-0.7-0.4-0.9c-0.2-0.3-0.4-0.5-0.7-0.6c-0.3-0.2-0.6-0.2-1.1-0.2c-0.4,0-0.7,0.1-1,0.2c-0.3,0.1-0.5,0.3-0.7,0.6
			c-0.2,0.3-0.3,0.6-0.4,0.9c-0.1,0.3-0.1,0.7-0.1,1.1c0,0.4,0,0.8,0.1,1.1c0.1,0.3,0.2,0.7,0.4,0.9c0.2,0.3,0.4,0.5,0.7,0.6
			s0.6,0.2,1.1,0.2c0.4,0,0.7-0.1,1-0.2c0.3-0.1,0.5-0.3,0.7-0.6c0.2-0.3,0.3-0.6,0.4-0.9
			C-1500.7,3673.3-1500.7,3672.9-1500.7,3672.5z"/>
		<path class="st0" d="M-1493.6,3665.8c0,0.1,0,0.2,0,0.2c0,0.1,0,0.1,0,0.1c0,0,0,0.1-0.1,0.1c0,0,0,0-0.1,0c0,0-0.1,0-0.1,0
			c-0.1,0-0.1-0.1-0.2-0.1c-0.1,0-0.2-0.1-0.3-0.1c-0.1,0-0.2,0-0.4,0c-0.2,0-0.4,0-0.5,0.1c-0.1,0.1-0.3,0.2-0.3,0.3
			c-0.1,0.1-0.1,0.3-0.2,0.5c0,0.2-0.1,0.5-0.1,0.8v0.8h1.6c0,0,0.1,0,0.1,0c0,0,0.1,0.1,0.1,0.1c0,0,0,0.1,0.1,0.2
			c0,0.1,0,0.2,0,0.3c0,0.2,0,0.3-0.1,0.4c0,0.1-0.1,0.1-0.2,0.1h-1.6v6.4c0,0,0,0.1,0,0.1c0,0-0.1,0.1-0.1,0.1c-0.1,0-0.1,0-0.2,0
			c-0.1,0-0.2,0-0.3,0c-0.1,0-0.2,0-0.3,0c-0.1,0-0.2,0-0.2,0c-0.1,0-0.1,0-0.1-0.1c0,0,0-0.1,0-0.1v-6.4h-1c-0.1,0-0.2,0-0.2-0.1
			c0-0.1-0.1-0.2-0.1-0.4c0-0.1,0-0.2,0-0.3c0-0.1,0-0.1,0-0.2c0,0,0-0.1,0.1-0.1c0,0,0.1,0,0.1,0h1v-0.7c0-0.5,0-0.9,0.1-1.3
			c0.1-0.4,0.2-0.7,0.4-0.9c0.2-0.2,0.4-0.4,0.7-0.5c0.3-0.1,0.6-0.2,1-0.2c0.2,0,0.4,0,0.5,0.1c0.2,0,0.3,0.1,0.4,0.1
			c0.1,0,0.2,0.1,0.2,0.1c0,0,0.1,0.1,0.1,0.1c0,0.1,0,0.1,0,0.2C-1493.7,3665.6-1493.6,3665.7-1493.6,3665.8z"/>
		<path class="st0" d="M-1480.6,3670.9c0,0.8-0.1,1.6-0.3,2.3c-0.2,0.7-0.5,1.3-0.9,1.7c-0.4,0.5-0.9,0.8-1.5,1.1
			c-0.6,0.3-1.3,0.4-2.1,0.4c-0.8,0-1.5-0.1-2-0.4c-0.6-0.2-1-0.6-1.4-1c-0.4-0.4-0.7-1-0.8-1.7c-0.2-0.7-0.3-1.4-0.3-2.3
			c0-0.8,0.1-1.6,0.3-2.2c0.2-0.7,0.5-1.2,0.9-1.7c0.4-0.5,0.9-0.8,1.5-1.1c0.6-0.3,1.3-0.4,2.1-0.4c0.8,0,1.4,0.1,2,0.3
			c0.6,0.2,1,0.6,1.4,1c0.4,0.4,0.7,1,0.8,1.6C-1480.6,3669.4-1480.6,3670.1-1480.6,3670.9z M-1482,3671c0-0.6-0.1-1.1-0.2-1.6
			c-0.1-0.5-0.3-0.9-0.5-1.3c-0.2-0.4-0.6-0.7-1-0.9c-0.4-0.2-0.9-0.3-1.5-0.3c-0.6,0-1.1,0.1-1.5,0.3c-0.4,0.2-0.7,0.5-1,0.9
			c-0.3,0.4-0.4,0.8-0.5,1.3c-0.1,0.5-0.2,1-0.2,1.6c0,0.6,0.1,1.2,0.2,1.7c0.1,0.5,0.3,1,0.5,1.3c0.2,0.4,0.6,0.7,1,0.9
			c0.4,0.2,0.9,0.3,1.5,0.3c0.6,0,1.1-0.1,1.5-0.3c0.4-0.2,0.7-0.5,1-0.9c0.3-0.4,0.4-0.8,0.5-1.3
			C-1482.1,3672.1-1482,3671.6-1482,3671z"/>
		<path class="st0" d="M-1472.6,3676.1c0,0,0,0.1,0,0.1c0,0-0.1,0.1-0.1,0.1c0,0-0.1,0-0.2,0c-0.1,0-0.2,0-0.3,0c-0.1,0-0.2,0-0.3,0
			c-0.1,0-0.2,0-0.2,0c0,0-0.1,0-0.1-0.1c0,0,0-0.1,0-0.1v-4.2c0-0.4,0-0.7-0.1-1c-0.1-0.3-0.2-0.5-0.3-0.7
			c-0.1-0.2-0.3-0.3-0.5-0.4c-0.2-0.1-0.4-0.1-0.7-0.1c-0.3,0-0.7,0.1-1,0.4c-0.3,0.2-0.7,0.6-1,1v5.1c0,0,0,0.1,0,0.1
			c0,0-0.1,0.1-0.1,0.1c0,0-0.1,0-0.2,0c-0.1,0-0.2,0-0.3,0c-0.1,0-0.2,0-0.3,0s-0.2,0-0.2,0c-0.1,0-0.1,0-0.1-0.1c0,0,0-0.1,0-0.1
			v-7.3c0,0,0-0.1,0-0.1c0,0,0-0.1,0.1-0.1c0,0,0.1,0,0.2,0c0.1,0,0.2,0,0.3,0c0.1,0,0.2,0,0.3,0c0.1,0,0.1,0,0.2,0
			c0,0,0.1,0.1,0.1,0.1c0,0,0,0.1,0,0.1v1c0.4-0.5,0.8-0.8,1.2-1c0.4-0.2,0.8-0.3,1.2-0.3c0.5,0,0.9,0.1,1.2,0.2
			c0.3,0.2,0.6,0.4,0.8,0.7c0.2,0.3,0.4,0.6,0.4,1c0.1,0.4,0.1,0.8,0.1,1.3V3676.1z"/>
		<path class="st0" d="M-1464.2,3672.1c0,0.2-0.1,0.4-0.2,0.4c-0.1,0.1-0.2,0.1-0.4,0.1h-4.8c0,0.4,0,0.8,0.1,1.1
			c0.1,0.3,0.2,0.6,0.4,0.8s0.4,0.4,0.7,0.5c0.3,0.1,0.7,0.2,1.1,0.2c0.3,0,0.7,0,0.9-0.1c0.3-0.1,0.5-0.1,0.7-0.2
			c0.2-0.1,0.4-0.1,0.5-0.2c0.1-0.1,0.2-0.1,0.3-0.1c0,0,0.1,0,0.1,0c0,0,0.1,0,0.1,0.1c0,0,0,0.1,0,0.2c0,0.1,0,0.1,0,0.2
			c0,0.1,0,0.1,0,0.2c0,0.1,0,0.1,0,0.1c0,0,0,0.1,0,0.1c0,0,0,0.1-0.1,0.1c0,0-0.1,0.1-0.3,0.1c-0.1,0.1-0.3,0.1-0.6,0.2
			c-0.2,0.1-0.5,0.1-0.8,0.2c-0.3,0.1-0.6,0.1-1,0.1c-0.6,0-1.1-0.1-1.6-0.2c-0.4-0.2-0.8-0.4-1.1-0.7c-0.3-0.3-0.5-0.7-0.7-1.2
			c-0.2-0.5-0.2-1.1-0.2-1.7c0-0.6,0.1-1.2,0.2-1.7c0.2-0.5,0.4-0.9,0.7-1.3c0.3-0.3,0.7-0.6,1.1-0.8c0.4-0.2,0.9-0.3,1.4-0.3
			c0.6,0,1.1,0.1,1.5,0.3c0.4,0.2,0.7,0.4,1,0.7c0.3,0.3,0.4,0.7,0.6,1.1c0.1,0.4,0.2,0.9,0.2,1.3V3672.1z M-1465.6,3671.7
			c0-0.7-0.1-1.2-0.5-1.6c-0.3-0.4-0.8-0.6-1.5-0.6c-0.3,0-0.6,0.1-0.9,0.2c-0.2,0.1-0.5,0.3-0.6,0.5c-0.2,0.2-0.3,0.4-0.4,0.7
			c-0.1,0.3-0.1,0.6-0.2,0.9H-1465.6z"/>
	</g>
</g>
<path id="XMLID_2_" class="st0" d="M-747.3,3656.6c-0.6,0-1.1-0.1-1.7-0.3c-0.3-0.1-0.6,0-0.7,0.2l-1.1,0.8c-1.2-0.7-2-1.4-2.7-2.7
	l0.8-1c0.2-0.2,0.3-0.5,0.2-0.8c-0.2-0.5-0.3-1.1-0.3-1.7c0-0.4-0.3-0.7-0.7-0.7h-1.7c-0.4,0-0.7,0.3-0.7,0.7c0,4.8,3.9,8.7,8.7,8.7
	c0.4,0,0.7-0.3,0.7-0.7v-1.7C-746.6,3656.9-746.9,3656.6-747.3,3656.6z"/>
<g>
	<path class="st0" d="M-608.7,3654.7c0.5,0.4,1.1,0.4,1.6,0l6.2-4.1c-0.2-0.1-0.4-0.2-0.6-0.2h-12.4c-0.1,0-0.3,0-0.4,0.1
		L-608.7,3654.7z"/>
	<path class="st0" d="M-606.5,3655.6c-0.4,0.3-0.9,0.4-1.3,0.4c-0.5,0-1-0.2-1.4-0.5l-5.7-4.3c-0.1,0.1-0.1,0.3-0.1,0.5v7.4
		c0,0.7,0.6,1.2,1.2,1.2h12.4c0.7,0,1.2-0.6,1.2-1.2v-7.4c0-0.1,0-0.2,0-0.3L-606.5,3655.6z"/>
</g>
<g>
	<text transform="matrix(1 0 0 1 -738.7317 3660.2197)" class="st0" style="font-family:'OpenSans'; font-size:14px;">+1-800-565-6786</text>
</g>
<text transform="matrix(1 0 0 1 -593.5168 3660.2195)" class="st0" style="font-family:'OpenSans'; font-size:14px;">info@scalemp.com</text>
<g>
	<text transform="matrix(1 0 0 1 -1634.7351 3763.3044)" class="st0" style="font-family:'OpenSans-Extrabold'; font-size:16px;">Contact Us</text>
</g>
<text transform="matrix(1 0 0 1 -1634.1379 3810.9255)"><tspan x="0" y="0" class="st0" style="font-family:'OpenSans-Bold'; font-size:14px;">Corporate Headquarters</tspan><tspan x="0" y="25" class="st0" style="font-family:'OpenSans'; font-size:14px;">2175 Lemoine Ave. </tspan><tspan x="0" y="50" class="st0" style="font-family:'OpenSans'; font-size:14px;">Suite 401</tspan><tspan x="0" y="75" class="st0" style="font-family:'OpenSans'; font-size:14px;">Fort Lee, NJ USA  07024</tspan><tspan x="0" y="100" class="st0" style="font-family:'OpenSans'; font-size:14px;">Tel: +1 (201) 429-9740</tspan><tspan x="0" y="125" class="st0" style="font-family:'OpenSans'; font-size:14px;">Fax: +1 (408) 716-2883</tspan></text>
<g>
	<g>
		<text transform="matrix(1 0 0 1 -1032.5372 3763.3044)" class="st0" style="font-family:'OpenSans-Extrabold'; font-size:16px;">Recent Posts</text>
	</g>
	<g>
		<text transform="matrix(1 0 0 1 -1005.3727 3810.8113)"><tspan x="0" y="0" class="st0" style="font-family:'OpenSans'; font-size:14px;">Comparison: Legacy SMP</tspan><tspan x="0" y="25" class="st0" style="font-family:'OpenSans'; font-size:14px;">vs ScaleMP vSMP ServerOne</tspan><tspan x="0" y="75" class="st0" style="font-family:'OpenSans'; font-size:14px;">On-demand Scale-up – </tspan><tspan x="0" y="100" class="st0" style="font-family:'OpenSans'; font-size:14px;">Flexible and Cost-efective</tspan><tspan x="0" y="150" class="st0" style="font-family:'OpenSans'; font-size:14px;">3 ways virtualization aggregation </tspan><tspan x="0" y="175" class="st0" style="font-family:'OpenSans'; font-size:14px;">can save you money</tspan></text>
	</g>
	<g>
		<text transform="matrix(1 0 0 1 -1032.3727 3810.8113)"><tspan x="0" y="0" class="st0" style="font-family:'OpenSans'; font-size:14px;">&gt;&gt;</tspan><tspan x="0" y="75" class="st0" style="font-family:'OpenSans'; font-size:14px;">&gt;&gt;</tspan><tspan x="0" y="150" class="st0" style="font-family:'OpenSans'; font-size:14px;">&gt;&gt;</tspan></text>
	</g>
	<line class="st13" x1="-1032.4" y1="3853.9" x2="-760.4" y2="3853.9"/>
	<line class="st13" x1="-1032.4" y1="3928.9" x2="-760.4" y2="3928.9"/>
</g>
<text transform="matrix(1 0 0 1 -1300.1871 3810.3943)"><tspan x="0" y="0" class="st0" style="font-family:'OpenSans-Bold'; font-size:14px;">R&amp;D Center</tspan><tspan x="0" y="25" class="st0" style="font-family:'OpenSans'; font-size:14px;">11 Ha’avoda Street, </tspan><tspan x="0" y="50" class="st0" style="font-family:'OpenSans'; font-size:14px;">2nd foor</tspan><tspan x="0" y="75" class="st0" style="font-family:'OpenSans'; font-size:14px;">Rosh Ha’ayin, 48017 Israel</tspan><tspan x="0" y="100" class="st0" style="font-family:'OpenSans'; font-size:14px;">Tel: +972 (3) 901-4938</tspan><tspan x="0" y="125" class="st0" style="font-family:'OpenSans'; font-size:14px;">Fax: +972 (3) 901-4939</tspan></text>
<g>
	<text transform="matrix(1 0 0 1 -682.7351 3763.3044)" class="st0" style="font-family:'OpenSans-Extrabold'; font-size:16px;">Search</text>
</g>
<rect x="-684.6" y="3794.4" class="st0" width="178" height="46"/>
<rect x="-503.6" y="3794.4" class="st14" width="33" height="46"/>
<text transform="matrix(1 0 0 1 -672.5706 3821.8142)" style="font-family:'OpenSans'; font-size:14px;">Search...</text>
<rect x="-684.6" y="3929.4" class="st0" width="178" height="46"/>
<text transform="matrix(1 0 0 1 -631.5706 3956.8142)" style="font-family:'OpenSans'; font-size:14px;">@</text>
<g>
	<path class="st0" d="M-480.7,3823l-3.7-3.7c0.7-0.9,1.1-2,1.1-3.2c0-2.8-2.3-5.1-5.1-5.1c-2.8,0-5.1,2.3-5.1,5.1s2.3,5.1,5.1,5.1
		c1.2,0,2.3-0.4,3.2-1.1l3.7,3.7c0.1,0.1,0.2,0.2,0.4,0.2s0.3-0.1,0.4-0.2C-480.5,3823.5-480.5,3823.2-480.7,3823z M-488.4,3820.1
		c-2.2,0-4.1-1.8-4.1-4.1s1.8-4.1,4.1-4.1c2.2,0,4.1,1.8,4.1,4.1S-486.2,3820.1-488.4,3820.1z"/>
</g>
<g>
	<text transform="matrix(1 0 0 1 -682.7351 3890.3044)"><tspan x="0" y="0" class="st0" style="font-family:'OpenSans-Extrabold'; font-size:16px;">Register to Our </tspan><tspan x="0" y="19.2" class="st0" style="font-family:'OpenSans-Extrabold'; font-size:16px;">Newsletter</tspan></text>
</g>
<g>
	<rect x="-1398.4" y="3640.9" class="st8" width="474.8" height="42.5"/>
	<text transform="matrix(1 0 0 1 -1398.3826 3650.8679)"><tspan x="0" y="0" class="st0" style="font-family:'OpenSans'; font-size:14px;">ScaleMP is the leader in virtualization for high-end computing, providing higher </tspan><tspan x="0" y="25" class="st0" style="font-family:'OpenSans'; font-size:14px;">performance and lower Total Cost of Ownership (TCO).</tspan></text>
</g>
<text transform="matrix(1 0 0 1 -1173.5706 4083.7419)" class="st0" style="font-family:'OpenSans'; font-size:14px;">Products &amp; Solutions</text>
<text transform="matrix(1 0 0 1 -956.8025 4083.7419)" class="st0" style="font-family:'OpenSans'; font-size:14px;">Media-hub</text>
<text transform="matrix(1 0 0 1 -840.2102 4083.7419)" class="st0" style="font-family:'OpenSans'; font-size:14px;">Company Info</text>
<text transform="matrix(1 0 0 1 -693.5706 4083.7419)" class="st0" style="font-family:'OpenSans'; font-size:14px;">Support</text>
<g>
	<text transform="matrix(1 0 0 1 -584.5706 4083.7419)" class="st3" style="font-family:'OpenSans'; font-size:14px;">Ask an Expert</text>
</g>
<rect x="-596.6" y="4058.4" class="st11" width="125" height="39"/>
<rect x="-503.6" y="3929.4" class="st3" width="33" height="46"/>
<polyline class="st15" points="-495.6,3952.4 -489.6,3960.4 -478.6,3943.4 "/>
<g>
	<defs>
		<rect id="SVGID_9_" x="-1653.6" y="1249.4" width="380" height="250"/>
	</defs>
	<clipPath id="SVGID_10_">
		<use xlink:href="#SVGID_9_"  style="overflow:visible;"/>
	</clipPath>
	<g style="clip-path:url(#SVGID_10_);">
		
			<image style="overflow:visible;" width="4804" height="3474" xlink:href="Images/42036429 vSMP ClusterOne.jpg"  transform="matrix(8.261370e-02 0 0 8.261370e-02 -1665.5706 1239.3943)">
		</image>
	</g>
</g>
<g>
	<path class="st0" d="M-1628.7,93.2c0.6,0,1.4,0,1.4,0V91c0,0-0.9,0-2,0s-2.7,0.8-2.7,3c0,0.4,0,1,0,1.7h-2v2.2h2c0,2.8,0,5.8,0,5.8
		h0.9h0.7h0.8c0,0,0-3.1,0-5.8h1.9l0.3-2.2h-2.3c0-0.7,0-1.3,0-1.4C-1629.6,93.6-1629.3,93.2-1628.7,93.2z"/>
	<path id="linkedin-square-rounded-icon_3_" class="st0" d="M-1602.3,103.7h-2.6v-8.4h2.6V103.7z M-1603.6,94.3
		c-0.8,0-1.5-0.7-1.5-1.5c0-0.9,0.7-1.5,1.5-1.5c0.8,0,1.5,0.7,1.5,1.5C-1602.1,93.6-1602.8,94.3-1603.6,94.3z M-1592.6,103.7h-2.6
		c0,0,0-3.2,0-4.4c0-1.2-0.5-1.9-1.4-1.9c-1,0-1.6,0.7-1.6,1.9c0,1.3,0,4.4,0,4.4h-2.5v-8.4h2.5v1.1c0,0,0.7-1.4,2.5-1.4
		c1.8,0,3,1.1,3,3.3C-1592.6,100.7-1592.6,103.7-1592.6,103.7z"/>
	<path id="rss-circle-icon_3_" class="st0" d="M-1543.2,103.7c-0.8,0-1.4-0.6-1.4-1.4c0-0.8,0.6-1.4,1.4-1.4c0.8,0,1.4,0.6,1.4,1.4
		C-1541.8,103.1-1542.4,103.7-1543.2,103.7z M-1539.9,103.7c0-2.6-2.1-4.7-4.7-4.7V97c3.7,0,6.7,3,6.8,6.8H-1539.9L-1539.9,103.7z
		 M-1536.4,103.7c0-2.2-0.9-4.2-2.4-5.8c-1.5-1.5-3.6-2.4-5.8-2.4v-2.1c5.7,0,10.2,4.6,10.3,10.3H-1536.4L-1536.4,103.7z"/>
	<path class="st0" d="M-1561.7,93.5c-0.1-0.1-0.2-0.1-0.3,0c-0.1,0-0.3,0.1-0.5,0.2c0.2-0.3,0.3-0.6,0.4-0.9c0-0.1,0-0.2-0.1-0.2
		c-0.1,0-0.2,0-0.3,0c-0.5,0.3-1.2,0.5-1.4,0.6c-0.5-0.4-1.2-0.7-1.9-0.7c-0.8,0-1.6,0.3-2.3,0.9c-0.6,0.6-0.9,1.4-0.9,2.3
		c-2.4-0.2-3.9-1.7-5-3.1c0,0-0.1-0.1-0.2-0.1c-0.1,0-0.1,0-0.2,0.1c-0.7,1.1-0.5,2.3-0.4,2.8c0.1,0.4,0.2,0.7,0.4,1
		c-0.2-0.1-0.4-0.2-0.6-0.4c0,0-0.2,0-0.2,0c-0.1,0-0.1,0.1-0.1,0.2c0,1.4,1,2.4,1.8,2.9c-0.1,0-0.3,0-0.5-0.1c-0.1,0-0.2,0-0.2,0
		c0,0-0.1,0.2,0,0.2c0.4,1,1.4,1.8,2.5,2c-1,0.6-2.6,0.9-3.8,0.8c-0.1,0-0.2,0-0.2,0.1c0,0.1,0,0.2,0.1,0.3c1.5,0.8,3.1,1.3,4.6,1.3
		l0,0c2.4,0,4.9-1.1,6.6-3c1.5-1.6,2.3-3.7,2.1-5.6c0.2-0.2,0.4-0.5,0.6-0.9c0.1-0.1,0.2-0.3,0.3-0.5
		C-1561.6,93.7-1561.6,93.5-1561.7,93.5z"/>
</g>
<g>
	<path class="st0" d="M-1620.9,4070.6c1.3,0,3,0,3,0v-4.5c0,0-1.8,0-4.3,0s-5.7,1.6-5.7,6.2c0,0.9,0,2.1,0,3.6h-4.1v4.7h4.1
		c0,5.8,0,12.1,0,12.1h1.8h1.4h1.6c0,0,0-6.6,0-12.1h4.1l0.7-4.7h-4.7c0-1.5,0-2.6,0-3C-1623,4071.4-1622.2,4070.6-1620.9,4070.6z"
		/>
	<path id="linkedin-square-rounded-icon_1_" class="st0" d="M-1590.2,4092.7h-5.4v-17.5h5.4V4092.7z M-1592.9,4072.9
		c-1.8,0-3.2-1.4-3.2-3.2c0-1.8,1.4-3.2,3.2-3.2s3.2,1.4,3.2,3.2C-1589.7,4071.4-1591.2,4072.9-1592.9,4072.9z M-1569.9,4092.7h-5.4
		c0,0,0-6.7,0-9.2c0-2.5-1-3.9-3-3.9c-2.2,0-3.3,1.5-3.3,3.9c0,2.7,0,9.2,0,9.2h-5.2v-17.5h5.2v2.4c0,0,1.6-2.9,5.3-2.9
		c3.7,0,6.4,2.3,6.4,7C-1569.9,4086.3-1569.9,4092.7-1569.9,4092.7z"/>
	<path id="rss-circle-icon_1_" class="st0" d="M-1495.1,4092.7c-1.6,0-2.9-1.3-2.9-2.9c0-1.6,1.3-2.9,2.9-2.9s2.9,1.3,2.9,2.9
		C-1492.2,4091.4-1493.5,4092.7-1495.1,4092.7z M-1488.1,4092.7c-0.1-5.4-4.4-9.8-9.9-9.8v-4.3c7.8,0.1,14.1,6.4,14.2,14.2H-1488.1
		L-1488.1,4092.7z M-1480.8,4092.7c0-4.6-1.8-8.9-5-12.1c-3.2-3.2-7.5-5-12.1-5v-4.3c11.8,0,21.4,9.6,21.4,21.5H-1480.8
		L-1480.8,4092.7z"/>
	<path class="st0" d="M-1517.4,4071.2c-0.2-0.2-0.4-0.2-0.6-0.1c-0.3,0.1-0.7,0.3-1.1,0.5c0.4-0.6,0.7-1.4,0.8-2
		c0.1-0.2,0-0.4-0.2-0.5c-0.2-0.1-0.4-0.1-0.6,0c-1,0.6-2.5,1.1-3,1.2c-1.1-0.9-2.6-1.5-4-1.5c-1.8,0-3.4,0.7-4.8,2
		c-1.2,1.2-2,2.9-2,4.8c-5.1-0.5-8.1-3.6-10.5-6.6c-0.1-0.1-0.3-0.2-0.4-0.2c-0.2,0-0.3,0.1-0.4,0.2c-1.5,2.4-1.1,4.8-0.8,5.9
		c0.2,0.8,0.5,1.5,0.9,2.1c-0.5-0.2-0.9-0.4-1.4-0.8c-0.1-0.1-0.4-0.1-0.5-0.1c-0.2,0.1-0.3,0.3-0.3,0.5c0,3,2.1,5,3.7,6
		c-0.3-0.1-0.6-0.1-1-0.3c-0.2-0.1-0.4,0-0.5,0.1c-0.1,0.1-0.2,0.4-0.1,0.5c0.9,2.2,3,3.9,5.3,4.3c-2.1,1.2-5.4,2-7.9,1.8
		c-0.2,0-0.5,0.1-0.5,0.3c-0.1,0.2,0,0.5,0.2,0.6c3.1,1.8,6.5,2.7,9.7,2.7l0,0c5.1,0,10.2-2.3,13.7-6.4c3.1-3.4,4.8-7.8,4.5-11.7
		c0.5-0.4,0.8-1.1,1.2-1.9c0.2-0.3,0.4-0.7,0.6-1C-1517.3,4071.7-1517.3,4071.3-1517.4,4071.2z"/>
</g>
<g>
	<polygon points="171.7,34.6 167.5,34.6 167.4,35.1 169.1,35.1 167.1,41.4 167.8,41.4 169.8,35.1 171.5,35.1 	"/>
	<polygon points="173.7,40.5 177.4,34.6 178.6,34.6 178.6,34.6 176.4,41.4 175.7,41.4 177.7,35.2 173.8,41.4 173.1,41.4 173.1,35.2 
		171.1,41.4 170.5,41.4 172.6,34.8 172.6,34.6 173.7,34.6 	"/>
	<path class="st1" d="M10.3,26.4H3.1c0,0-2,5.6-2.3,6.4c-0.6,1.7-1,3.3-0.8,4.5c0.3,2.6,2.6,4.1,5.3,4.1h12.2c1.4,0,2.8-0.4,4.3-1.7
		c1.2-0.9,1.9-2.8,2.7-5.4c0.2-0.7,2.3-7.4,2.6-8.4c1-3.4-0.8-5.8-4.3-7.3c-3.5-1.5-6.6-2.7-7.2-3c-0.6-0.3-1.2-1.2-0.8-2.5
		c0.4-1.3,1-2.7,1.2-3.1c0.2-0.4,0.5-1.5,2-1.5h4.7c0.4,0,1.6,0.4,1,2.4c-0.6,2-1.1,3.7-1.1,3.7h8.1c0,0,1.9-6.1,2.3-7.5
		c0.4-1.5,0.5-3.5-0.2-4.6C31.8,0.9,30,0,27.5,0H16.6c-1.7,0-3.5,0.5-4.8,1.7c-1,0.9-1.7,2.1-2.2,3.8c-0.9,2.9-1.9,5.9-2.8,8.8
		c-0.9,2.9-0.7,5.4,2.7,7c3.4,1.5,6,2.6,6.9,3.1c0.9,0.4,2.3,1.4,1.6,4c0,0-0.5,1.8-0.9,2.9c-0.4,1.1-1.2,1.8-2.5,1.8
		c-1.3,0-3.8,0-4.7,0c-0.8,0-1.6-0.6-1.2-1.7C9.1,30.2,10.3,26.4,10.3,26.4"/>
	<polygon points="73.3,41.3 80.6,41.3 93.1,0.5 86,0.5 	"/>
	<polygon class="st1" points="109.2,41.3 117.4,41.3 125.2,15.7 125.5,15.5 124.1,41.3 131.9,41.3 147,15.7 147.2,15.8 138.8,41.3 
		147.5,41.3 160.3,0.5 147.8,0.5 131.9,28.3 133.9,0.5 122.1,0.5 	"/>
	<path class="st1" d="M182.2,0.5h-17.4h-0.2l-12.8,40.7h9l4.6-15.3H177c3.3,0,4.8-1.9,5.4-3.6c1.2-3.5,3.6-11.2,4.7-14.7
		C188.1,4.2,186.1,0.5,182.2,0.5 M177.8,10.6c-0.5,1.6-1.7,5.5-2,6.3c-0.2,0.7-0.5,1.2-1.5,1.2c-1,0-6.3,0-6.3,0l3-9.7h5.7
		C177.5,8.4,178.3,8.9,177.8,10.6"/>
	<path d="M33.7,17.5c-1.8,2-3.4,5.2-4.7,9.7c-0.8,2.8-1.4,5.1-1.5,6.8c0,0.4,0,0.8,0,1.1c0,2,0.5,3.5,1.5,4.6
		c1.3,1.4,3.7,2.1,6.9,2.1c7.7,0,12-3,14.1-9.8l0.1-0.4H42L42,31.8c-1.2,3.8-2.6,4.6-4.6,4.6c-0.6,0-1.1-0.2-1.4-0.5
		c-0.4-0.4-0.5-1.1-0.4-2c0.1-1.4,0.7-3.7,1.7-7c0.9-3.1,1.7-5.1,2.4-6.2c0.8-1.3,1.9-2,3.3-2c1.6,0,2.3,1,2.3,1.6
		c0,0.7-0.1,1.1-0.4,1.8L44.4,23l0.4,0h7.7l0.1-0.2c0.3-1,0.3-1.1,0.4-2.1c0.2-2.1-0.3-3.8-1.4-5c-1.4-1.5-3.9-2.3-7.3-2.3
		C39.7,13.3,36.2,14.7,33.7,17.5"/>
	<path d="M55,22.6L54.9,23h7.9l0.2-0.8c0.3-1.1,0.7-2.4,1-2.8c0.6-0.8,1.4-1.1,2.5-1.1c0.8,0,1.3,0.2,1.6,0.5c0.2,0.2,0.3,0.6,0.3,1
		c0,0.1,0,0.2,0,0.3c0,0.4-0.2,1.1-0.4,1.8c0,0-0.7,2.7-0.8,3.1c-4,0-6.8,0.3-9.1,1.3c-1.5,0.6-5.2,2.5-6.5,7
		c-0.4,1.2-0.5,2.1-0.6,3c-0.1,1.3,0.1,3.1,1.3,4.4c0.8,0.9,2,1.3,3.5,1.3c3.2,0,5.7-1.2,7.9-3.5c0,0.3,0,0.5,0,0.9
		c0,1.1,0.3,2.1,0.3,2.1h7.3c0,0-0.1-0.3-0.2-0.9c-0.3-1.8,0.1-2.8,0.5-4.1l4-13.5c0.4-1.3,0.6-2.4,0.7-3.3c0.1-1.6-0.3-2.9-1.2-3.9
		c-1.4-1.5-4-2.3-7.8-2.3C61.1,13.3,56.7,16.6,55,22.6 M61.5,30.3c0.9-0.4,1.9-0.5,3.7-0.5c0,0,0.3,0,0.6,0
		c-0.8,2.7-1.1,3.3-1.4,3.9c-1.1,2.2-2.4,3.2-4.2,3.2c-0.6,0-1-0.2-1.3-0.5c-0.3-0.3-0.4-0.7-0.4-1.3c0-0.1,0-0.2,0-0.3
		C58.7,32.1,60.5,30.7,61.5,30.3"/>
	<path d="M92.8,17.4c-1.8,2-3.4,5.2-4.7,9.6c-0.8,2.8-1.4,5.1-1.5,6.8c0,0.4-0.1,0.8-0.1,1.1c0,2,0.5,3.5,1.5,4.6
		c1.3,1.4,3.7,2.1,7,2.1c3.3,0,6.2-0.8,8.6-2.5c2.4-1.7,4.2-4.1,5.3-7.3l0.1-0.4h-7.7l-0.1,0.2c-0.9,2.9-2.5,4.5-4.6,4.5
		c-0.6,0-1.1-0.2-1.4-0.5c-0.4-0.4-0.6-1-0.6-1.9c0-0.2,0-0.4,0-0.6c0.1-1,0.4-2.5,1-4.4h14.3l0.1-0.2c1.1-3.2,1.7-5.8,1.8-7.6
		c0-0.3,0-0.7,0-1c0-1.9-0.5-3.4-1.5-4.5c-1.4-1.5-3.8-2.3-7-2.3C98.8,13.3,95.2,14.7,92.8,17.4 M101.9,18.5c0.8,0,1.3,0.2,1.7,0.6
		c0.3,0.3,0.5,0.8,0.5,1.5c0,0.1,0,0.3,0,0.4c-0.1,0.6-0.3,1.7-0.8,3.2h-6.2c0.5-1.6,1-2.8,1.4-3.5C99.4,19.2,100.5,18.5,101.9,18.5
		"/>
	<polygon points="171.7,34.6 167.5,34.6 167.4,35.1 169.1,35.1 167.1,41.4 167.8,41.4 169.8,35.1 171.5,35.1 	"/>
	<polygon points="173.7,40.5 177.4,34.6 178.6,34.6 178.6,34.6 176.4,41.4 175.7,41.4 177.7,35.2 173.8,41.4 173.1,41.4 173.1,35.2 
		171.1,41.4 170.5,41.4 172.6,34.8 172.6,34.6 173.7,34.6 	"/>
</g>
</svg>
