<?xml version="1.0" encoding="UTF-8"?>
<svg width="110px" height="114px" viewBox="0 0 110 114" version="1.1" xmlns="http://www.w3.org/2000/svg" xmlns:xlink="http://www.w3.org/1999/xlink">
    <defs>
        <linearGradient x1="0%" y1="50%" x2="100%" y2="50%" id="linearGradient-1">
            <stop stop-color="#FFF263" offset="0%"></stop>
            <stop stop-color="#FEDC5E" offset="100%"></stop>
        </linearGradient>
        <linearGradient x1="0%" y1="50%" x2="100%" y2="50%" id="linearGradient-2">
            <stop stop-color="#9EE96B" offset="0%"></stop>
            <stop stop-color="#6EAF56" offset="100%"></stop>
        </linearGradient>
    </defs>
    <g stroke="none" stroke-width="1" fill="none" fill-rule="evenodd">
        <g id="Group" fill-rule="nonzero">
            <path d="M81.668,26.316 L56.336,26.316 C54.2152266,26.316 52.496,28.0352266 52.496,30.156 L52.496,54.161 C52.4964562,54.4698418 52.5265947,54.7779249 52.586,55.081 L28.21,55.081 C26.0896171,55.0815522 24.371,56.800617 24.371,58.921 L24.371,82.926 C24.371,85.5765763 26.5194237,87.726 29.17,87.726 L53.542,87.726 C55.6623829,87.726 57.3810001,86.006383 57.381,83.886 L57.381,58.962 L81.668,58.962 C82.6866046,58.962 83.6634752,58.5572925 84.3836437,57.8369365 C85.1038121,57.1165805 85.5080001,56.1396046 85.5080001,55.121 L85.5080001,30.156 C85.5080001,28.0352266 83.7887734,26.316 81.668,26.316 Z" id="Path" fill="url(#linearGradient-1)"></path>
            <path d="M96.469,0 L40.295,0 C32.978,0 27.045,6.233 27.045,13.922 L27.045,28.704 L13.25,28.704 C5.933,28.704 0,34.937 0,42.626 L0,99.588 C0,107.277 5.933,113.51 13.25,113.51 L69.422,113.51 C76.739,113.51 82.671,107.277 82.671,99.588 L82.671,84.806 L96.468,84.806 C103.785,84.806 109.717,78.573 109.717,70.884 L109.717,13.922 C109.717,6.233 103.785,0 96.467,0 L96.469,0 Z M95.428,61.025 C95.5465696,65.9395425 91.6623712,70.0215307 86.748,70.147 L68.382,70.147 L68.382,89.73 C68.5000086,94.6441562 64.6159713,98.7255276 59.702,98.851 L22.969,98.851 C18.0550287,98.7255276 14.1709914,94.6441562 14.289,89.73 L14.289,52.485 C14.1704304,47.5704575 18.0546288,43.4884693 22.969,43.363 L41.335,43.363 L41.335,23.78 C41.2169914,18.8658438 45.1010287,14.7844724 50.015,14.659 L86.746,14.659 C91.6599713,14.7844724 95.5440086,18.8658438 95.426,23.78 L95.428,61.025 Z" id="Shape" fill="url(#linearGradient-2)"></path>
        </g>
    </g>
</svg>