<?xml version="1.0" encoding="UTF-8"?>
<svg width="110px" height="114px" viewBox="0 0 110 114" version="1.1" xmlns="http://www.w3.org/2000/svg" xmlns:xlink="http://www.w3.org/1999/xlink">
    <g id="Page-1" stroke="none" stroke-width="1" fill="none" fill-rule="evenodd">
        <path d="M77.7967024,31 L56.6649492,31 C54.8958168,31 53.4616517,32.4557854 53.4616517,34.2515877 L53.4616517,54.5782446 C53.4620322,54.8397618 53.4871735,55.1006366 53.5367289,55.3572708 L33.2024633,55.3572708 C31.4336567,55.3577384 30,56.8133868 30,58.6088585 L30,78.9355154 C30,81.1799376 31.792198,83 34.0032877,83 L54.3342166,83 C56.1030231,83 57.53668,81.543884 57.5366799,79.7484123 L57.5366799,58.643576 L77.7967024,58.643576 C78.6464143,58.643576 79.461312,58.3008828 80.0620708,57.6909086 C80.6628296,57.0809345 81,56.2536629 81,55.3911415 L81,34.2515877 C81,32.4557854 79.5658347,31 77.7967024,31 Z" id="Path" fill="#FFFFFF" fill-rule="nonzero"></path>
        <path d="M92.9252987,5 L41.7263049,5 C35.0573293,5 29.6497808,10.710792 29.6497808,17.7555986 L29.6497808,31.2991454 L17.0765241,31.2991454 C10.4075485,31.2991454 5,37.0099375 5,44.0547441 L5,96.2444014 C5,103.289208 10.4075485,109 17.0765241,109 L68.2736951,109 C74.9426707,109 80.3493078,103.289208 80.3493078,96.2444014 L80.3493078,82.7008546 L92.9243873,82.7008546 C99.5933629,82.7008546 105,76.9900625 105,69.9452559 L105,17.7555986 C105,10.710792 99.5933629,5 92.9234759,5 L92.9252987,5 Z" id="Shape" stroke="#FFFFFF" stroke-width="10" fill-rule="nonzero"></path>
    </g>
</svg>