<svg viewBox="0 0 24 24" version="1.1" xmlns="http://www.w3.org/2000/svg" xmlns:xlink="http://www.w3.org/1999/xlink">
  <g id="whitespace-eye" transform="translate(2, 10)" fill="rgb(var(--v-theme-action-button))" fill-rule="nonzero">
    <path d="M15,6.88 C15.56,6.88 16,7.32 16,7.88 C16,8.44 15.56,8.88 15,8.88 C14.44,8.88 14,8.43 14,7.88 C14,7.33 14.44,6.88 15,6.88 M15,3.88 C17.73,3.88 20.06,5.54 21,7.88 C20.06,10.22 17.73,11.88 15,11.88 C12.27,11.88 9.94,10.22 9,7.88 C9.94,5.54 12.27,3.88 15,3.88 M15,5.38 C13.62,5.38 12.5,6.5 12.5,7.88 C12.5,9.26 13.62,10.38 15,10.38 C16.38,10.38 17.5,9.26 17.5,7.88 C17.5,6.5 16.38,5.38 15,5.38 M0,1.77635684e-15 L0,7 C0,8.1 0.9,9 2,9 L7.42,9 C7.26,8.68 7.12,8.34 7,8 C7.12,7.66 7.26,7.32 7.42,7 L2,7 L2,1.77635684e-15 M16,0 C16,1.37582568 16,2.06373851 16,2.06373851 C16.6954344,2.15253355 17.3688755,2.33212115 18,2.59 L18,0 L16,0 Z" id="Shape"></path>
  </g>
</svg>
