<svg viewBox="0 0 24 24" version="1.1" xmlns="http://www.w3.org/2000/svg" xmlns:xlink="http://www.w3.org/1999/xlink">
  <g id="whitespace-eye-off" transform="translate(1.11, 1.73)" fill="rgb(var(--v-theme-action-button))" fill-rule="nonzero">
    <path d="M0.89,8.27 L0.89,15.27 C0.89,16.37 1.79,17.27 2.89,17.27 L8.31,17.27 C8.15,16.95 8.01,16.61 7.89,16.27 C8.01,15.93 8.15,15.59 8.31,15.27 L2.89,15.27 L2.89,8.27 L0.89,8.27 Z M16.89,8.27 C16.89,9.64582568 16.89,10.3337385 16.89,10.3337385 C17.5854344,10.4225335 18.2588755,10.6021212 18.89,10.86 L18.89,8.27 L16.89,8.27 Z" id="Shape"></path>
    <path d="M21.2,17.38 C21.47,17 21.71,16.59 21.89,16.15 C20.96,13.84 18.67,12.19 15.98,12.16 L21.2,17.38 Z M19.73,21 L18.39,19.64 C17.6,19.96 16.77,20.15 15.89,20.15 C13.16,20.15 10.83,18.49 9.89,16.15 C10.34,15.03 11.12,14.07 12.1,13.37 L0,1.27 L1.28,0 L21,19.73 L19.73,21 Z M17.07,18.34 L13.7,14.97 C13.5,15.32 13.39,15.72 13.39,16.15 C13.39,17.53 14.51,18.65 15.89,18.65 C16.32,18.65 16.72,18.54 17.07,18.34 Z" id="Shape"></path>
  </g>
</svg>
